
#define fselch5mm.202pk_110_width 	 35
#define fselch5mm.202pk_110_height 	 36
#define fselch5mm.202pk_110_xoff 	 0
#define fselch5mm.202pk_110_yoff 	 0
static char fselch5mm.202pk_110_bits[] = {
   0x04,  0x00,  0x00,  0x00,  0x01, 
   0xfa,  0x7f,  0xf0,  0xff,  0x02, 
   0x01,  0x80,  0x0d,  0x00,  0x04, 
   0x06,  0x00,  0x02,  0x00,  0x03, 
   0xf8,  0x3f,  0xe0,  0xff,  0x00, 
   0x00,  0xc0,  0x18,  0x00,  0x00, 
   0x00,  0x00,  0x05,  0x00,  0x00, 
   0x00,  0xf0,  0x7f,  0x00,  0x00, 
   0x00,  0x0e,  0x80,  0x03,  0x00, 
   0x00,  0x06,  0x00,  0x03,  0x00, 
   0x00,  0xfc,  0xff,  0x01,  0x00, 
   0x00,  0x04,  0x00,  0x01,  0x00, 
   0x00,  0x08,  0x80,  0x00,  0x00, 
   0x00,  0x18,  0xc0,  0x00,  0x00, 
   0x00,  0xe4,  0x3f,  0x01,  0x00, 
   0x00,  0x04,  0x00,  0x01,  0x00, 
   0x00,  0x02,  0x00,  0x02,  0x00, 
   0x00,  0x02,  0x00,  0x02,  0x00, 
   0x00,  0x01,  0x02,  0x04,  0x00, 
   0x00,  0x01,  0x02,  0x04,  0x00, 
   0x00,  0x01,  0x02,  0x04,  0x00, 
   0x00,  0xc1,  0x1f,  0x04,  0x00, 
   0x00,  0x01,  0x02,  0x04,  0x00, 
   0x00,  0x02,  0x02,  0x02,  0x00, 
   0x00,  0x02,  0x02,  0x02,  0x00, 
   0x00,  0x04,  0x00,  0x01,  0x00, 
   0x00,  0x08,  0x80,  0x00,  0x00, 
   0x00,  0x10,  0x40,  0x00,  0x00, 
   0x00,  0x60,  0x30,  0x00,  0x00, 
   0x00,  0x80,  0x08,  0x00,  0x00, 
   0x00,  0x00,  0x05,  0x00,  0x00, 
   0x00,  0x00,  0x07,  0x00,  0x00, 
   0x00,  0x80,  0x08,  0x00,  0x00, 
   0x00,  0x80,  0x08,  0x00,  0x00, 
   0x00,  0x80,  0x08,  0x00,  0x00, 
   0x00,  0x00,  0x07,  0x00,  0x00, };
