#define fselch5mm.202pk_126_width 	 40
#define fselch5mm.202pk_126_height 	 40
#define fselch5mm.202pk_126_xoff 	 0
#define fselch5mm.202pk_126_yoff 	 0
static char fselch5mm.202pk_126_bits[] = {
   0x88,  0x88,  0x88,  0x88,  0x88, 
   0x44,  0x44,  0x44,  0x44,  0x44, 
   0x22,  0x00,  0x00,  0x00,  0x22, 
   0x11,  0x00,  0x00,  0x00,  0x10, 
   0x08,  0xfe,  0xff,  0xff,  0x88, 
   0x44,  0x02,  0x00,  0x80,  0x44, 
   0x22,  0x02,  0x00,  0x80,  0x20, 
   0x11,  0x02,  0x00,  0x80,  0x10, 
   0x08,  0x02,  0x00,  0x80,  0x88, 
   0x44,  0x04,  0x00,  0x40,  0x44, 
   0x22,  0x04,  0x00,  0x40,  0x22, 
   0x11,  0x04,  0x00,  0x40,  0x10, 
   0x88,  0x08,  0x00,  0x20,  0x88, 
   0x44,  0x08,  0x00,  0x20,  0x44, 
   0x22,  0x12,  0x00,  0x10,  0x22, 
   0x11,  0x21,  0x00,  0x08,  0x11, 
   0x88,  0x80,  0x01,  0x86,  0x88, 
   0x44,  0x04,  0x83,  0x41,  0x44, 
   0x22,  0x82,  0x00,  0x22,  0x22, 
   0x11,  0x41,  0x00,  0x04,  0x11, 
   0x88,  0x20,  0x00,  0x88,  0x88, 
   0x44,  0x24,  0x00,  0x48,  0x44, 
   0x22,  0x22,  0x00,  0x08,  0x22, 
   0x11,  0x21,  0x00,  0x08,  0x11, 
   0x88,  0x20,  0x00,  0x88,  0x88, 
   0x44,  0x44,  0x00,  0x44,  0x44, 
   0x22,  0x82,  0x01,  0x23,  0x22, 
   0x11,  0x11,  0xc6,  0x10,  0x11, 
   0x88,  0x08,  0x82,  0x88,  0x88, 
   0x44,  0x04,  0x01,  0x41,  0x44, 
   0x22,  0x22,  0x01,  0x21,  0x22, 
   0x11,  0x11,  0x01,  0x11,  0x11, 
   0x88,  0x08,  0x01,  0x89,  0x88, 
   0x44,  0x44,  0x82,  0x44,  0x44, 
   0x22,  0x22,  0x7c,  0x20,  0x22, 
   0x11,  0x11,  0x00,  0x10,  0x11, 
   0x88,  0x88,  0x80,  0x88,  0x88, 
   0x44,  0x44,  0x44,  0x44,  0x44, 
   0x22,  0x22,  0x22,  0x22,  0x22, 
   0x11,  0x11,  0x11,  0x11,  0x11, };
