#define fselch8.285pk_£_width 	 32
#define fselch8.285pk_£_height 	 32
#define fselch8.285pk_£_xoff 	 0
#define fselch8.285pk_£_yoff 	 0
static char fselch8.285pk_£_bits[] = {
   0x92,  0x24,  0x49,  0x92, 
   0x49,  0x92,  0x24,  0x49, 
   0x24,  0x09,  0x90,  0x24, 
   0x92,  0xe4,  0x4f,  0x92, 
   0x49,  0x18,  0x30,  0x49, 
   0x24,  0x06,  0xc0,  0x24, 
   0x12,  0x01,  0x00,  0x91, 
   0x89,  0x00,  0x00,  0x4a, 
   0x44,  0x00,  0x00,  0x24, 
   0x52,  0x00,  0x00,  0x94, 
   0x29,  0x00,  0x00,  0x48, 
   0x24,  0x00,  0x00,  0x28, 
   0x12,  0x00,  0x00,  0x90, 
   0x11,  0x00,  0x00,  0x50, 
   0x14,  0x00,  0x00,  0x10, 
   0x12,  0x00,  0x00,  0x90, 
   0x11,  0x00,  0x00,  0x50, 
   0x14,  0x00,  0x00,  0x10, 
   0x12,  0x00,  0x00,  0x90, 
   0x29,  0x00,  0x00,  0x48, 
   0x24,  0x00,  0x00,  0x28, 
   0x52,  0x00,  0x00,  0x94, 
   0x49,  0x00,  0x00,  0x44, 
   0xa4,  0x00,  0x00,  0x22, 
   0x12,  0x01,  0x00,  0x91, 
   0x49,  0x06,  0xc0,  0x48, 
   0x24,  0x19,  0x30,  0x24, 
   0x92,  0xe4,  0x4f,  0x92, 
   0x49,  0x12,  0x20,  0x49, 
   0x24,  0x49,  0x92,  0x24, 
   0x92,  0x24,  0x49,  0x92, 
   0x49,  0x92,  0x24,  0x49, };
