#define fselch8.285pk_ê_width 	 32
#define fselch8.285pk_ê_height 	 32
#define fselch8.285pk_ê_xoff 	 0
#define fselch8.285pk_ê_yoff 	 0
static char fselch8.285pk_ê_bits[] = {
   0x92,  0x24,  0x49,  0x92, 
   0x49,  0x92,  0x24,  0x49, 
   0x24,  0x49,  0x92,  0x24, 
   0x82,  0x24,  0x49,  0x82, 
   0x11,  0x92,  0x24,  0x11, 
   0x30,  0x49,  0x92,  0x18, 
   0x52,  0x24,  0x48,  0x94, 
   0xd1,  0x10,  0x20,  0x16, 
   0x50,  0x83,  0x93,  0x15, 
   0x52,  0xa4,  0x4a,  0x94, 
   0x51,  0x88,  0x22,  0x14, 
   0x50,  0x90,  0x12,  0x14, 
   0x52,  0xe0,  0x0e,  0x94, 
   0x51,  0x80,  0x02,  0x14, 
   0x50,  0x80,  0x02,  0x14, 
   0x52,  0x80,  0x02,  0x94, 
   0x51,  0xe0,  0x0e,  0x14, 
   0x50,  0x90,  0x12,  0x14, 
   0x52,  0x88,  0x22,  0x94, 
   0x51,  0x84,  0x42,  0x14, 
   0x50,  0x83,  0x93,  0x15, 
   0xd2,  0x20,  0x08,  0x96, 
   0x51,  0x12,  0x24,  0x14, 
   0x30,  0x49,  0x92,  0x18, 
   0x92,  0x24,  0x49,  0x92, 
   0x41,  0x92,  0x24,  0x49, 
   0x24,  0x49,  0x92,  0x24, 
   0x92,  0x24,  0x49,  0x92, 
   0x49,  0x92,  0x24,  0x49, 
   0x24,  0x49,  0x92,  0x24, 
   0x92,  0x24,  0x49,  0x92, 
   0x49,  0x92,  0x24,  0x49, };
