#define fselch12.264pk_126_width 	 44
#define fselch12.264pk_126_height 	 44
#define fselch12.264pk_126_xoff 	 0
#define fselch12.264pk_126_yoff 	 0
static char fselch12.264pk_126_bits[] = {
   0x08,  0x21,  0x84,  0x10,  0x42,  0x08, 
   0x84,  0x10,  0x42,  0x08,  0x21,  0x04, 
   0x42,  0x00,  0x00,  0x00,  0x00,  0x02, 
   0x21,  0x00,  0x00,  0x00,  0x00,  0x01, 
   0x10,  0xfe,  0xff,  0xff,  0x8f,  0x00, 
   0x08,  0x02,  0x00,  0x00,  0x48,  0x08, 
   0x04,  0x02,  0x00,  0x00,  0x08,  0x04, 
   0x42,  0x02,  0x00,  0x00,  0x08,  0x02, 
   0x21,  0x02,  0x00,  0x00,  0x08,  0x01, 
   0x10,  0x02,  0x00,  0x00,  0x88,  0x00, 
   0x08,  0x04,  0x00,  0x00,  0x44,  0x08, 
   0x84,  0x04,  0x00,  0x00,  0x24,  0x04, 
   0x42,  0x04,  0x00,  0x00,  0x04,  0x02, 
   0x21,  0x08,  0x00,  0x00,  0x02,  0x01, 
   0x10,  0x08,  0x00,  0x00,  0x82,  0x00, 
   0x08,  0x11,  0x00,  0x00,  0x41,  0x08, 
   0x84,  0x20,  0x00,  0x80,  0x20,  0x04, 
   0x42,  0xc0,  0x00,  0x60,  0x10,  0x02, 
   0x21,  0x04,  0x03,  0x18,  0x08,  0x01, 
   0x10,  0x02,  0x0c,  0x06,  0x84,  0x00, 
   0x08,  0x21,  0x02,  0x08,  0x42,  0x08, 
   0x84,  0x10,  0x01,  0x10,  0x21,  0x04, 
   0x42,  0x08,  0x01,  0x10,  0x10,  0x02, 
   0x21,  0x84,  0x00,  0x20,  0x08,  0x01, 
   0x10,  0x82,  0x00,  0x20,  0x84,  0x00, 
   0x08,  0x81,  0x00,  0x20,  0x42,  0x08, 
   0x84,  0x90,  0x00,  0x20,  0x21,  0x04, 
   0x42,  0x88,  0x00,  0x20,  0x10,  0x02, 
   0x21,  0x04,  0x01,  0x10,  0x08,  0x01, 
   0x10,  0x02,  0x01,  0x10,  0x84,  0x00, 
   0x08,  0x21,  0x06,  0x0c,  0x42,  0x08, 
   0x84,  0x10,  0x18,  0x03,  0x21,  0x04, 
   0x42,  0x08,  0x08,  0x82,  0x10,  0x02, 
   0x21,  0x84,  0x04,  0x44,  0x08,  0x01, 
   0x10,  0x42,  0x04,  0x24,  0x84,  0x00, 
   0x08,  0x21,  0x04,  0x04,  0x42,  0x08, 
   0x84,  0x10,  0x04,  0x04,  0x21,  0x04, 
   0x42,  0x08,  0x09,  0x82,  0x10,  0x02, 
   0x21,  0x84,  0xf0,  0x41,  0x08,  0x01, 
   0x10,  0x42,  0x00,  0x20,  0x84,  0x00, 
   0x08,  0x21,  0x04,  0x10,  0x42,  0x08, 
   0x84,  0x10,  0x42,  0x08,  0x21,  0x04, 
   0x42,  0x08,  0x21,  0x84,  0x10,  0x02, 
   0x21,  0x84,  0x10,  0x42,  0x08,  0x01, };
