#define fselch12.264pk_Å_width 	 44
#define fselch12.264pk_Å_height 	 44
#define fselch12.264pk_Å_xoff 	 0
#define fselch12.264pk_Å_yoff 	 0
static char fselch12.264pk_Å_bits[] = {
   0x08,  0x21,  0x84,  0x10,  0x42,  0x08, 
   0x84,  0x10,  0x42,  0x08,  0x21,  0x04, 
   0x02,  0x00,  0x00,  0x00,  0x00,  0x02, 
   0x01,  0x00,  0x00,  0x00,  0x00,  0x01, 
   0x90,  0xff,  0xff,  0xff,  0x3f,  0x00, 
   0x88,  0x00,  0x00,  0x00,  0x20,  0x08, 
   0x84,  0x00,  0x00,  0x00,  0x20,  0x04, 
   0x82,  0xff,  0xff,  0xff,  0x3f,  0x02, 
   0x01,  0x04,  0x00,  0x00,  0x04,  0x01, 
   0x10,  0x04,  0x00,  0x00,  0x84,  0x00, 
   0x08,  0x04,  0x00,  0x00,  0x44,  0x08, 
   0x84,  0x04,  0x00,  0x00,  0x24,  0x04, 
   0x42,  0xfc,  0xff,  0xff,  0x07,  0x02, 
   0x21,  0x10,  0x00,  0x00,  0x01,  0x01, 
   0x10,  0x22,  0x00,  0x80,  0x80,  0x00, 
   0x08,  0xc1,  0xff,  0x7f,  0x40,  0x08, 
   0x84,  0x40,  0x00,  0x40,  0x20,  0x04, 
   0x42,  0x48,  0x00,  0x40,  0x10,  0x02, 
   0x21,  0x44,  0x00,  0x40,  0x08,  0x01, 
   0x10,  0x42,  0x00,  0x40,  0x84,  0x00, 
   0x08,  0x41,  0x00,  0x40,  0x42,  0x08, 
   0x84,  0x40,  0x00,  0x40,  0x20,  0x04, 
   0x42,  0x48,  0x00,  0x40,  0x10,  0x02, 
   0x21,  0x44,  0x00,  0x40,  0x08,  0x01, 
   0x10,  0x42,  0x00,  0x40,  0x84,  0x00, 
   0x08,  0x41,  0x00,  0x40,  0x42,  0x08, 
   0x84,  0x40,  0x00,  0x40,  0x20,  0x04, 
   0x42,  0x48,  0x00,  0x40,  0x10,  0x02, 
   0x21,  0x44,  0x00,  0x40,  0x08,  0x01, 
   0x10,  0xc2,  0xff,  0x7f,  0x80,  0x00, 
   0x08,  0x31,  0x00,  0x80,  0x41,  0x08, 
   0x84,  0x08,  0x00,  0x00,  0x22,  0x04, 
   0x42,  0xfc,  0xff,  0xff,  0x07,  0x02, 
   0x21,  0x04,  0x00,  0x00,  0x04,  0x01, 
   0x10,  0x04,  0x00,  0x00,  0x84,  0x00, 
   0x08,  0x84,  0x1f,  0x3f,  0x44,  0x08, 
   0x84,  0x84,  0x10,  0x21,  0x24,  0x04, 
   0x42,  0x84,  0x10,  0x21,  0x04,  0x02, 
   0x21,  0xfc,  0xf0,  0xe1,  0x07,  0x01, 
   0x10,  0x00,  0x00,  0x00,  0x80,  0x00, 
   0x08,  0x01,  0x04,  0x00,  0x40,  0x08, 
   0x84,  0x10,  0x42,  0x08,  0x21,  0x04, 
   0x42,  0x08,  0x21,  0x84,  0x10,  0x02, 
   0x21,  0x84,  0x10,  0x42,  0x08,  0x01, };
