#define fselch5mm.202pk_95_width 	 40
#define fselch5mm.202pk_95_height 	 40
#define fselch5mm.202pk_95_xoff 	 0
#define fselch5mm.202pk_95_yoff 	 0
static char fselch5mm.202pk_95_bits[] = {
   0x88,  0x88,  0x08,  0x88,  0x88, 
   0x44,  0x44,  0x04,  0x40,  0x44, 
   0x22,  0x22,  0xe0,  0x20,  0x22, 
   0x11,  0x11,  0x18,  0x03,  0x11, 
   0x88,  0x08,  0x04,  0x84,  0x88, 
   0x44,  0x04,  0x02,  0x48,  0x44, 
   0x22,  0x00,  0x01,  0x08,  0x22, 
   0x11,  0x80,  0x00,  0x10,  0x11, 
   0x88,  0xff,  0x00,  0x90,  0x88, 
   0x84,  0x89,  0x00,  0x10,  0x44, 
   0x42,  0x09,  0x01,  0x10,  0x22, 
   0x41,  0x0a,  0x01,  0x10,  0x11, 
   0x48,  0x0a,  0x01,  0x88,  0x88, 
   0x44,  0x12,  0x01,  0x48,  0x44, 
   0x22,  0x12,  0x02,  0x00,  0x22, 
   0x21,  0x14,  0x02,  0x04,  0x00, 
   0x20,  0x14,  0x02,  0x7e,  0x00, 
   0x24,  0x14,  0x82,  0x83,  0x20, 
   0x22,  0x14,  0xe2,  0x00,  0x21, 
   0x21,  0x14,  0x1e,  0x00,  0xff, 
   0x20,  0x14,  0xe2,  0x00,  0x21, 
   0x24,  0x14,  0x82,  0x83,  0x20, 
   0x22,  0x14,  0x02,  0x7e,  0x00, 
   0x21,  0x14,  0x02,  0x04,  0x00, 
   0x20,  0x12,  0x02,  0x80,  0x88, 
   0x44,  0x12,  0x01,  0x48,  0x44, 
   0x42,  0x0a,  0x01,  0x08,  0x22, 
   0x41,  0x0a,  0x01,  0x10,  0x11, 
   0x48,  0x09,  0x01,  0x90,  0x88, 
   0x84,  0x89,  0x00,  0x10,  0x44, 
   0x82,  0xff,  0x00,  0x10,  0x22, 
   0x11,  0x80,  0x00,  0x10,  0x11, 
   0x08,  0x00,  0x01,  0x88,  0x88, 
   0x44,  0x04,  0x02,  0x48,  0x44, 
   0x22,  0x22,  0x04,  0x04,  0x22, 
   0x11,  0x11,  0x18,  0x03,  0x11, 
   0x88,  0x88,  0xe0,  0x80,  0x88, 
   0x44,  0x44,  0x04,  0x40,  0x44, 
   0x22,  0x22,  0x02,  0x22,  0x22, 
   0x11,  0x11,  0x11,  0x11,  0x11, };
