#define fselch16.218pk_54_width 	 48
#define fselch16.218pk_54_height 	 48
#define fselch16.218pk_54_xoff 	 0
#define fselch16.218pk_54_yoff 	 0
static char fselch16.218pk_54_bits[] = {
   0x84,  0x10,  0x42,  0x08,  0x21,  0x84, 
   0x42,  0x08,  0x21,  0x84,  0x10,  0x42, 
   0x21,  0x84,  0x10,  0x42,  0x08,  0x21, 
   0x10,  0x42,  0x08,  0x21,  0x84,  0x10, 
   0x08,  0x21,  0x84,  0x10,  0x42,  0x08, 
   0x84,  0x10,  0x42,  0x08,  0x21,  0x84, 
   0x42,  0x08,  0x21,  0x84,  0x10,  0x42, 
   0x21,  0x84,  0x10,  0x42,  0x00,  0x20, 
   0x10,  0x42,  0x08,  0x21,  0x00,  0x10, 
   0x08,  0x21,  0x84,  0x10,  0xf0,  0x01, 
   0x84,  0x10,  0x42,  0x00,  0x0e,  0x81, 
   0x42,  0x08,  0x21,  0x80,  0x01,  0x41, 
   0x21,  0x04,  0x00,  0x60,  0x00,  0x21, 
   0x10,  0x02,  0x00,  0x10,  0x00,  0x11, 
   0x08,  0x01,  0x00,  0x08,  0x00,  0x01, 
   0x84,  0x00,  0x1f,  0x04,  0x00,  0x81, 
   0x02,  0xc0,  0x60,  0x04,  0x00,  0x41, 
   0x01,  0x20,  0x80,  0x02,  0x00,  0x21, 
   0xe0,  0x13,  0x80,  0x02,  0x00,  0x11, 
   0x10,  0x14,  0x00,  0x01,  0x00,  0x01, 
   0x08,  0x08,  0x00,  0x01,  0x00,  0x81, 
   0x04,  0x08,  0x00,  0x00,  0x00,  0x41, 
   0x04,  0x00,  0x00,  0x00,  0x00,  0x21, 
   0x04,  0x00,  0x00,  0x00,  0x00,  0x11, 
   0x04,  0x00,  0x00,  0x00,  0x00,  0x01, 
   0x04,  0x08,  0x00,  0x00,  0x00,  0x81, 
   0x08,  0x08,  0x00,  0x01,  0x00,  0x41, 
   0x11,  0x14,  0x00,  0x01,  0x00,  0x21, 
   0xe0,  0x13,  0x80,  0x02,  0x00,  0x11, 
   0x00,  0x20,  0x80,  0x02,  0x00,  0x01, 
   0x04,  0xc0,  0x60,  0x04,  0x00,  0x81, 
   0x42,  0x00,  0x1f,  0x04,  0x00,  0x41, 
   0x21,  0x04,  0x00,  0x08,  0x00,  0x21, 
   0x10,  0x02,  0x00,  0x10,  0x00,  0x11, 
   0x08,  0x21,  0x80,  0x60,  0x00,  0x01, 
   0x84,  0x10,  0x42,  0x80,  0x01,  0x81, 
   0x42,  0x08,  0x21,  0x04,  0x0e,  0x41, 
   0x21,  0x84,  0x10,  0x02,  0xf0,  0x21, 
   0x10,  0x42,  0x08,  0x21,  0x00,  0x10, 
   0x08,  0x21,  0x84,  0x10,  0x02,  0x08, 
   0x84,  0x10,  0x42,  0x08,  0x21,  0x84, 
   0x42,  0x08,  0x21,  0x84,  0x10,  0x42, 
   0x21,  0x84,  0x10,  0x42,  0x08,  0x21, 
   0x10,  0x42,  0x08,  0x21,  0x84,  0x10, 
   0x08,  0x21,  0x84,  0x10,  0x42,  0x08, 
   0x84,  0x10,  0x42,  0x08,  0x21,  0x84, 
   0x42,  0x08,  0x21,  0x84,  0x10,  0x42, 
   0x21,  0x84,  0x10,  0x42,  0x08,  0x21, };
