#define fselch16.218pk_59_width 	 48
#define fselch16.218pk_59_height 	 48
#define fselch16.218pk_59_xoff 	 0
#define fselch16.218pk_59_yoff 	 0
static char fselch16.218pk_59_bits[] = {
   0x84,  0x10,  0x42,  0x08,  0x21,  0x84, 
   0x42,  0x08,  0x01,  0x84,  0x10,  0x42, 
   0x21,  0x84,  0x00,  0x40,  0x08,  0x21, 
   0x10,  0x42,  0x00,  0x20,  0x84,  0x10, 
   0x08,  0x21,  0xf8,  0x00,  0x42,  0x08, 
   0x84,  0x10,  0x06,  0x03,  0x21,  0x84, 
   0x42,  0x08,  0x01,  0x84,  0x10,  0x42, 
   0x21,  0x84,  0x00,  0x08,  0x08,  0x21, 
   0x10,  0x82,  0x00,  0x10,  0x00,  0x10, 
   0x08,  0x41,  0x00,  0x20,  0x00,  0x08, 
   0x84,  0x40,  0x00,  0x60,  0x00,  0x84, 
   0x42,  0x48,  0x00,  0xc0,  0xff,  0x40, 
   0x21,  0x44,  0x00,  0x20,  0xc4,  0x20, 
   0x10,  0x42,  0x00,  0x20,  0xa4,  0x10, 
   0x08,  0x41,  0x00,  0x20,  0x22,  0x09, 
   0x84,  0x80,  0x00,  0x20,  0x22,  0x81, 
   0x42,  0x88,  0x00,  0x20,  0x22,  0x41, 
   0x21,  0x04,  0x01,  0x10,  0x22,  0x21, 
   0x00,  0x02,  0x01,  0x10,  0x11,  0x12, 
   0x00,  0xf1,  0x03,  0x10,  0x11,  0x02, 
   0x00,  0x08,  0x0c,  0x10,  0x11,  0x82, 
   0x20,  0x04,  0x38,  0x10,  0x11,  0x42, 
   0x20,  0x04,  0xe0,  0x10,  0x11,  0x22, 
   0xfc,  0x07,  0x00,  0x1f,  0x11,  0x12, 
   0x20,  0x04,  0xe0,  0x10,  0x11,  0x02, 
   0x20,  0x04,  0x38,  0x10,  0x11,  0x82, 
   0x02,  0x08,  0x0c,  0x10,  0x11,  0x42, 
   0x01,  0xf0,  0x03,  0x10,  0x11,  0x22, 
   0x00,  0x02,  0x01,  0x10,  0x11,  0x12, 
   0x08,  0x01,  0x01,  0x10,  0x22,  0x01, 
   0x84,  0x90,  0x00,  0x20,  0x22,  0x81, 
   0x42,  0x88,  0x00,  0x20,  0x22,  0x41, 
   0x21,  0x44,  0x00,  0x20,  0x22,  0x21, 
   0x10,  0x42,  0x00,  0x20,  0xa4,  0x10, 
   0x08,  0x41,  0x00,  0x20,  0xc4,  0x08, 
   0x84,  0x40,  0x00,  0x40,  0xfc,  0x84, 
   0x42,  0x48,  0x00,  0xc0,  0x07,  0x40, 
   0x21,  0x44,  0x00,  0x20,  0x00,  0x20, 
   0x10,  0x82,  0x00,  0x10,  0x00,  0x10, 
   0x08,  0x81,  0x00,  0x08,  0x42,  0x08, 
   0x84,  0x10,  0x01,  0x04,  0x21,  0x84, 
   0x42,  0x08,  0x06,  0x83,  0x10,  0x42, 
   0x21,  0x04,  0xf8,  0x40,  0x08,  0x21, 
   0x10,  0x42,  0x00,  0x20,  0x84,  0x10, 
   0x08,  0x21,  0x00,  0x10,  0x42,  0x08, 
   0x84,  0x10,  0x02,  0x08,  0x21,  0x84, 
   0x42,  0x08,  0x21,  0x84,  0x10,  0x42, 
   0x21,  0x84,  0x10,  0x42,  0x08,  0x21, };
