<?xml version="1.0" encoding="UTF-8" standalone="no"?>
<!-- Created with Sodipodi ("http://www.sodipodi.com/") -->

<svg
   xmlns:dc="http://purl.org/dc/elements/1.1/"
   xmlns:cc="http://creativecommons.org/ns#"
   xmlns:rdf="http://www.w3.org/1999/02/22-rdf-syntax-ns#"
   xmlns:svg="http://www.w3.org/2000/svg"
   xmlns="http://www.w3.org/2000/svg"
   xmlns:sodipodi="http://sodipodi.sourceforge.net/DTD/sodipodi-0.dtd"
   xmlns:inkscape="http://www.inkscape.org/namespaces/inkscape"
   id="svg548"
   sodipodi:version="0.32"
   width="90"
   height="90"
   sodipodi:docname="0.svg"
   inkscape:version="0.48.3.1 r9886"
   inkscape:output_extension="org.inkscape.output.svg.inkscape"
   version="1.0"
   inkscape:export-filename="/home/jiba/src/bibreview/data/pending.png"
   inkscape:export-xdpi="64"
   inkscape:export-ydpi="64">
  <metadata
     id="metadata14">
    <rdf:RDF>
      <cc:Work
         rdf:about="">
        <dc:format>image/svg+xml</dc:format>
        <dc:type
           rdf:resource="http://purl.org/dc/dcmitype/StillImage" />
        <dc:title />
      </cc:Work>
    </rdf:RDF>
  </metadata>
  <defs
     id="defs550">
    <inkscape:perspective
       sodipodi:type="inkscape:persp3d"
       inkscape:vp_x="0 : 45 : 1"
       inkscape:vp_y="0 : 1000 : 0"
       inkscape:vp_z="90 : 45 : 1"
       inkscape:persp3d-origin="45 : 30 : 1"
       id="perspective15" />
  </defs>
  <sodipodi:namedview
     id="base"
     inkscape:zoom="1.1305556"
     inkscape:cx="4.0695165"
     inkscape:cy="81.779616"
     inkscape:window-width="594"
     inkscape:window-height="450"
     inkscape:window-x="64"
     inkscape:window-y="0"
     inkscape:current-layer="svg548"
     width="90px"
     height="90px"
     showgrid="false"
     inkscape:window-maximized="1" />
  <g
     id="g3263">
    <path
       transform="matrix(1.134807,0,0,1.205673,-0.2250363,-9.0177305)"
       sodipodi:ry="10.997026"
       sodipodi:rx="11.939625"
       sodipodi:cy="68.73909"
       sodipodi:cx="40.008221"
       d="M 51.947845 68.73909 A 11.939625 10.997026 0 1 1  28.068596,68.73909 A 11.939625 10.997026 0 1 1  51.947845 68.73909 z"
       id="path558"
       style="fill:#001b28;fill-opacity:1;fill-rule:evenodd;stroke:none;stroke-width:1pt;stroke-linecap:butt;stroke-linejoin:miter;stroke-opacity:1"
       sodipodi:type="arc" />
    <path
       sodipodi:nodetypes="ccccccccccc"
       id="path556"
       d="M 25.375215,58.013243 37.44822,64.91219 C 40.46655,64.265423 48.170925,61.578842 51.620403,59.207285 L 49.736955,51.329921 C 53.186427,50.467628 72.805152,37.747649 67.415469,19.422464 52.539759,-15.071971 15.458037,8.4274255 15.242412,10.367735 c -0.215517,1.940289 5.174268,11.210766 6.68343,13.582221 l 9.485928,4.311765 6.252174,-3.664995 c -5.174157,9.701553 -12.719877,12.50415 -14.444667,14.660088 -0.86229,0.431142 2.37156,19.403202 2.155938,18.756429 z"
       style="fill:#001b28;fill-opacity:1;fill-rule:evenodd;stroke:none;stroke-width:1pt;stroke-linecap:butt;stroke-linejoin:miter;stroke-opacity:1" />
    <path
       sodipodi:nodetypes="cccccccc"
       id="path553"
       d="M 49.0625,6.96875 C 59.410927,26.156309 43.261657,42.063235 37.65625,46.375 c -0.310834,2.486882 0.265785,4.649736 0.804434,5.593863 L 29.312387,55.828407 37.65625,60.375 l 9,-3.0625 L 45,49.375 C 81.140941,26.207304 52.528494,7.873753 49.0625,6.96875 z"
       style="fill:#157cac;fill-opacity:1;fill-rule:evenodd;stroke:none;stroke-width:1pt;stroke-linecap:butt;stroke-linejoin:miter;stroke-opacity:1" />
    <path
       sodipodi:nodetypes="cccc"
       id="path557"
       d="m 25.311254,20.907909 c 2.549239,1.217861 7.17843,2.826422 7.17843,2.826422 3.723492,-2.557783 7.6033457,-3.670605 11.326838,-4.352105 -2.58708,-4.5060737 -9.8816327,-3.390216 -18.505268,1.525683 z"
       style="fill:#157cac;fill-opacity:1;fill-rule:evenodd;stroke:none;stroke-width:1pt;stroke-linecap:butt;stroke-linejoin:miter;stroke-opacity:1" />
    <path
       sodipodi:nodetypes="ccccc"
       id="path562"
       d="M 55.241532,74.536586 C 55.241532,79.665119 51.122643,83.827397 46.047615,83.827397 C 40.972377,83.827397 36.853488,79.665119 36.853488,74.536586 C 36.853488,69.408056 48.327657,72.537365 46.047615,65.245778 C 51.122643,65.245778 55.241532,69.408056 55.241532,74.536586 z "
       style="font-size:12px;fill:#157cac;fill-opacity:1;fill-rule:evenodd;stroke-width:1pt" />
    <path
       id="path561"
       d="M 51.757494,73.181693 C 51.757494,77.989676 47.985456,81.891854 43.337739,81.891854 C 38.689926,81.891854 34.917891,77.989676 34.917891,73.181693 C 34.917891,68.37371 38.689926,64.471532 43.337739,64.471532 C 47.985456,64.471532 51.757494,68.37371 51.757494,73.181693 z "
       style="font-size:12px;fill:#34bfff;fill-opacity:1;fill-rule:evenodd;stroke-width:1pt" />
    <path
       sodipodi:nodetypes="ccccccccc"
       id="path552"
       d="m 26.884377,41.197226 2.371455,14.660085 9.701553,-3.449475 -1.077915,-6.036453 c 0,0 24.792882,-15.091332 18.10956,-32.554224 -6.683226,-10.7795 -18.756333,-12.504219 -35.356833,-1.077918 2.155938,3.449475 4.115164,7.5670393 4.743018,8.19249 7.32999,-4.096245 18.109557,-6.683325 18.756429,0.431145 0.646773,3.23385 -12.935499,19.4031 -17.247267,19.83435 z"
       style="fill:#34bfff;fill-opacity:1;fill-rule:evenodd;stroke:none;stroke-width:1pt;stroke-linecap:butt;stroke-linejoin:miter;stroke-opacity:1" />
  </g>
</svg>
