<?xml version="1.0" encoding="UTF-8" standalone="no"?>
<!-- Created with Sodipodi ("http://www.sodipodi.com/") -->

<svg
   xmlns:dc="http://purl.org/dc/elements/1.1/"
   xmlns:cc="http://creativecommons.org/ns#"
   xmlns:rdf="http://www.w3.org/1999/02/22-rdf-syntax-ns#"
   xmlns:svg="http://www.w3.org/2000/svg"
   xmlns="http://www.w3.org/2000/svg"
   xmlns:xlink="http://www.w3.org/1999/xlink"
   xmlns:sodipodi="http://sodipodi.sourceforge.net/DTD/sodipodi-0.dtd"
   xmlns:inkscape="http://www.inkscape.org/namespaces/inkscape"
   version="1"
   x="0.00000000"
   y="0.00000000"
   width="90.0000000"
   height="90.0000000"
   id="svg548"
   sodipodi:version="0.32"
   sodipodi:docname="base.svg"
   inkscape:version="0.48.3.1 r9886"
   inkscape:output_extension="org.inkscape.output.svg.inkscape"
   inkscape:export-filename="/home/jiba/src/bibreview/data/base.png"
   inkscape:export-xdpi="64"
   inkscape:export-ydpi="64">
  <metadata
     id="metadata2548">
    <rdf:RDF>
      <cc:Work
         rdf:about="">
        <dc:format>image/svg+xml</dc:format>
        <dc:type
           rdf:resource="http://purl.org/dc/dcmitype/StillImage" />
        <dc:title></dc:title>
      </cc:Work>
    </rdf:RDF>
  </metadata>
  <sodipodi:namedview
     id="base"
     inkscape:zoom="3.197694"
     inkscape:cx="36.17878"
     inkscape:cy="50.312591"
     inkscape:window-width="795"
     inkscape:window-height="619"
     inkscape:window-x="39"
     inkscape:window-y="350"
     inkscape:current-layer="svg548"
     showgrid="false"
     inkscape:window-maximized="0" />
  <defs
     id="defs550">
    <linearGradient
       id="linearGradient689">
      <stop
         style="stop-color:#ffb700;stop-opacity:1;"
         offset="0.000000"
         id="stop690" />
      <stop
         style="stop-color:#fdffff;stop-opacity:0;"
         offset="1.000000"
         id="stop691" />
    </linearGradient>
    <linearGradient
       id="linearGradient684">
      <stop
         style="stop-color:#ffffff;stop-opacity:0.647059;"
         offset="0.000000"
         id="stop685" />
      <stop
         style="stop-color:#fdffff;stop-opacity:0;"
         offset="1.000000"
         id="stop686" />
    </linearGradient>
    <linearGradient
       id="linearGradient677">
      <stop
         style="stop-color:#000000;stop-opacity:1;"
         offset="0.000000"
         id="stop678" />
      <stop
         style="stop-color:#6a6762;stop-opacity:1;"
         offset="1.000000"
         id="stop679" />
    </linearGradient>
    <linearGradient
       x1="0.00000000"
       y1="0.00000000"
       x2="1.00000000"
       y2="0.00000000"
       id="linearGradient632"
       gradientUnits="objectBoundingBox"
       spreadMethod="pad">
      <stop
         style="stop-color:#ffb700;stop-opacity:1;"
         offset="0.000000"
         id="stop633" />
      <stop
         style="stop-color:#ffd58f;stop-opacity:0;"
         offset="1.000000"
         id="stop634" />
    </linearGradient>
    <linearGradient
       id="linearGradient559"
       xlink:href="#linearGradient632"
       x1="60.6446152"
       y1="19.2956886"
       x2="35.3705750"
       y2="69.1427994"
       gradientUnits="userSpaceOnUse"
       spreadMethod="pad" />
    <linearGradient
       xlink:href="#linearGradient632"
       id="linearGradient631"
       x1="85.6376572"
       y1="17.4438438"
       x2="73.9162979"
       y2="54.6281815"
       gradientUnits="userSpaceOnUse"
       spreadMethod="pad"
       gradientTransform="scale(0.740666,1.350136)" />
    <linearGradient
       inkscape:collect="always"
       xlink:href="#linearGradient677"
       id="linearGradient2589"
       gradientUnits="userSpaceOnUse"
       gradientTransform="matrix(1.011562,0,0,0.98857,-9.252474,-0.4963393)"
       spreadMethod="pad"
       x1="68.3116760"
       y1="71.2960510"
       x2="52.5783653"
       y2="39.5797806" />
    <linearGradient
       inkscape:collect="always"
       xlink:href="#linearGradient684"
       id="linearGradient2591"
       gradientUnits="userSpaceOnUse"
       gradientTransform="matrix(1.017548,0,0,0.982755,-9.252474,-0.4963393)"
       spreadMethod="pad"
       x1="49.0257645"
       y1="44.3401871"
       x2="56.4553261"
       y2="53.1827507" />
    <linearGradient
       inkscape:collect="always"
       xlink:href="#linearGradient689"
       id="linearGradient2593"
       gradientUnits="userSpaceOnUse"
       gradientTransform="matrix(1.326975,0,0,0.753594,-9.252474,-0.4963393)"
       spreadMethod="pad"
       x1="26.2959213"
       y1="98.9529343"
       x2="31.7159863"
       y2="102.827583" />
    <linearGradient
       inkscape:collect="always"
       xlink:href="#linearGradient689"
       id="linearGradient2595"
       gradientUnits="userSpaceOnUse"
       gradientTransform="matrix(0.780786,0,0,1.280761,-9.252474,-0.4963393)"
       spreadMethod="pad"
       x1="33.5794411"
       y1="53.8219566"
       x2="-14.0691185"
       y2="26.5526485" />
  </defs>
  <path
     d="M 27.3438 9.06248 C 26.875 8.90623 20.1563 4.84373 19.8438 9.84373 C 19.5313 14.8437 21.7948 51.43 24.2948 56.43 C 25.3885 59.555 28.201 64.2425 33.201 67.5238 C 37.2635 70.18 63.75 84.2187 65.625 84.375 C 67.5 84.5312 71.4063 85.7812 72.1875 80.4687 C 72.9688 75.1562 75.2238 42.4099 75.0675 41.3162 C 74.9113 36.1599 71.1613 32.7225 69.4426 31.4724 C 66.3176 29.5974 36.7188 11.4062 35 10.3125 C 33.2813 9.21873 28.75 6.87498 27.3438 9.06248 z "
     transform="matrix(1.418885,-0.200635,0.127692,1.110535,-28.78467,5.713269)"
     style="font-size:12;fill:#593a28;fill-rule:evenodd;stroke-width:1pt;"
     id="path554"
     sodipodi:nodetypes="cccccccccc" />
  <path
     d="M 30.1918 10.8907 C 30.1918 10.8907 28.125 13.9062 27.9688 13.75 C 25.6793 11.7389 22.2842 11.565 22.7529 14.69 C 22.9092 18.2838 23.8556 53.0977 29.6369 59.0352 C 35.2619 66.8477 65.625 80.7812 66.4063 81.25 C 67.1875 81.7187 68.9063 81.5625 69.2188 77.8125 C 69.5313 74.0625 72.2663 45.7564 71.7976 44.0376 C 71.7975 41.3814 71.0163 38.2564 68.2038 36.0689 C 65.3913 33.8814 31.1293 10.8907 30.1918 10.8907 z "
     transform="matrix(1.418885,-0.200635,0.127692,1.110535,-28.78467,5.713269)"
     style="font-size:12;fill:#f1e36c;fill-rule:evenodd;stroke-width:1pt;"
     id="path552"
     sodipodi:nodetypes="ccccccccc" />
  <path
     d="M 37.1875 21.0937 C 37.1875 21.0937 67.0095 37.8124 68.2595 40.4686 C 69.5095 43.1249 66.7188 75.625 66.7188 76.4062 C 66.7188 77.1875 61.1313 48.9239 58.0063 46.8926 C 54.8813 44.8614 41.631 37.9363 40.381 33.2488 C 39.131 28.5613 39.2188 22.1875 35.9375 20.1562 "
     transform="matrix(1.418885,-0.200635,0.127692,1.110535,-28.78467,5.713269)"
     style="font-size:12;fill:url(#linearGradient631);fill-rule:evenodd;stroke-width:1pt;"
     id="path562"
     sodipodi:nodetypes="cccccc" />
  <path
     d="M 65.6315 77.8438 C 61.7252 64.2501 61.1816 55.4139 59.1502 50.7265 C 57.2752 46.6639 56.6502 46.3515 53.8378 44.4766 C 48.994 42.1328 39.4397 36.434 39.2835 34.7152 C 37.0959 34.5589 39.2188 24.375 34.2188 20 C 30.9375 17.1875 22.5 9.8437 22.5 9.8437 L 28.125 10.9375 C 30 12.9687 38.4375 20 39.2188 21.4062 C 40.9375 22.3438 39.4397 29.4027 41.0022 31.7465 C 42.4085 35.6527 56.3377 42.4452 57.4315 43.3827 C 58.5252 44.3202 60.7128 47.4452 61.494 50.414 C 65.0307 63.6693 65.3959 72.4748 65.6315 77.8438 z "
     transform="matrix(1.418885,-0.200635,0.127692,1.110535,-28.78467,5.713269)"
     style="font-size:12;fill:#593a28;fill-rule:evenodd;stroke-width:1pt;"
     id="path553"
     sodipodi:nodetypes="cccccccccccc" />
  <path
     style="font-size:12;fill:url(#linearGradient559);fill-rule:evenodd;stroke-width:1pt;"
     d="M 32.2401 16.3592 C 34.0465 17.0528 40.7504 22.4843 42.7984 25.8628 C 43.6822 29.3984 42.4278 36.1872 46.8472 40.1647 C 51.2666 44.1421 62.0666 47.0499 63.6134 50.5854 C 65.1602 54.121 71.1434 74.6929 71.5854 76.6816 C 72.0273 78.6704 38.4557 61.3834 37.3508 56.3011 C 35.6801 51.1165 33.3449 40.666 32.2401 16.3592 z "
     id="path635"
     transform="matrix(1.418885,-0.200635,0.127692,1.110535,-41.88497,7.389349)"
     sodipodi:nodetypes="ccccccc" />
</svg>
