<?xml version="1.0" encoding="UTF-8" standalone="no"?>
<!-- Created with Inkscape (http://www.inkscape.org/) -->

<svg
   xmlns:dc="http://purl.org/dc/elements/1.1/"
   xmlns:cc="http://creativecommons.org/ns#"
   xmlns:rdf="http://www.w3.org/1999/02/22-rdf-syntax-ns#"
   xmlns:svg="http://www.w3.org/2000/svg"
   xmlns="http://www.w3.org/2000/svg"
   xmlns:xlink="http://www.w3.org/1999/xlink"
   xmlns:sodipodi="http://sodipodi.sourceforge.net/DTD/sodipodi-0.dtd"
   xmlns:inkscape="http://www.inkscape.org/namespaces/inkscape"
   width="72.000000pt"
   height="72.000000pt"
   id="svg2448"
   sodipodi:version="0.32"
   inkscape:version="0.48.3.1 r9886"
   sodipodi:docname="book.svg"
   inkscape:output_extension="org.inkscape.output.svg.inkscape"
   version="1.1"
   inkscape:export-filename="/home/jiba/src/bibreview/data/conf.png"
   inkscape:export-xdpi="64"
   inkscape:export-ydpi="64">
  <defs
     id="defs3">
    <linearGradient
       inkscape:collect="always"
       id="linearGradient2617">
      <stop
         style="stop-color:#000000;stop-opacity:1;"
         offset="0"
         id="stop2618" />
      <stop
         style="stop-color:#000000;stop-opacity:0;"
         offset="1"
         id="stop2619" />
    </linearGradient>
    <linearGradient
       id="linearGradient2612">
      <stop
         offset="0.0000000"
         style="stop-color:#fdfdfd;stop-opacity:0.45360824;"
         id="stop2613" />
      <stop
         offset="1.0000000"
         style="stop-color:#ffffff;stop-opacity:0.0000000;"
         id="stop2614" />
    </linearGradient>
    <linearGradient
       id="linearGradient2604">
      <stop
         offset="0.0000000"
         style="stop-color:#a9e2f5;stop-opacity:1.0000000;"
         id="stop2605" />
      <stop
         offset="1.0000000"
         style="stop-color:#bdf2ff;stop-opacity:0.20784314;"
         id="stop2606" />
    </linearGradient>
    <linearGradient
       id="linearGradient2601">
      <stop
         style="stop-color:#000000;stop-opacity:1.0000000;"
         offset="0.0000000"
         id="stop2602" />
      <stop
         style="stop-color:#383e49;stop-opacity:0.0000000;"
         offset="1.0000000"
         id="stop2603" />
    </linearGradient>
    <linearGradient
       id="linearGradient2594">
      <stop
         offset="0.0000000"
         style="stop-color:#000000;stop-opacity:1.0000000;"
         id="stop2596" />
      <stop
         offset="1.0000000"
         style="stop-color:#bdf2ff;stop-opacity:0.38431400;"
         id="stop2595" />
    </linearGradient>
    <defs
       id="defs2461">
      <sodipodi:namedview
         id="namedview909" />
      <defs
         id="defs550">
        <linearGradient
           x1="0.0000000"
           y1="0.0000000"
           x2="1.0000000"
           y2="0.0000000"
           id="linearGradient632"
           gradientUnits="objectBoundingBox"
           spreadMethod="pad">
          <stop
             style="stop-color:#ffb700;stop-opacity:1;"
             offset="0.000000"
             id="stop633" />
          <stop
             style="stop-color:#ffd58f;stop-opacity:0;"
             offset="1.000000"
             id="stop634" />
        </linearGradient>
        <linearGradient
           x1="0.0000000"
           y1="0.0000000"
           x2="1.0000000"
           y2="0.0000000"
           id="linearGradient556"
           gradientUnits="objectBoundingBox"
           spreadMethod="pad"
           xlink:href="#linearGradient2594" />
        <linearGradient
           id="linearGradient559"
           xlink:href="#linearGradient632"
           x1="60.644615"
           y1="19.295689"
           x2="35.370575"
           y2="69.142799"
           gradientUnits="userSpaceOnUse"
           spreadMethod="pad" />
        <linearGradient
           xlink:href="#linearGradient632"
           id="linearGradient631"
           x1="85.637657"
           y1="17.443844"
           x2="73.916298"
           y2="54.628181"
           gradientUnits="userSpaceOnUse"
           spreadMethod="pad"
           gradientTransform="scale(0.740666,1.350136)" />
      </defs>
    </defs>
    <linearGradient
       inkscape:collect="always"
       xlink:href="#linearGradient2604"
       id="linearGradient2593"
       gradientTransform="matrix(1.3256472,0,0,1.1328011,5.8724618,-42.546943)"
       x1="28.244335"
       y1="96.643951"
       x2="48.778095"
       y2="83.488678"
       gradientUnits="userSpaceOnUse" />
    <linearGradient
       inkscape:collect="always"
       xlink:href="#linearGradient2601"
       id="linearGradient2600"
       gradientTransform="matrix(1.229267,0,0,1.2216184,5.5665069,-43.026261)"
       x1="28.893913"
       y1="86.238678"
       x2="62.873707"
       y2="80.160988"
       gradientUnits="userSpaceOnUse" />
    <linearGradient
       inkscape:collect="always"
       xlink:href="#linearGradient2612"
       id="linearGradient2611"
       gradientTransform="matrix(1.3459225,0,0,1.1157358,5.8724618,-42.546943)"
       x1="56.875603"
       y1="52.044476"
       x2="49.251457"
       y2="72.658920"
       gradientUnits="userSpaceOnUse" />
    <linearGradient
       inkscape:collect="always"
       xlink:href="#linearGradient2617"
       id="linearGradient2620"
       gradientTransform="matrix(1.1523847,0,0,1.3031195,5.8724618,-42.546943)"
       x1="37.093960"
       y1="57.932289"
       x2="24.468754"
       y2="86.898430"
       gradientUnits="userSpaceOnUse"
       spreadMethod="reflect" />
  </defs>
  <sodipodi:namedview
     id="base"
     pagecolor="#ffffff"
     bordercolor="#666666"
     borderopacity="1.0"
     inkscape:pageopacity="0.0"
     inkscape:pageshadow="2"
     inkscape:zoom="5.6568542"
     inkscape:cx="10.36262"
     inkscape:cy="49.830991"
     inkscape:current-layer="svg2448"
     inkscape:window-width="1214"
     inkscape:window-height="989"
     inkscape:window-x="64"
     inkscape:window-y="0"
     showgrid="false"
     inkscape:window-maximized="0" />
  <metadata
     id="metadata4">
    <rdf:RDF>
      <cc:Work
         rdf:about="">
        <dc:format>image/svg+xml</dc:format>
        <dc:type
           rdf:resource="http://purl.org/dc/dcmitype/StillImage" />
        <dc:title />
      </cc:Work>
    </rdf:RDF>
  </metadata>
  <path
     style="fill:none;fill-opacity:1;fill-rule:evenodd;stroke:#000000;stroke-width:9.19077492;stroke-linecap:butt;stroke-linejoin:miter;stroke-miterlimit:4;stroke-opacity:1"
     d="M 81.100246,39.954023 C 81.100246,39.954023 52.68356,54.275432 51.459741,54.75475 C 47.85615,57.267646 47.488696,65.009006 50.541876,67.217036 C 57.272884,64.341124 77.37311,55.263144 77.37311,55.263144 L 77.465907,49.961564 C 77.465907,49.961564 82.574343,50.131028 83.186253,54.444896 C 83.798162,58.758764 82.66714,59.547937 81.137365,60.985893 C 79.607591,62.423849 50.526501,75.617157 47.049641,74.687594 C 45.519867,73.249638 9.8498754,47.085651 9.8498754,47.085651 C 9.8498754,47.085651 3.7307775,30.309497 12.603469,25.036992 C 21.476161,19.764486 41.669184,12.095387 41.669184,12.095387 C 41.669184,12.095387 43.810868,12.095387 45.952553,13.533343 C 48.094237,14.971299 79.913546,34.144047 81.137365,36.54064 C 82.361185,38.937234 81.100246,39.954023 81.100246,39.954023 z "
     id="path2615"
     sodipodi:nodetypes="cccccccccccccc" />
  <g
     inkscape:label="Layer 1"
     inkscape:groupmode="layer"
     id="layer1" />
  <path
     style="fill:#ffffff;fill-opacity:1;fill-rule:evenodd;stroke:none;stroke-width:0.25pt;stroke-linecap:butt;stroke-linejoin:miter;stroke-opacity:1"
     d="M 77.481922,39.573473 L 77.481922,55.503158 L 47.626618,68.04355 L 44.165134,52.452794 L 56.713015,42.284909 L 77.481922,39.573473 z "
     id="path2585" />
  <path
     style="fill:url(#linearGradient2593);fill-opacity:1;fill-rule:evenodd;stroke:none;stroke-width:0.25pt;stroke-linecap:butt;stroke-linejoin:miter;stroke-opacity:1"
     d="M 77.481922,39.573473 L 77.481922,55.503158 L 47.626618,68.04355 L 44.165134,52.452794 L 56.713015,42.284909 L 77.481922,39.573473 z "
     id="path2589" />
  <path
     style="fill:#2e6dcd;fill-opacity:1;fill-rule:evenodd;stroke:none;stroke-width:0.25000000000000000pt;stroke-linecap:butt;stroke-linejoin:miter;stroke-opacity:1"
     d="M 81.100246,39.954023 C 81.100246,39.954023 52.68356,54.275432 51.459741,54.75475 C 47.85615,57.267646 47.488696,65.009006 50.541876,67.217036 C 57.272884,64.341124 77.37311,55.263144 77.37311,55.263144 L 77.465907,49.961564 C 77.465907,49.961564 82.574343,50.131028 83.186253,54.444896 C 83.798162,58.758764 82.66714,59.547937 81.137365,60.985893 C 79.607591,62.423849 50.526501,75.617157 47.049641,74.687594 C 45.519867,73.249638 9.8498754,47.085651 9.8498754,47.085651 C 9.8498754,47.085651 3.7307775,30.309497 12.603469,25.036992 C 21.476161,19.764486 41.669184,12.095387 41.669184,12.095387 C 41.669184,12.095387 43.810868,12.095387 45.952553,13.533343 C 48.094237,14.971299 79.913546,34.144047 81.137365,36.54064 C 82.361185,38.937234 81.100246,39.954023 81.100246,39.954023 z "
     id="path2459"
     sodipodi:nodetypes="cccccccccccccc" />
  <path
     style="fill:url(#linearGradient2611);fill-opacity:1;fill-rule:evenodd;stroke:none;stroke-width:0.25pt;stroke-linecap:butt;stroke-linejoin:miter;stroke-opacity:1"
     d="M 12.603469,25.036992 C 29.430988,18.805849 41.669184,12.095387 41.669184,12.095387 C 41.669184,12.095387 43.810868,12.095387 45.952553,13.533343 C 48.094237,14.971299 79.913546,34.144047 81.137365,36.54064 C 39.833455,14.012662 46.870417,43.251102 12.603469,25.036992 z "
     id="path2607"
     sodipodi:nodetypes="ccccc" />
  <path
     style="fill:url(#linearGradient2600);fill-opacity:1;fill-rule:evenodd;stroke:none;stroke-width:0.25pt;stroke-linecap:butt;stroke-linejoin:miter;stroke-opacity:1"
     d="M 80.219501,35.725799 C 80.219504,35.7258 48.631755,49.097207 46.468327,52.825432 C 42.790499,57.739909 44.278653,70.955722 46.874766,74.006088 C 49.687224,74.34502 51.643314,73.304384 51.643314,73.304384 L 79.590196,61.287109 C 80.012685,60.88315 82.574345,59.090155 82.855062,58.5893 L 82.758926,53.748181 C 82.296408,52.582941 81.564718,52.82496 81.524235,52.686867 L 67.277609,59.164482 C 60.791577,62.079932 54.510625,64.911294 50.235921,66.737718 C 47.182741,64.529687 47.550195,56.788327 51.153786,54.275432 C 51.208199,54.254121 52.312354,53.677949 52.469392,53.604386 L 52.499987,53.316794 L 56.049064,51.830906 C 63.302184,48.255482 80.800813,39.464483 80.800815,39.464484 C 80.800815,39.464484 81.182489,39.050775 81.290343,38.266188 L 80.219501,35.725799 z "
     id="path2587"
     sodipodi:nodetypes="ccccccccccccccccc" />
  <path
     style="fill:url(#linearGradient2620);fill-opacity:1;fill-rule:evenodd;stroke:none;stroke-width:0.25pt;stroke-linecap:butt;stroke-linejoin:miter;stroke-opacity:1"
     d="M 9.2379656,29.35086 L 46.564462,52.358157 L 47.482327,69.61363 L 47.176372,75.365454 L 7.7081911,46.606333 L 6.7903265,35.582003 L 9.2379656,29.35086 z "
     id="path2616" />
  <g
     inkscape:label="Layer 1"
     inkscape:groupmode="layer"
     id="g2653"
     style="display:block;"
     transform="translate(116.6726,-3.093592)" />
  <g
     inkscape:groupmode="layer"
     id="layer2"
     inkscape:label="layer 2"
     transform="translate(116.6726,-3.093592)" />
</svg>
