<?xml version="1.0" encoding="UTF-8" standalone="no"?>
<!-- Created with Sodipodi ("http://www.sodipodi.com/") -->

<svg
   xmlns:dc="http://purl.org/dc/elements/1.1/"
   xmlns:cc="http://creativecommons.org/ns#"
   xmlns:rdf="http://www.w3.org/1999/02/22-rdf-syntax-ns#"
   xmlns:svg="http://www.w3.org/2000/svg"
   xmlns="http://www.w3.org/2000/svg"
   xmlns:sodipodi="http://sodipodi.sourceforge.net/DTD/sodipodi-0.dtd"
   xmlns:inkscape="http://www.inkscape.org/namespaces/inkscape"
   version="1.0"
   x="0.00000000"
   y="0.00000000"
   width="90"
   height="90"
   id="svg548"
   sodipodi:version="0.32"
   sodipodi:docname="c-10.svg"
   inkscape:version="0.48.3.1 r9886"
   inkscape:output_extension="org.inkscape.output.svg.inkscape"
   inkscape:export-filename="/home/jiba/zip/src/bibreview/data/c-10.png"
   inkscape:export-xdpi="64"
   inkscape:export-ydpi="64">
  <metadata
     id="metadata12">
    <rdf:RDF>
      <cc:Work
         rdf:about="">
        <dc:format>image/svg+xml</dc:format>
        <dc:type
           rdf:resource="http://purl.org/dc/dcmitype/StillImage" />
        <dc:title></dc:title>
      </cc:Work>
    </rdf:RDF>
  </metadata>
  <sodipodi:namedview
     id="base"
     inkscape:zoom="1.9013316"
     inkscape:cx="117.26586"
     inkscape:cy="78.626276"
     inkscape:window-width="1014"
     inkscape:window-height="696"
     inkscape:window-x="261"
     inkscape:window-y="200"
     inkscape:current-layer="svg548"
     width="90px"
     height="90px"
     showgrid="false"
     inkscape:window-maximized="0" />
  <defs
     id="defs550" />
  <g
     transform="matrix(1.0638198,0,0,1.0638198,-2.8022021,-4.3898087)"
     id="g3666"
     style="stroke:#ff8c00">
    <path
       transform="matrix(1.0740073,-0.20505707,0.20509287,1.0741947,110.63759,20.775947)"
       inkscape:transform-center-y="-0.95976822"
       inkscape:transform-center-x="5.5958398"
       d="m -34.975491,33.986624 c -0.284762,0.452406 -12.638164,-3.062687 -13.076686,-2.756975 -0.545539,0.380317 -4.864756,15.448595 -5.482168,15.695693 -0.496295,0.198626 -8.424288,-9.906292 -8.958752,-9.916723 -0.664895,-0.01298 -13.016127,9.638744 -13.660864,9.475745 -0.51826,-0.131023 -0.99262,-12.96603 -1.418879,-13.28862 -0.530284,-0.401314 -16.19578,0.14722 -16.621575,-0.363615 -0.342267,-0.410626 6.818196,-11.073186 6.662958,-11.584716 -0.193123,-0.636363 -13.189193,-9.400536 -13.233413,-10.064087 -0.0355,-0.533383 12.024696,-4.9507614 12.199775,-5.4558439 0.217806,-0.6283431 -5.144786,-15.3576078 -4.79053,-15.9204201 0.284762,-0.452406 12.638164,3.0626864 13.076686,2.7569751 0.54554,-0.3803173 4.864757,-15.4485951 5.482168,-15.6956931 0.496295,-0.198626 8.424288,9.906292 8.958752,9.916723 0.664896,0.01298 13.016127,-9.638744 13.660864,-9.475745 0.518261,0.131023 0.99262,12.9660303 1.41888,13.2886195 0.530284,0.4013142 16.195779,-0.14722 16.621574,0.3636155 0.342268,0.4106261 -6.818195,11.0731864 -6.662957,11.5847156 0.193122,0.6363632 13.189194,9.4005364 13.233408,10.0640874 0.03554,0.533383 -12.024692,4.950761 -12.199771,5.455844 -0.217805,0.628343 5.144786,15.357608 4.79053,15.92042 z"
       inkscape:randomized="0"
       inkscape:rounded="0.04"
       inkscape:flatsided="false"
       sodipodi:arg2="0.87597535"
       sodipodi:arg1="0.64781143"
       sodipodi:r2="25.167408"
       sodipodi:r1="36.606262"
       sodipodi:cy="11.896843"
       sodipodi:cx="-64.165558"
       sodipodi:sides="10"
       id="path3004"
       style="color:#000000;fill:#ff8c00;fill-opacity:1;fill-rule:nonzero;stroke:#ff8c00;stroke-width:3.00870776000000006;stroke-linecap:butt;stroke-linejoin:miter;stroke-miterlimit:4;stroke-opacity:1;stroke-dasharray:none;stroke-dashoffset:0;marker:none;visibility:visible;display:inline;overflow:visible;enable-background:accumulate"
       sodipodi:type="star" />
  </g>
  <g
     id="g3164"
     transform="matrix(0.7556896,0,0,0.7556896,22.551768,23.645476)">
    <path
       sodipodi:nodetypes="csscssscssscssscs"
       id="path584"
       d="M 25.358744,8.5675234 C 22.720108,5.8687424 16.265703,10.045995 13.560278,12.677816 10.854851,15.309638 6.4977402,21.649745 9.1261872,24.358449 L 29.336768,45.186135 7.8308842,66.208838 c -2.6990265,2.63838 1.9152229,8.66817 4.5470438,11.373599 2.631822,2.705425 8.549095,7.501669 11.243881,4.858956 L 45.172021,61.307625 64.783887,81.572751 c 2.624802,2.712232 10.22602,-0.313808 12.931448,-2.945629 2.705423,-2.631819 5.91175,-10.119429 3.301107,-12.845296 L 61.577221,45.484641 82.437525,25.225844 C 85.145155,22.596291 81.104638,15.991181 78.472816,13.285754 75.840994,10.580327 69.362967,6.3727596 66.6466,8.9932867 L 45.613651,29.284144 25.358744,8.5675234 z"
       style="font-size:12px;fill:#2c0000;fill-opacity:1;fill-rule:evenodd;stroke:none"
       inkscape:connector-curvature="0" />
    <path
       sodipodi:nodetypes="csscssscssscssscs"
       id="path589"
       d="m 24.045281,12.678782 c -1.749562,-1.792721 -6.140265,0.872856 -7.935795,2.619536 -1.795529,1.746678 -4.582633,6.063623 -2.837381,7.860538 l 21.05076,21.673923 -23.242339,22.677638 c -1.7929181,1.749357 1.01844,5.998642 2.76512,7.794172 1.746679,1.795527 5.92377,4.730135 7.714958,2.979003 L 44.832361,55.532241 66.522217,77.898238 c 1.743885,1.798247 6.565137,-0.436106 8.360664,-2.182784 1.79553,-1.746679 4.150772,-6.49361 2.41251,-8.29729 L 55.720114,45.030887 77.901397,23.475631 c 1.796446,-1.745743 -0.872856,-6.140269 -2.619535,-7.935798 -1.746681,-1.795529 -6.060469,-4.579377 -7.860538,-2.837381 L 45.125464,34.27899 24.045281,12.678782 z"
       style="font-size:12px;fill:#ff1500;fill-opacity:1;fill-rule:evenodd;stroke:none"
       inkscape:connector-curvature="0" />
    <path
       sodipodi:nodetypes="cssscsssss"
       id="path592"
       d="M 41.477442,49.574167 18.55032,72.195386 c -0.909797,0.897659 -1.376868,1.788679 -0.48567,2.704805 0.8912,0.916124 3.365673,2.088639 4.275019,1.190523 L 45.281798,53.431881 67.391107,76.48628 c 0.884645,0.922459 3.531718,-0.03539 4.447844,-0.926598 0.91612,-0.891197 0.33068,-1.938913 -0.552519,-2.862747 L 49.235583,49.631678 c -2.514871,-2.630564 -5.167548,-2.613539 -7.758141,-0.05751 z"
       style="font-size:12px;fill:#cb0000;fill-opacity:1;fill-rule:evenodd;stroke:none"
       inkscape:connector-curvature="0" />
    <path
       sodipodi:nodetypes="cssscsssss"
       id="path594"
       d="m 49.128131,42.115422 22.04966,-21.484279 c 0.915407,-0.891936 1.235245,-1.934263 0.344046,-2.850386 -0.891197,-0.916123 -3.360085,-2.082948 -4.275014,-1.190524 L 45.182151,38.112124 24.347447,16.367974 c -0.884242,-0.92284 -3.531718,0.0354 -4.447843,0.926596 -0.916122,0.891198 -0.330195,1.938449 0.552521,2.862751 L 41.228363,41.91233 c 2.513484,2.631888 5.293198,2.742823 7.899768,0.203092 z"
       style="font-size:12px;fill:#ffffff;fill-opacity:1;fill-rule:evenodd;stroke:none"
       inkscape:connector-curvature="0" />
  </g>
  <g
     transform="matrix(0.84097404,0,0,0.84097404,-9.3894144,2.5300297)"
     id="g3263">
    <path
       transform="matrix(1.134807,0,0,1.205673,-0.2250363,-9.0177305)"
       sodipodi:ry="10.997026"
       sodipodi:rx="11.939625"
       sodipodi:cy="68.73909"
       sodipodi:cx="40.008221"
       d="m 51.947845,68.73909 c 0,6.07349 -5.345552,10.997026 -11.939624,10.997026 -6.594073,0 -11.939625,-4.923536 -11.939625,-10.997026 0,-6.07349 5.345552,-10.997026 11.939625,-10.997026 6.594072,0 11.939624,4.923536 11.939624,10.997026 z"
       id="path558"
       style="fill:#001b28;fill-opacity:1;fill-rule:evenodd;stroke:none"
       sodipodi:type="arc" />
    <path
       inkscape:connector-curvature="0"
       sodipodi:nodetypes="ccccccccccc"
       id="path556"
       d="M 25.375215,58.013243 37.44822,64.91219 c 3.01833,-0.646767 10.722705,-3.333348 14.172183,-5.704905 L 49.736955,51.329921 C 53.186427,50.467628 72.805152,37.747649 67.415469,19.422464 52.539759,-15.071971 15.458037,8.4274255 15.242412,10.367735 c -0.215517,1.940289 5.174268,11.210766 6.68343,13.582221 l 9.485928,4.311765 6.252174,-3.664995 c -5.174157,9.701553 -12.719877,12.50415 -14.444667,14.660088 -0.86229,0.431142 2.37156,19.403202 2.155938,18.756429 z"
       style="fill:#001b28;fill-opacity:1;fill-rule:evenodd;stroke:none" />
    <path
       inkscape:connector-curvature="0"
       sodipodi:nodetypes="cccccccc"
       id="path553"
       d="M 49.0625,6.96875 C 59.410927,26.156309 43.261657,42.063235 37.65625,46.375 c -0.310834,2.486882 0.265785,4.649736 0.804434,5.593863 l -9.148297,3.859544 8.343863,4.546593 9,-3.0625 L 45,49.375 C 81.140941,26.207304 52.528494,7.873753 49.0625,6.96875 z"
       style="fill:#157cac;fill-opacity:1;fill-rule:evenodd;stroke:none" />
    <path
       inkscape:connector-curvature="0"
       sodipodi:nodetypes="cccc"
       id="path557"
       d="m 25.311254,20.907909 c 2.549239,1.217861 7.17843,2.826422 7.17843,2.826422 3.723492,-2.557783 7.603346,-3.670605 11.326838,-4.352105 -2.58708,-4.506074 -9.881633,-3.390216 -18.505268,1.525683 z"
       style="fill:#157cac;fill-opacity:1;fill-rule:evenodd;stroke:none" />
    <path
       inkscape:connector-curvature="0"
       sodipodi:nodetypes="ccccc"
       id="path562"
       d="m 55.241532,74.536586 c 0,5.128533 -4.118889,9.290811 -9.193917,9.290811 -5.075238,0 -9.194127,-4.162278 -9.194127,-9.290811 0,-5.12853 11.474169,-1.999221 9.194127,-9.290808 5.075028,0 9.193917,4.162278 9.193917,9.290808 z"
       style="font-size:12px;fill:#157cac;fill-opacity:1;fill-rule:evenodd;stroke-width:1pt" />
    <path
       inkscape:connector-curvature="0"
       id="path561"
       d="m 51.757494,73.181693 c 0,4.807983 -3.772038,8.710161 -8.419755,8.710161 -4.647813,0 -8.419848,-3.902178 -8.419848,-8.710161 0,-4.807983 3.772035,-8.710161 8.419848,-8.710161 4.647717,0 8.419755,3.902178 8.419755,8.710161 z"
       style="font-size:12px;fill:#34bfff;fill-opacity:1;fill-rule:evenodd;stroke-width:1pt" />
    <path
       inkscape:connector-curvature="0"
       sodipodi:nodetypes="ccccccccc"
       id="path552"
       d="m 26.884377,41.197226 2.371455,14.660085 9.701553,-3.449475 -1.077915,-6.036453 c 0,0 24.792882,-15.091332 18.10956,-32.554224 C 49.305804,3.037659 37.232697,1.31294 20.632197,12.739241 c 2.155938,3.449475 4.115164,7.567039 4.743018,8.19249 7.32999,-4.096245 18.109557,-6.683325 18.756429,0.431145 0.646773,3.23385 -12.935499,19.4031 -17.247267,19.83435 z"
       style="fill:#34bfff;fill-opacity:1;fill-rule:evenodd;stroke:none" />
  </g>
</svg>
