<?xml version="1.0" encoding="UTF-8" standalone="no"?>
<!-- Created with Sodipodi ("http://www.sodipodi.com/") -->

<svg
   xmlns:dc="http://purl.org/dc/elements/1.1/"
   xmlns:cc="http://creativecommons.org/ns#"
   xmlns:rdf="http://www.w3.org/1999/02/22-rdf-syntax-ns#"
   xmlns:svg="http://www.w3.org/2000/svg"
   xmlns="http://www.w3.org/2000/svg"
   xmlns:sodipodi="http://sodipodi.sourceforge.net/DTD/sodipodi-0.dtd"
   xmlns:inkscape="http://www.inkscape.org/namespaces/inkscape"
   version="1.0"
   x="0.00000000"
   y="0.00000000"
   width="90"
   height="90"
   id="svg548"
   sodipodi:version="0.32"
   sodipodi:docname="c-11.svg"
   inkscape:version="0.48.3.1 r9886"
   inkscape:output_extension="org.inkscape.output.svg.inkscape"
   inkscape:export-filename="/home/jiba/zip/src/bibreview/data/c-11.png"
   inkscape:export-xdpi="64"
   inkscape:export-ydpi="64">
  <metadata
     id="metadata12">
    <rdf:RDF>
      <cc:Work
         rdf:about="">
        <dc:format>image/svg+xml</dc:format>
        <dc:type
           rdf:resource="http://purl.org/dc/dcmitype/StillImage" />
        <dc:title></dc:title>
      </cc:Work>
    </rdf:RDF>
  </metadata>
  <sodipodi:namedview
     id="base"
     inkscape:zoom="1.9013316"
     inkscape:cx="52.770317"
     inkscape:cy="85.815607"
     inkscape:window-width="1014"
     inkscape:window-height="696"
     inkscape:window-x="328"
     inkscape:window-y="163"
     inkscape:current-layer="svg548"
     width="90px"
     height="90px"
     showgrid="false"
     inkscape:window-maximized="0" />
  <defs
     id="defs550" />
  <g
     transform="matrix(1.0638198,0,0,1.0638198,-2.2762507,-4.3998036)"
     id="g3666"
     style="stroke:#ff8c00">
    <path
       transform="matrix(1.0740073,-0.20505707,0.20509287,1.0741947,110.63759,20.775947)"
       inkscape:transform-center-y="-0.95976822"
       inkscape:transform-center-x="5.5958398"
       d="m -34.975491,33.986624 c -0.284762,0.452406 -12.638164,-3.062687 -13.076686,-2.756975 -0.545539,0.380317 -4.864756,15.448595 -5.482168,15.695693 -0.496295,0.198626 -8.424288,-9.906292 -8.958752,-9.916723 -0.664895,-0.01298 -13.016127,9.638744 -13.660864,9.475745 -0.51826,-0.131023 -0.99262,-12.96603 -1.418879,-13.28862 -0.530284,-0.401314 -16.19578,0.14722 -16.621575,-0.363615 -0.342267,-0.410626 6.818196,-11.073186 6.662958,-11.584716 -0.193123,-0.636363 -13.189193,-9.400536 -13.233413,-10.064087 -0.0355,-0.533383 12.024696,-4.9507614 12.199775,-5.4558439 0.217806,-0.6283431 -5.144786,-15.3576078 -4.79053,-15.9204201 0.284762,-0.452406 12.638164,3.0626864 13.076686,2.7569751 0.54554,-0.3803173 4.864757,-15.4485951 5.482168,-15.6956931 0.496295,-0.198626 8.424288,9.906292 8.958752,9.916723 0.664896,0.01298 13.016127,-9.638744 13.660864,-9.475745 0.518261,0.131023 0.99262,12.9660303 1.41888,13.2886195 0.530284,0.4013142 16.195779,-0.14722 16.621574,0.3636155 0.342268,0.4106261 -6.818195,11.0731864 -6.662957,11.5847156 0.193122,0.6363632 13.189194,9.4005364 13.233408,10.0640874 0.03554,0.533383 -12.024692,4.950761 -12.199771,5.455844 -0.217805,0.628343 5.144786,15.357608 4.79053,15.92042 z"
       inkscape:randomized="0"
       inkscape:rounded="0.04"
       inkscape:flatsided="false"
       sodipodi:arg2="0.87597535"
       sodipodi:arg1="0.64781143"
       sodipodi:r2="25.167408"
       sodipodi:r1="36.606262"
       sodipodi:cy="11.896843"
       sodipodi:cx="-64.165558"
       sodipodi:sides="10"
       id="path3004"
       style="color:#000000;fill:#ff8c00;fill-opacity:1;fill-rule:nonzero;stroke:#ff8c00;stroke-width:3.00870776;stroke-linecap:butt;stroke-linejoin:miter;stroke-miterlimit:4;stroke-opacity:1;stroke-dasharray:none;stroke-dashoffset:0;marker:none;visibility:visible;display:inline;overflow:visible;enable-background:accumulate"
       sodipodi:type="star" />
  </g>
  <g
     id="g3164"
     transform="matrix(0.7556896,0,0,0.7556896,22.551768,23.645476)">
    <path
       sodipodi:nodetypes="csscssscssscssscs"
       id="path584"
       d="M 25.358744,8.5675234 C 22.720108,5.8687424 16.265703,10.045995 13.560278,12.677816 10.854851,15.309638 6.4977402,21.649745 9.1261872,24.358449 L 29.336768,45.186135 7.8308842,66.208838 c -2.6990265,2.63838 1.9152229,8.66817 4.5470438,11.373599 2.631822,2.705425 8.549095,7.501669 11.243881,4.858956 L 45.172021,61.307625 64.783887,81.572751 c 2.624802,2.712232 10.22602,-0.313808 12.931448,-2.945629 2.705423,-2.631819 5.91175,-10.119429 3.301107,-12.845296 L 61.577221,45.484641 82.437525,25.225844 C 85.145155,22.596291 81.104638,15.991181 78.472816,13.285754 75.840994,10.580327 69.362967,6.3727596 66.6466,8.9932867 L 45.613651,29.284144 25.358744,8.5675234 z"
       style="font-size:12px;fill:#2c0000;fill-opacity:1;fill-rule:evenodd;stroke:none"
       inkscape:connector-curvature="0" />
    <path
       sodipodi:nodetypes="csscssscssscssscs"
       id="path589"
       d="m 24.045281,12.678782 c -1.749562,-1.792721 -6.140265,0.872856 -7.935795,2.619536 -1.795529,1.746678 -4.582633,6.063623 -2.837381,7.860538 l 21.05076,21.673923 -23.242339,22.677638 c -1.7929181,1.749357 1.01844,5.998642 2.76512,7.794172 1.746679,1.795527 5.92377,4.730135 7.714958,2.979003 L 44.832361,55.532241 66.522217,77.898238 c 1.743885,1.798247 6.565137,-0.436106 8.360664,-2.182784 1.79553,-1.746679 4.150772,-6.49361 2.41251,-8.29729 L 55.720114,45.030887 77.901397,23.475631 c 1.796446,-1.745743 -0.872856,-6.140269 -2.619535,-7.935798 -1.746681,-1.795529 -6.060469,-4.579377 -7.860538,-2.837381 L 45.125464,34.27899 24.045281,12.678782 z"
       style="font-size:12px;fill:#ff1500;fill-opacity:1;fill-rule:evenodd;stroke:none"
       inkscape:connector-curvature="0" />
    <path
       sodipodi:nodetypes="cssscsssss"
       id="path592"
       d="M 41.477442,49.574167 18.55032,72.195386 c -0.909797,0.897659 -1.376868,1.788679 -0.48567,2.704805 0.8912,0.916124 3.365673,2.088639 4.275019,1.190523 L 45.281798,53.431881 67.391107,76.48628 c 0.884645,0.922459 3.531718,-0.03539 4.447844,-0.926598 0.91612,-0.891197 0.33068,-1.938913 -0.552519,-2.862747 L 49.235583,49.631678 c -2.514871,-2.630564 -5.167548,-2.613539 -7.758141,-0.05751 z"
       style="font-size:12px;fill:#cb0000;fill-opacity:1;fill-rule:evenodd;stroke:none"
       inkscape:connector-curvature="0" />
    <path
       sodipodi:nodetypes="cssscsssss"
       id="path594"
       d="m 49.128131,42.115422 22.04966,-21.484279 c 0.915407,-0.891936 1.235245,-1.934263 0.344046,-2.850386 -0.891197,-0.916123 -3.360085,-2.082948 -4.275014,-1.190524 L 45.182151,38.112124 24.347447,16.367974 c -0.884242,-0.92284 -3.531718,0.0354 -4.447843,0.926596 -0.916122,0.891198 -0.330195,1.938449 0.552521,2.862751 L 41.228363,41.91233 c 2.513484,2.631888 5.293198,2.742823 7.899768,0.203092 z"
       style="font-size:12px;fill:#ffffff;fill-opacity:1;fill-rule:evenodd;stroke:none"
       inkscape:connector-curvature="0" />
  </g>
  <g
     transform="matrix(0.83149184,0,0,0.83149184,-2.162514,-5.8836261)"
     id="g3143">
    <path
       inkscape:connector-curvature="0"
       sodipodi:nodetypes="csssssss"
       id="path574"
       d="M 5.708772,45.849967 C 6.863529,62.399524 21.270256,84.2221 29.360335,83.549128 41.255722,82.819483 49.966918,75.040615 64.19449,57.346051 73.628086,45.290473 76.674841,40.693984 84.330907,20.389764 86.444248,14.588195 77.792041,5.416863 71.235871,14.340434 50.46202,42.875434 39.576409,50.737153 34.85269,51.976708 28.944129,53.38384 28.490301,36.624226 21.970323,30.143272 20.510882,28.692583 4.624242,30.566713 5.708772,45.849967 z"
       style="fill:#0d3c07;fill-opacity:1;fill-rule:evenodd;stroke:none" />
    <path
       inkscape:connector-curvature="0"
       sodipodi:nodetypes="csssssss"
       id="path584-1"
       d="M 9.846048,47.07415 C 11.860364,57.947464 24.343879,81.171277 29.634381,80.034526 35.139064,78.831238 41.794939,73.047997 53.887975,59.375416 70.082269,41.359693 76.040011,28.420027 79.060171,23.593006 85.649572,12.801518 76.690711,15.838051 69.235945,26.559241 63.320083,35.273446 38.667358,66.528292 32.695462,59.441572 29.824633,55.909891 24.993827,40.364944 20.647793,36.044932 19.674965,35.077933 7.910444,36.885586 9.846048,47.07415 z"
       style="fill:#2aaf18;fill-opacity:1;fill-rule:evenodd;stroke:none" />
    <path
       inkscape:connector-curvature="0"
       sodipodi:nodetypes="csss"
       id="path587"
       d="m 12.302542,45.706621 c 0.766661,-1.648368 2.527385,-2.173746 3.870255,-1.290087 1.931129,1.176429 1.873996,4.424721 0.43003,5.303685 -1.280911,0.652551 -4.769968,-1.627623 -4.300285,-4.013598 z"
       style="fill:#ffffff;fill-opacity:1;fill-rule:evenodd;stroke:#ffffff;stroke-width:1.61474171pt;stroke-linecap:butt;stroke-linejoin:miter;stroke-opacity:1" />
    <path
       inkscape:connector-curvature="0"
       sodipodi:nodetypes="csss"
       id="path589-0"
       d="m 24.343341,69.644872 c 2.25611,3.7539 11.230906,2.214369 13.474225,0 5.280843,-5.356053 -1.965825,5.655528 -8.457226,5.590368 -4.657404,-0.04781 -8.469713,-11.096769 -5.016999,-5.590368 z"
       style="fill:#208c11;fill-opacity:1;fill-rule:evenodd;stroke:#208c11;stroke-width:1.61474171pt;stroke-linecap:butt;stroke-linejoin:miter;stroke-opacity:1" />
  </g>
</svg>
