<?xml version="1.0" encoding="UTF-8" standalone="no"?>
<!-- Created with Sodipodi ("http://www.sodipodi.com/") -->

<svg
   xmlns:dc="http://purl.org/dc/elements/1.1/"
   xmlns:cc="http://creativecommons.org/ns#"
   xmlns:rdf="http://www.w3.org/1999/02/22-rdf-syntax-ns#"
   xmlns:svg="http://www.w3.org/2000/svg"
   xmlns="http://www.w3.org/2000/svg"
   xmlns:sodipodi="http://sodipodi.sourceforge.net/DTD/sodipodi-0.dtd"
   xmlns:inkscape="http://www.inkscape.org/namespaces/inkscape"
   version="1.0"
   x="0.00000000"
   y="0.00000000"
   width="90"
   height="90"
   id="svg548"
   sodipodi:version="0.32"
   sodipodi:docname="c.svg"
   inkscape:version="0.48.3.1 r9886"
   inkscape:output_extension="org.inkscape.output.svg.inkscape">
  <metadata
     id="metadata12">
    <rdf:RDF>
      <cc:Work
         rdf:about="">
        <dc:format>image/svg+xml</dc:format>
        <dc:type
           rdf:resource="http://purl.org/dc/dcmitype/StillImage" />
        <dc:title />
      </cc:Work>
    </rdf:RDF>
  </metadata>
  <sodipodi:namedview
     id="base"
     inkscape:zoom="1.9013316"
     inkscape:cx="-63.130666"
     inkscape:cy="93.087482"
     inkscape:window-width="1374"
     inkscape:window-height="865"
     inkscape:window-x="74"
     inkscape:window-y="24"
     inkscape:current-layer="svg548"
     width="90px"
     height="90px"
     showgrid="false"
     inkscape:window-maximized="0" />
  <defs
     id="defs550" />
  <g
     id="g3666">
    <path
       transform="matrix(1.0740073,-0.20505707,0.20509287,1.0741947,110.63759,20.775947)"
       inkscape:transform-center-y="-0.95976822"
       inkscape:transform-center-x="5.5958398"
       d="m -34.975491,33.986624 c -0.353744,0.540161 -14.850602,-5.269822 -15.380276,-4.900559 -0.594582,0.414513 -2.500916,17.582131 -3.178578,17.839277 -0.603684,0.229074 -8.916866,-12.99234 -9.562428,-13.004935 -0.724672,-0.01414 -12.357802,12.754242 -13.057188,12.563957 -0.623037,-0.169512 0.42281,-15.752226 -0.09206,-16.141868 -0.577961,-0.437389 -17.494427,3.054665 -17.948396,2.489633 -0.404411,-0.50335 9.600987,-12.495297 9.413476,-13.113156 -0.21049,-0.693573 -15.948771,-7.81169 -15.983931,-8.535647 -0.0313,-0.644925 15.111917,-4.4655897 15.323385,-5.0756638 0.237383,-0.6848348 -8.311233,-15.6942453 -7.91414,-16.3006002 0.353744,-0.540161 14.850602,5.2698217 15.380276,4.9005594 0.594582,-0.414513 2.500916,-17.5821314 3.178578,-17.8392774 0.603684,-0.229074 8.916866,12.99234 9.562428,13.004935 0.724672,0.01414 12.357802,-12.754242 13.057188,-12.563957 0.623037,0.169511 -0.422809,15.7522257 0.09206,16.1418675 0.577961,0.4373897 17.494427,-3.0546646 17.948396,-2.4896325 0.404411,0.5033499 -9.600987,12.4952972 -9.413475,13.1131556 0.210489,0.6935729 15.948775,7.8116904 15.983926,8.5356474 0.03131,0.644925 -15.111913,4.46559 -15.323381,5.075664 -0.237383,0.684834 8.311234,15.694245 7.91414,16.3006 z"
       inkscape:randomized="0"
       inkscape:rounded="0.04"
       inkscape:flatsided="false"
       sodipodi:arg2="0.89398669"
       sodipodi:arg1="0.64781143"
       sodipodi:r2="22.049482"
       sodipodi:r1="36.606262"
       sodipodi:cy="11.896843"
       sodipodi:cx="-64.165558"
       sodipodi:sides="10"
       id="path3004"
       style="color:#000000;fill:#ff8c00;fill-opacity:1;fill-rule:nonzero;stroke:#382208;stroke-width:3.20072292999999997;stroke-linecap:butt;stroke-linejoin:miter;stroke-miterlimit:4;stroke-opacity:1;stroke-dasharray:none;stroke-dashoffset:0;marker:none;visibility:visible;display:inline;overflow:visible;enable-background:accumulate"
       sodipodi:type="star" />
    <path
       sodipodi:nodetypes="csssssssc"
       inkscape:connector-curvature="0"
       id="path3774"
       d="m 56.850028,37.61401 c 1.312143,-2.721789 4.131212,-7.940097 3.883873,-8.150651 -0.368018,-0.313288 -11.003725,4.076627 -11.437006,3.862451 -0.38598,-0.190795 -1.64421,-10.530628 -2.073525,-10.563716 -0.481926,-0.03714 -6.513386,9.800007 -6.989852,9.881396 -0.424451,0.0725 -7.525578,-7.541478 -7.892381,-7.315928 -0.411755,0.253185 0.479549,11.732507 0.141892,12.078373 -0.300796,0.308109 -10.509781,-1.680438 -10.673966,-1.282404 -0.184307,0.44681 7.286931,9.187268 7.217055,9.665502"
       style="color:#000000;fill:none;stroke:#ffd700;stroke-width:3.49999976000000013;stroke-linecap:butt;stroke-linejoin:miter;stroke-miterlimit:4;stroke-opacity:1;stroke-dasharray:none;stroke-dashoffset:0;marker:none;visibility:visible;display:inline;overflow:visible;enable-background:accumulate" />
    <path
       sodipodi:nodetypes="csscscssc"
       inkscape:connector-curvature="0"
       id="path3774-6"
       d="m 31.730312,57.751347 c -1.405953,2.83243 -3.674471,7.113591 -3.448952,7.305568 0.368018,0.313288 11.0337,-4.085465 11.466979,-3.871292 0.385982,0.1908 1.644211,10.530631 2.073525,10.563716 0.481926,0.03715 6.513387,-9.800004 6.989851,-9.881395 0.424438,-0.07255 7.495605,7.550315 7.86241,7.324768 0.41175,-0.253193 -0.479549,-11.732507 -0.141893,-12.078373 0.300797,-0.308103 10.539755,1.671599 10.70394,1.273563 0.160119,-0.388184 -5.449129,-7.024523 -6.881516,-9.080274"
       style="color:#000000;fill:none;stroke:#ff4500;stroke-width:3.49999976;stroke-linecap:butt;stroke-linejoin:miter;stroke-miterlimit:4;stroke-opacity:1;stroke-dasharray:none;stroke-dashoffset:0;marker:none;visibility:visible;display:inline;overflow:visible;enable-background:accumulate" />
  </g>
</svg>
