<?xml version="1.0" encoding="UTF-8" standalone="no"?>
<!-- Created with Sodipodi ("http://www.sodipodi.com/") -->

<svg
   xmlns:dc="http://purl.org/dc/elements/1.1/"
   xmlns:cc="http://creativecommons.org/ns#"
   xmlns:rdf="http://www.w3.org/1999/02/22-rdf-syntax-ns#"
   xmlns:svg="http://www.w3.org/2000/svg"
   xmlns="http://www.w3.org/2000/svg"
   xmlns:sodipodi="http://sodipodi.sourceforge.net/DTD/sodipodi-0.dtd"
   xmlns:inkscape="http://www.inkscape.org/namespaces/inkscape"
   version="1.0"
   x="0.00000000"
   y="0.00000000"
   width="90"
   height="90"
   id="svg548"
   sodipodi:version="0.32"
   sodipodi:docname="c01.svg"
   inkscape:version="0.48.3.1 r9886"
   inkscape:output_extension="org.inkscape.output.svg.inkscape"
   inkscape:export-filename="/home/jiba/zip/src/bibreview/data/c01.png"
   inkscape:export-xdpi="64"
   inkscape:export-ydpi="64">
  <metadata
     id="metadata12">
    <rdf:RDF>
      <cc:Work
         rdf:about="">
        <dc:format>image/svg+xml</dc:format>
        <dc:type
           rdf:resource="http://purl.org/dc/dcmitype/StillImage" />
        <dc:title></dc:title>
      </cc:Work>
    </rdf:RDF>
  </metadata>
  <sodipodi:namedview
     id="base"
     inkscape:zoom="1.9013316"
     inkscape:cx="52.770317"
     inkscape:cy="85.815607"
     inkscape:window-width="1014"
     inkscape:window-height="696"
     inkscape:window-x="328"
     inkscape:window-y="163"
     inkscape:current-layer="svg548"
     width="90px"
     height="90px"
     showgrid="false"
     inkscape:window-maximized="0" />
  <defs
     id="defs550" />
  <g
     transform="matrix(1.0638198,0,0,1.0638198,-1.7503029,-4.3998036)"
     id="g3666"
     style="stroke:#ff8c00">
    <path
       transform="matrix(1.0740073,-0.20505707,0.20509287,1.0741947,110.63759,20.775947)"
       inkscape:transform-center-y="-0.95976822"
       inkscape:transform-center-x="5.5958398"
       d="m -34.975491,33.986624 c -0.284762,0.452406 -12.638164,-3.062687 -13.076686,-2.756975 -0.545539,0.380317 -4.864756,15.448595 -5.482168,15.695693 -0.496295,0.198626 -8.424288,-9.906292 -8.958752,-9.916723 -0.664895,-0.01298 -13.016127,9.638744 -13.660864,9.475745 -0.51826,-0.131023 -0.99262,-12.96603 -1.418879,-13.28862 -0.530284,-0.401314 -16.19578,0.14722 -16.621575,-0.363615 -0.342267,-0.410626 6.818196,-11.073186 6.662958,-11.584716 -0.193123,-0.636363 -13.189193,-9.400536 -13.233413,-10.064087 -0.0355,-0.533383 12.024696,-4.9507614 12.199775,-5.4558439 0.217806,-0.6283431 -5.144786,-15.3576078 -4.79053,-15.9204201 0.284762,-0.452406 12.638164,3.0626864 13.076686,2.7569751 0.54554,-0.3803173 4.864757,-15.4485951 5.482168,-15.6956931 0.496295,-0.198626 8.424288,9.906292 8.958752,9.916723 0.664896,0.01298 13.016127,-9.638744 13.660864,-9.475745 0.518261,0.131023 0.99262,12.9660303 1.41888,13.2886195 0.530284,0.4013142 16.195779,-0.14722 16.621574,0.3636155 0.342268,0.4106261 -6.818195,11.0731864 -6.662957,11.5847156 0.193122,0.6363632 13.189194,9.4005364 13.233408,10.0640874 0.03554,0.533383 -12.024692,4.950761 -12.199771,5.455844 -0.217805,0.628343 5.144786,15.357608 4.79053,15.92042 z"
       inkscape:randomized="0"
       inkscape:rounded="0.04"
       inkscape:flatsided="false"
       sodipodi:arg2="0.87597535"
       sodipodi:arg1="0.64781143"
       sodipodi:r2="25.167408"
       sodipodi:r1="36.606262"
       sodipodi:cy="11.896843"
       sodipodi:cx="-64.165558"
       sodipodi:sides="10"
       id="path3004"
       style="color:#000000;fill:#ff8c00;fill-opacity:1;fill-rule:nonzero;stroke:#ff8c00;stroke-width:3.00870776;stroke-linecap:butt;stroke-linejoin:miter;stroke-miterlimit:4;stroke-opacity:1;stroke-dasharray:none;stroke-dashoffset:0;marker:none;visibility:visible;display:inline;overflow:visible;enable-background:accumulate"
       sodipodi:type="star" />
  </g>
  <g
     transform="matrix(0.73204216,0,0,0.73204216,36.449849,23.650142)"
     id="g3263">
    <path
       transform="matrix(1.134807,0,0,1.205673,-0.2250363,-9.0177305)"
       sodipodi:ry="10.997026"
       sodipodi:rx="11.939625"
       sodipodi:cy="68.73909"
       sodipodi:cx="40.008221"
       d="m 51.947845,68.73909 c 0,6.07349 -5.345552,10.997026 -11.939624,10.997026 -6.594073,0 -11.939625,-4.923536 -11.939625,-10.997026 0,-6.07349 5.345552,-10.997026 11.939625,-10.997026 6.594072,0 11.939624,4.923536 11.939624,10.997026 z"
       id="path558"
       style="fill:#001b28;fill-opacity:1;fill-rule:evenodd;stroke:none"
       sodipodi:type="arc" />
    <path
       inkscape:connector-curvature="0"
       sodipodi:nodetypes="ccccccccccc"
       id="path556"
       d="M 25.375215,58.013243 37.44822,64.91219 c 3.01833,-0.646767 10.722705,-3.333348 14.172183,-5.704905 L 49.736955,51.329921 C 53.186427,50.467628 72.805152,37.747649 67.415469,19.422464 52.539759,-15.071971 15.458037,8.4274255 15.242412,10.367735 c -0.215517,1.940289 5.174268,11.210766 6.68343,13.582221 l 9.485928,4.311765 6.252174,-3.664995 c -5.174157,9.701553 -12.719877,12.50415 -14.444667,14.660088 -0.86229,0.431142 2.37156,19.403202 2.155938,18.756429 z"
       style="fill:#001b28;fill-opacity:1;fill-rule:evenodd;stroke:none" />
    <path
       inkscape:connector-curvature="0"
       sodipodi:nodetypes="cccccccc"
       id="path553"
       d="M 49.0625,6.96875 C 59.410927,26.156309 43.261657,42.063235 37.65625,46.375 c -0.310834,2.486882 0.265785,4.649736 0.804434,5.593863 l -9.148297,3.859544 8.343863,4.546593 9,-3.0625 L 45,49.375 C 81.140941,26.207304 52.528494,7.873753 49.0625,6.96875 z"
       style="fill:#157cac;fill-opacity:1;fill-rule:evenodd;stroke:none" />
    <path
       inkscape:connector-curvature="0"
       sodipodi:nodetypes="cccc"
       id="path557"
       d="m 25.311254,20.907909 c 2.549239,1.217861 7.17843,2.826422 7.17843,2.826422 3.723492,-2.557783 7.603346,-3.670605 11.326838,-4.352105 -2.58708,-4.506074 -9.881633,-3.390216 -18.505268,1.525683 z"
       style="fill:#157cac;fill-opacity:1;fill-rule:evenodd;stroke:none" />
    <path
       inkscape:connector-curvature="0"
       sodipodi:nodetypes="ccccc"
       id="path562"
       d="m 55.241532,74.536586 c 0,5.128533 -4.118889,9.290811 -9.193917,9.290811 -5.075238,0 -9.194127,-4.162278 -9.194127,-9.290811 0,-5.12853 11.474169,-1.999221 9.194127,-9.290808 5.075028,0 9.193917,4.162278 9.193917,9.290808 z"
       style="font-size:12px;fill:#157cac;fill-opacity:1;fill-rule:evenodd;stroke-width:1pt" />
    <path
       inkscape:connector-curvature="0"
       id="path561"
       d="m 51.757494,73.181693 c 0,4.807983 -3.772038,8.710161 -8.419755,8.710161 -4.647813,0 -8.419848,-3.902178 -8.419848,-8.710161 0,-4.807983 3.772035,-8.710161 8.419848,-8.710161 4.647717,0 8.419755,3.902178 8.419755,8.710161 z"
       style="font-size:12px;fill:#34bfff;fill-opacity:1;fill-rule:evenodd;stroke-width:1pt" />
    <path
       inkscape:connector-curvature="0"
       sodipodi:nodetypes="ccccccccc"
       id="path552"
       d="m 26.884377,41.197226 2.371455,14.660085 9.701553,-3.449475 -1.077915,-6.036453 c 0,0 24.792882,-15.091332 18.10956,-32.554224 C 49.305804,3.037659 37.232697,1.31294 20.632197,12.739241 c 2.155938,3.449475 4.115164,7.567039 4.743018,8.19249 7.32999,-4.096245 18.109557,-6.683325 18.756429,0.431145 0.646773,3.23385 -12.935499,19.4031 -17.247267,19.83435 z"
       style="fill:#34bfff;fill-opacity:1;fill-rule:evenodd;stroke:none" />
  </g>
  <g
     transform="matrix(0.83149184,0,0,0.83149184,-2.162516,-5.8836256)"
     id="g3143">
    <path
       inkscape:connector-curvature="0"
       sodipodi:nodetypes="csssssss"
       id="path574"
       d="M 5.708772,45.849967 C 6.863529,62.399524 21.270256,84.2221 29.360335,83.549128 41.255722,82.819483 49.966918,75.040615 64.19449,57.346051 73.628086,45.290473 76.674841,40.693984 84.330907,20.389764 86.444248,14.588195 77.792041,5.416863 71.235871,14.340434 50.46202,42.875434 39.576409,50.737153 34.85269,51.976708 28.944129,53.38384 28.490301,36.624226 21.970323,30.143272 20.510882,28.692583 4.624242,30.566713 5.708772,45.849967 z"
       style="fill:#0d3c07;fill-opacity:1;fill-rule:evenodd;stroke:none" />
    <path
       inkscape:connector-curvature="0"
       sodipodi:nodetypes="csssssss"
       id="path584-1"
       d="M 9.846048,47.07415 C 11.860364,57.947464 24.343879,81.171277 29.634381,80.034526 35.139064,78.831238 41.794939,73.047997 53.887975,59.375416 70.082269,41.359693 76.040011,28.420027 79.060171,23.593006 85.649572,12.801518 76.690711,15.838051 69.235945,26.559241 63.320083,35.273446 38.667358,66.528292 32.695462,59.441572 29.824633,55.909891 24.993827,40.364944 20.647793,36.044932 19.674965,35.077933 7.910444,36.885586 9.846048,47.07415 z"
       style="fill:#2aaf18;fill-opacity:1;fill-rule:evenodd;stroke:none" />
    <path
       inkscape:connector-curvature="0"
       sodipodi:nodetypes="csss"
       id="path587"
       d="m 12.302542,45.706621 c 0.766661,-1.648368 2.527385,-2.173746 3.870255,-1.290087 1.931129,1.176429 1.873996,4.424721 0.43003,5.303685 -1.280911,0.652551 -4.769968,-1.627623 -4.300285,-4.013598 z"
       style="fill:#ffffff;fill-opacity:1;fill-rule:evenodd;stroke:#ffffff;stroke-width:1.61474171pt;stroke-linecap:butt;stroke-linejoin:miter;stroke-opacity:1" />
    <path
       inkscape:connector-curvature="0"
       sodipodi:nodetypes="csss"
       id="path589-0"
       d="m 24.343341,69.644872 c 2.25611,3.7539 11.230906,2.214369 13.474225,0 5.280843,-5.356053 -1.965825,5.655528 -8.457226,5.590368 -4.657404,-0.04781 -8.469713,-11.096769 -5.016999,-5.590368 z"
       style="fill:#208c11;fill-opacity:1;fill-rule:evenodd;stroke:#208c11;stroke-width:1.61474171pt;stroke-linecap:butt;stroke-linejoin:miter;stroke-opacity:1" />
  </g>
</svg>
