<?xml version="1.0" encoding="UTF-8" standalone="no"?>
<!-- Created with Inkscape (http://www.inkscape.org/) -->

<svg
   xmlns:dc="http://purl.org/dc/elements/1.1/"
   xmlns:cc="http://creativecommons.org/ns#"
   xmlns:rdf="http://www.w3.org/1999/02/22-rdf-syntax-ns#"
   xmlns:svg="http://www.w3.org/2000/svg"
   xmlns="http://www.w3.org/2000/svg"
   xmlns:xlink="http://www.w3.org/1999/xlink"
   xmlns:sodipodi="http://sodipodi.sourceforge.net/DTD/sodipodi-0.dtd"
   xmlns:inkscape="http://www.inkscape.org/namespaces/inkscape"
   width="72.000000pt"
   height="72.000000pt"
   id="svg2448"
   sodipodi:version="0.32"
   inkscape:version="0.48.3.1 r9886"
   sodipodi:docname="qstardict.svg"
   inkscape:output_extension="org.inkscape.output.svg.inkscape"
   version="1.1">
  <defs
     id="defs3">
    <linearGradient
       inkscape:collect="always"
       id="linearGradient2617">
      <stop
         style="stop-color:#000000;stop-opacity:1;"
         offset="0"
         id="stop2618" />
      <stop
         style="stop-color:#000000;stop-opacity:0;"
         offset="1"
         id="stop2619" />
    </linearGradient>
    <linearGradient
       id="linearGradient2612">
      <stop
         offset="0.0000000"
         style="stop-color:#fdfdfd;stop-opacity:0.45360824;"
         id="stop2613" />
      <stop
         offset="1.0000000"
         style="stop-color:#ffffff;stop-opacity:0.0000000;"
         id="stop2614" />
    </linearGradient>
    <linearGradient
       id="linearGradient2604">
      <stop
         offset="0.0000000"
         style="stop-color:#a9e2f5;stop-opacity:1.0000000;"
         id="stop2605" />
      <stop
         offset="1.0000000"
         style="stop-color:#bdf2ff;stop-opacity:0.20784314;"
         id="stop2606" />
    </linearGradient>
    <linearGradient
       id="linearGradient2601">
      <stop
         style="stop-color:#000000;stop-opacity:1.0000000;"
         offset="0.0000000"
         id="stop2602" />
      <stop
         style="stop-color:#383e49;stop-opacity:0.0000000;"
         offset="1.0000000"
         id="stop2603" />
    </linearGradient>
    <linearGradient
       id="linearGradient2594">
      <stop
         offset="0.0000000"
         style="stop-color:#000000;stop-opacity:1.0000000;"
         id="stop2596" />
      <stop
         offset="1.0000000"
         style="stop-color:#bdf2ff;stop-opacity:0.38431400;"
         id="stop2595" />
    </linearGradient>
    <defs
       id="defs2461">
      <sodipodi:namedview
         id="namedview909" />
      <defs
         id="defs550">
        <linearGradient
           x1="0.0000000"
           y1="0.0000000"
           x2="1.0000000"
           y2="0.0000000"
           id="linearGradient632"
           gradientUnits="objectBoundingBox"
           spreadMethod="pad">
          <stop
             style="stop-color:#ffb700;stop-opacity:1;"
             offset="0.000000"
             id="stop633" />
          <stop
             style="stop-color:#ffd58f;stop-opacity:0;"
             offset="1.000000"
             id="stop634" />
        </linearGradient>
        <linearGradient
           x1="0.0000000"
           y1="0.0000000"
           x2="1.0000000"
           y2="0.0000000"
           id="linearGradient556"
           gradientUnits="objectBoundingBox"
           spreadMethod="pad"
           xlink:href="#linearGradient2594" />
        <linearGradient
           id="linearGradient559"
           xlink:href="#linearGradient632"
           x1="60.644615"
           y1="19.295689"
           x2="35.370575"
           y2="69.142799"
           gradientUnits="userSpaceOnUse"
           spreadMethod="pad" />
        <linearGradient
           xlink:href="#linearGradient632"
           id="linearGradient631"
           x1="85.637657"
           y1="17.443844"
           x2="73.916298"
           y2="54.628181"
           gradientUnits="userSpaceOnUse"
           spreadMethod="pad"
           gradientTransform="scale(0.740666,1.350136)" />
      </defs>
    </defs>
    <linearGradient
       inkscape:collect="always"
       xlink:href="#linearGradient2604"
       id="linearGradient2593"
       gradientTransform="matrix(1.3254801,-0.02104276,0.01798162,1.1326584,4.5181736,-41.675236)"
       x1="28.244335"
       y1="96.643951"
       x2="48.778095"
       y2="83.488678"
       gradientUnits="userSpaceOnUse" />
    <linearGradient
       inkscape:collect="always"
       xlink:href="#linearGradient2601"
       id="linearGradient2600"
       gradientTransform="matrix(1.2291121,-0.01951286,0.01939147,1.2214645,4.2046491,-42.149637)"
       x1="28.893913"
       y1="86.238678"
       x2="62.873707"
       y2="80.160988"
       gradientUnits="userSpaceOnUse" />
    <linearGradient
       inkscape:collect="always"
       xlink:href="#linearGradient2612"
       id="linearGradient2611"
       gradientTransform="matrix(1.3457529,-0.0213646,0.01771074,1.1155953,4.5181736,-41.675236)"
       x1="56.875603"
       y1="52.044476"
       x2="49.251457"
       y2="72.658920"
       gradientUnits="userSpaceOnUse" />
    <linearGradient
       inkscape:collect="always"
       xlink:href="#linearGradient2617"
       id="linearGradient3543"
       gradientUnits="userSpaceOnUse"
       gradientTransform="matrix(1.1522395,-0.01829247,0.02068517,1.3029553,4.5181736,-41.675236)"
       spreadMethod="reflect"
       x1="37.093960"
       y1="57.932289"
       x2="24.468754"
       y2="86.898430" />
  </defs>
  <sodipodi:namedview
     id="base"
     pagecolor="#ffffff"
     bordercolor="#666666"
     borderopacity="1.0"
     inkscape:pageopacity="0.0"
     inkscape:pageshadow="2"
     inkscape:zoom="1.4142136"
     inkscape:cx="-25.980711"
     inkscape:cy="57.912998"
     inkscape:current-layer="svg2448"
     inkscape:window-width="1214"
     inkscape:window-height="989"
     inkscape:window-x="64"
     inkscape:window-y="0"
     showgrid="false"
     inkscape:window-maximized="0" />
  <metadata
     id="metadata4">
    <rdf:RDF>
      <cc:Work
         rdf:about="">
        <dc:format>image/svg+xml</dc:format>
        <dc:type
           rdf:resource="http://purl.org/dc/dcmitype/StillImage" />
        <dc:title></dc:title>
      </cc:Work>
    </rdf:RDF>
  </metadata>
  <g
     inkscape:label="Layer 1"
     inkscape:groupmode="layer"
     id="layer1" />
  <path
     style="fill:none;stroke:#1f3e2d;stroke-width:9.19077492;stroke-linecap:butt;stroke-linejoin:miter;stroke-miterlimit:4;stroke-opacity:1"
     d="m 81.046066,39.621201 c 0,0 -28.185774,14.77068 -29.401831,15.269363 -3.563247,2.569781 -3.807772,10.315998 -0.719928,12.475285 6.68451,-2.982392 26.638103,-12.378293 26.638103,-12.378293 l 0.0086,-5.302385 c 0,0 5.110482,0.08835 5.790792,4.391964 0.680308,4.303612 -0.438044,5.110639 -1.944801,6.572697 C 79.910275,62.11189 51.042274,75.765156 47.551097,74.8909 45.99869,73.477409 9.9178771,47.882929 9.9178771,47.882929 c 0,0 -6.3846252,-16.676908 2.4032549,-22.089591 8.787881,-5.412682 28.856624,-13.401351 28.856624,-13.401351 0,0 2.141413,-0.034 4.305655,1.369782 2.164239,1.403779 34.283879,20.069026 35.545586,22.44589 1.261709,2.376866 0.01707,3.413542 0.01707,3.413542 z"
     id="path2615"
     sodipodi:nodetypes="cccccccccccccc"
     inkscape:connector-curvature="0" />
  <path
     style="fill:#ffffff;fill-opacity:1;fill-rule:evenodd;stroke:none"
     d="M 77.422157,39.298135 77.675018,55.225812 48.022535,68.238533 44.314007,52.704687 56.698906,42.338903 77.422156,39.298133 z"
     id="path2585"
     inkscape:connector-curvature="0" />
  <path
     style="fill:url(#linearGradient2593);fill-opacity:1;fill-rule:evenodd;stroke:none"
     d="M 77.422157,39.298135 77.675018,55.225812 48.022535,68.238533 44.314007,52.704687 56.698906,42.338903 77.422156,39.298133 z"
     id="path2589"
     inkscape:connector-curvature="0" />
  <path
     style="fill:#2aaf18;fill-opacity:1;fill-rule:evenodd;stroke:none"
     d="m 81.046066,39.621201 c 0,0 -28.185774,14.77068 -29.401831,15.269363 -3.563247,2.569781 -3.807772,10.315998 -0.719928,12.475285 6.68451,-2.982392 26.638103,-12.378293 26.638103,-12.378293 l 0.0086,-5.302385 c 0,0 5.110482,0.08835 5.790792,4.391964 0.680308,4.303612 -0.438044,5.110639 -1.944801,6.572697 C 79.910275,62.11189 51.042274,75.765156 47.551097,74.8909 45.99869,73.477409 9.9178771,47.882929 9.9178771,47.882929 c 0,0 -6.3846252,-16.676908 2.4032549,-22.089591 8.787881,-5.412682 28.856624,-13.401351 28.856624,-13.401351 0,0 2.141413,-0.034 4.305655,1.369782 2.164239,1.403779 34.283879,20.069026 35.545586,22.44589 1.261709,2.376866 0.01707,3.413542 0.01707,3.413542 z"
     id="path2459"
     sodipodi:nodetypes="cccccccccccccc"
     inkscape:connector-curvature="0" />
  <path
     style="fill:url(#linearGradient2611);fill-opacity:1;fill-rule:evenodd;stroke:none"
     d="m 12.321132,25.793338 c 16.726488,-6.49747 28.856624,-13.401351 28.856624,-13.401351 0,0 2.141413,-0.034 4.305655,1.369782 2.164239,1.403779 34.283879,20.069026 35.545586,22.44589 C 39.372691,14.33816 46.872886,43.461214 12.321132,25.793338 z"
     id="path2607"
     sodipodi:nodetypes="ccccc"
     inkscape:connector-curvature="0" />
  <path
     style="fill:url(#linearGradient2600);fill-opacity:1;fill-rule:evenodd;stroke:none"
     d="m 80.098306,35.40749 c 2e-6,10e-7 -31.371505,13.871134 -33.475481,17.63323 -3.599354,4.972239 -1.765708,18.848194 0.878498,21.856965 2.817484,0.294246 4.877825,-1.029262 4.877825,-1.029262 9.598709,-3.303206 18.93906,-7.618156 27.629603,-12.332409 0.416024,-0.410614 2.814987,-2.804492 3.087718,-3.30974 l -0.172974,-4.838983 c -0.480953,-1.157752 -1.687815,0.416124 -1.304946,-0.478159 l -13.706547,6.571015 c -6.438936,3.018039 -12.677129,5.761269 -16.922302,7.655318 -3.087845,-2.159288 -3.026828,-9.652561 0.53642,-12.222341 9.725143,-5.208097 19.430816,-10.039116 29.222694,-15.151726 0,0 0.365138,-1.044637 0.460524,-1.830837 L 80.0983,35.407493 z"
     id="path2587"
     sodipodi:nodetypes="cccccccccccccc"
     inkscape:connector-curvature="0" />
  <path
     style="fill:url(#linearGradient3543);fill-opacity:1;fill-rule:evenodd;stroke:none"
     d="M 9.0364489,30.152786 7.789593,34.2981 c -0.5759187,6.455347 2.1222876,13.593024 2.1222876,13.593024 0,0 36.0996654,25.585987 37.6520724,26.999479 0.04514,0.0113 0.102712,-0.009 0.15623,-0.0025 L 47.889792,69.822292 46.70934,52.557604 9.0364489,30.152786 z"
     id="path2616"
     inkscape:connector-curvature="0" />
  <g
     inkscape:label="Layer 1"
     inkscape:groupmode="layer"
     id="g2653"
     style="display:block;"
     transform="translate(116.6726,-3.093592)" />
  <g
     inkscape:groupmode="layer"
     id="layer2"
     inkscape:label="layer 2"
     transform="translate(116.6726,-3.093592)" />
  <text
     xml:space="preserve"
     style="font-size:34.73521805px;font-style:normal;font-weight:normal;line-height:125%;letter-spacing:0px;word-spacing:0px;fill:#000000;fill-opacity:1;stroke:none;font-family:Bitstream Vera Sans"
     x="-26.906141"
     y="45.296642"
     id="text3072-5"
     sodipodi:linespacing="125%"
     transform="matrix(0.91080909,-0.41282781,1.0721693,0.61195995,0,0)"><tspan
       sodipodi:role="line"
       id="tspan3074-6"
       x="-26.906141"
       y="45.296642"
       style="font-size:17.36760902px;font-weight:bold;fill:#ffffff;-inkscape-font-specification:Bitstream Vera Sans Bold">PhD</tspan></text>
</svg>
