<?xml version="1.0" encoding="UTF-8" standalone="no"?>
<!-- Created with Sodipodi ("http://www.sodipodi.com/") -->

<svg
   xmlns:dc="http://purl.org/dc/elements/1.1/"
   xmlns:cc="http://creativecommons.org/ns#"
   xmlns:rdf="http://www.w3.org/1999/02/22-rdf-syntax-ns#"
   xmlns:svg="http://www.w3.org/2000/svg"
   xmlns="http://www.w3.org/2000/svg"
   xmlns:xlink="http://www.w3.org/1999/xlink"
   xmlns:sodipodi="http://sodipodi.sourceforge.net/DTD/sodipodi-0.dtd"
   xmlns:inkscape="http://www.inkscape.org/namespaces/inkscape"
   id="svg569"
   sodipodi:version="0.32"
   width="72pt"
   height="72pt"
   sodipodi:docname="galeon.svg"
   version="1.1"
   inkscape:version="0.48.3.1 r9886">
  <metadata
     id="metadata24">
    <rdf:RDF>
      <cc:Work
         rdf:about="">
        <dc:format>image/svg+xml</dc:format>
        <dc:type
           rdf:resource="http://purl.org/dc/dcmitype/StillImage" />
        <dc:title></dc:title>
      </cc:Work>
    </rdf:RDF>
  </metadata>
  <defs
     id="defs571">
    <linearGradient
       id="linearGradient584">
      <stop
         style="stop-color:#ffffff;stop-opacity:0;"
         offset="0.000000"
         id="stop585" />
      <stop
         style="stop-color:#ffffff;stop-opacity:1;"
         offset="1.000000"
         id="stop586" />
    </linearGradient>
    <linearGradient
       xlink:href="#linearGradient584"
       id="linearGradient587"
       x1="28.2520447"
       y1="32.8688049"
       x2="68.3603058"
       y2="21.4794312"
       gradientUnits="userSpaceOnUse"
       spreadMethod="pad"
       gradientTransform="matrix(0.9038604,-0.64361419,0.82706248,0.92713031,-24.551767,38.796434)" />
  </defs>
  <sodipodi:namedview
     id="base"
     showgrid="false"
     inkscape:zoom="2.6222222"
     inkscape:cx="45"
     inkscape:cy="45"
     inkscape:window-width="1214"
     inkscape:window-height="989"
     inkscape:window-x="64"
     inkscape:window-y="0"
     inkscape:window-maximized="0"
     inkscape:current-layer="svg569" />
  <path
     sodipodi:type="arc"
     style="font-size:12px;fill:#31baff;fill-rule:evenodd;stroke-width:1pt"
     id="path573"
     d="m 83.823837,45.390781 a 40.459526,40.459522 0 1 1 -80.9190518,0 40.459526,40.459522 0 1 1 80.9190518,0 z"
     sodipodi:cx="43.364311"
     sodipodi:cy="45.390781"
     sodipodi:rx="40.459526"
     sodipodi:ry="40.459522"
     transform="matrix(0.79012544,0,0,0.79012544,9.1541642,8.7805549)" />
  <path
     style="font-size:12px;fill:#e48e6f;fill-rule:evenodd;stroke-width:1pt"
     d="m 29.931343,15.960807 4.66938,8.066855 -11.280282,13.973124 c 0,0 5.487374,12.810752 9.460339,12.650235 C 30.314847,51.175527 30.318863,61.76677 31.551829,65.054712 35.41302,61.719707 17.1952,57.101312 18.745186,47.801583 20.295078,38.501761 19.199191,36.120148 14.936753,42.707518 10.674334,49.294794 9.8993503,51.038541 10.286842,47.938569 10.674334,44.83869 9.3473254,21.8907 29.931343,15.960807 z"
     id="path576"
     sodipodi:nodetypes="ccccccccc"
     inkscape:connector-curvature="0" />
  <path
     style="font-size:12px;fill:#fffcac;fill-rule:evenodd;stroke-width:1pt"
     d="m 31.986318,15.001812 6.58737,9.299822 -12.78722,13.562166 c 0,0 8.912302,12.399701 8.912302,12.787221 0,0.38752 -3.487398,10.074768 -3.487398,10.074768 0,0 -12.3997,-6.58737 -10.849715,-15.887099 1.549893,-9.299821 0,-12.787219 -4.262438,-6.19985 -4.26241,6.587277 -6.1998687,12.399701 -5.812377,9.299729 0.387492,-3.099879 1.937459,-29.061839 21.699476,-32.936757 z"
     id="path574"
     inkscape:connector-curvature="0" />
  <path
     style="font-size:12px;fill:#ffd87c;fill-rule:evenodd;stroke-width:1pt"
     d="m 29.931343,15.960807 4.66938,8.066855 -11.280282,13.973124 c 0,0 5.487374,12.810752 9.460339,12.650235 -2.465933,0.524506 -3.624384,5.690845 -2.391417,8.978787 C 29.01941,55.519858 18.745186,55.938845 20.295172,46.639117 21.845065,37.339294 20.361652,32.051471 16.099219,38.63884 11.836809,45.226117 9.8993503,51.038541 10.286842,47.938569 10.674334,44.83869 9.3473254,21.8907 29.931343,15.960807 z"
     id="path575"
     sodipodi:nodetypes="ccccccccc"
     inkscape:connector-curvature="0" />
  <path
     style="font-size:12px;fill:#e48e6f;fill-rule:evenodd;stroke-width:1pt"
     d="m 43.315717,20.881188 c 0,0 4.931959,3.562008 -0.548037,8.76794 -5.479997,5.206024 -13.151863,7.124014 -6.575978,10.685929 6.575978,3.562007 15.617889,4.10995 14.79588,-2.191962 -0.821916,-6.301913 -1.917896,-19.72784 -7.671865,-17.261907 z"
     id="path577"
     inkscape:connector-curvature="0" />
  <path
     style="font-size:12px;fill:#fffbaa;fill-rule:evenodd;stroke-width:1pt"
     d="m 44.107211,20.862893 c 0,0 4.776479,3.343975 -0.53076,8.231248 -5.307239,4.88736 -12.737247,6.687948 -6.368668,10.031834 6.368668,3.343974 15.125531,3.858378 14.329436,-2.057789 -0.796005,-5.916169 -1.857435,-18.520284 -7.430008,-16.205293 z"
     id="path578"
     inkscape:connector-curvature="0" />
  <path
     style="font-size:12px;fill:#ffd87c;fill-rule:evenodd;stroke-width:1pt"
     d="m 42.736948,20.848284 c 0,0 4.076805,3.169551 -0.453014,7.8019 -4.529818,4.632432 -10.871456,6.339101 -5.435766,9.508568 5.435766,3.16955 12.909898,3.657122 12.230417,-1.950455 -0.679403,-5.607576 -1.585352,-17.554252 -6.341637,-15.360013 z"
     id="path579"
     inkscape:connector-curvature="0" />
  <path
     style="font-size:12px;fill:#e48e6f;fill-rule:evenodd;stroke-width:1pt"
     d="m 75.373411,47.458979 c 0,0 -13.151863,-1.91799 -13.973872,-1.369954 -0.822008,0.548038 -12.329947,1.644018 -11.233873,7.671959 1.095982,6.027941 4.93196,10.959901 0,14.521908 -4.93196,3.561914 -10.411957,6.301913 -5.479996,7.945931 4.93196,1.643924 11.781909,-0.274065 13.973871,-2.192055 2.191961,-1.91799 -2.465933,-3.01397 -1.91799,-8.493874 0.548037,-5.479997 -1.095981,-9.041911 4.657988,-7.124015 5.75397,1.91799 5.479998,4.110045 9.315884,0 3.835979,-4.109951 7.124014,-5.205932 4.657988,-10.9599 z"
     id="path580"
     inkscape:connector-curvature="0" />
  <path
     style="font-size:12px;fill:#fffcac;fill-rule:evenodd;stroke-width:1pt"
     d="m 75.373411,47.380748 c 1.09598,-1.369996 -13.151863,-5.103825 -13.973872,-2.940934 -0.822008,-1.673133 -14.795973,0.73446 -13.699805,6.441199 1.09598,5.706917 5.753875,12.020107 0.821914,15.392364 -4.93196,3.372168 -8.767939,6.788185 -3.835978,8.344625 4.93196,1.556351 11.781909,-0.259466 13.973871,-2.075283 2.191961,-1.815817 -3.561915,-2.853414 -3.013971,-8.041399 0.548038,-5.188073 0,-9.930238 5.753969,-8.114509 5.75397,1.815817 5.479998,3.891099 9.315884,0 3.835979,-3.891011 7.124014,-3.558612 4.657988,-9.006063 z"
     id="path582"
     sodipodi:nodetypes="cccccccccc"
     inkscape:connector-curvature="0" />
  <path
     style="font-size:12px;fill:#ffd87c;fill-rule:evenodd;stroke-width:1pt"
     d="m 75.373411,47.380748 c 0,0 -13.151863,-1.815817 -13.973872,-1.296974 -0.822008,0.518843 -12.329947,1.556439 -11.233873,7.263267 1.095982,5.706828 4.93196,10.376059 0,13.748316 -4.93196,3.372169 -10.411957,5.966205 -5.479996,7.522645 4.93196,1.556351 11.781909,-0.259466 13.973871,-2.075283 2.191961,-1.815817 -3.561915,-2.853414 -3.013971,-8.041399 0.548038,-5.188073 0,-9.930238 5.753969,-8.114509 5.75397,1.815817 5.479998,3.891099 9.315884,0 3.835979,-3.891011 7.124014,-3.558612 4.657988,-9.006063 z"
     id="path581"
     sodipodi:nodetypes="cccccccccc"
     inkscape:connector-curvature="0" />
  <path
     style="font-size:12px;fill:none;stroke:#283d53;stroke-width:6.2624259"
     d="m 78.183754,44.257437 c 0,19.191018 -15.575301,34.766405 -34.766405,34.766405 -19.191017,0 -34.7664125,-15.575387 -34.7664125,-34.766405 0,-19.191103 15.5753955,-34.7664382 34.7664125,-34.7664382 19.191104,0 34.766405,15.5753352 34.766405,34.7664382 z"
     id="path654"
     inkscape:connector-curvature="0" />
  <path
     style="font-size:12px;fill:url(#linearGradient587);fill-rule:evenodd;stroke-width:1pt"
     d="m 64.472641,23.243732 c 8.333589,9.341891 7.705566,22.186964 -1.402001,28.672184 -9.107481,6.485158 -23.262461,4.166612 -31.59605,-5.175281 -8.333674,-9.341987 -7.705651,-22.187059 1.401829,-28.672217 9.107567,-6.48522 23.262548,-4.166673 31.596222,5.175314 z"
     id="path588"
     inkscape:connector-curvature="0" />
</svg>
