<?xml version="1.0" encoding="iso-8859-1" standalone="no"?>
<!DOCTYPE svg>
<!--Generated by Ulead PhotoImpact-->
<svg width="64px" height="64px">
	<path d="m 9.58 16.81l 1.19 7.79 1.49 7.22 0.8 6.37 0.7 6.84 0.8 4.18 1.39 4.09 2.09 2.85 2.78 1.81 4.37 0.86 5.27 0.19 3.78 -0.19 3.78 -2 4.28 -3.14 4.28 -2.85 5.37 -2.47 6.66 -2.28 0.99 -1.05 0.4 -1.81 -0.2 -1.81 -0.99 -1.81 -1.49 -1.14 -1.49 -0.38 -11.43 5.13 -0.6 -0.29 0.1 -1.43 1.59 -10.55 4.47 -16.82 -0.7 -1.52 -2.29 -1.24 -2.49 0.1 -0.8 0.38 -0.8 2.09 -4.77 17.2 -0.89 0.1 -0.2 -1.05 0 -3.04 1.19 -20.05 -0.3 -1.14 -1.49 -0.95 -2.68 0 -1.59 0.67 -0.4 1.43 -1.69 23 -0.89 0.67 -0.99 0 -0.4 -0.57 -0.3 -2.47 -1.59 -19.01 -0.4 -2 -0.5 -0.67 -2.09 -0.57 -2.09 0.48 -1.59 1.05 -0.5 1.71 0.3 3.04 1.69 17.96 -0.4 0.95 -0.8 0.1 -0.7 0 -0.3 -0.29 0 -0.67 -2.59 -13.88 -1.19 -2.57 -1.49 -0.48 -2.19 0.29 -1.09 0.57 -0.8 1.9 0.4 1.14 z" id="PATH4" style="fill:#266580;fill-rule:evenodd"/>
</svg>
