
#define fselch16.218pk_0_width 	 29
#define fselch16.218pk_0_height 	 39
#define fselch16.218pk_0_xoff 	 0
#define fselch16.218pk_0_yoff 	 0
static char fselch16.218pk_0_bits[] = {
   0x00,  0xf0,  0x01,  0x00, 
   0x00,  0x08,  0x02,  0x00, 
   0x00,  0x04,  0x04,  0x00, 
   0x00,  0x02,  0x08,  0x00, 
   0x00,  0x02,  0x08,  0x00, 
   0x00,  0x02,  0x08,  0x00, 
   0x00,  0x02,  0x08,  0x00, 
   0x00,  0x02,  0x08,  0x00, 
   0x00,  0x04,  0x04,  0x00, 
   0x00,  0x18,  0x03,  0x00, 
   0x00,  0x06,  0x0c,  0x00, 
   0x00,  0x01,  0x10,  0x00, 
   0x80,  0x00,  0x20,  0x00, 
   0x80,  0x00,  0x20,  0x00, 
   0x40,  0x00,  0x40,  0x00, 
   0x40,  0x00,  0x40,  0x00, 
   0x40,  0x00,  0x40,  0x00, 
   0x40,  0x00,  0x40,  0x00, 
   0x40,  0x00,  0x40,  0x00, 
   0x80,  0x00,  0x20,  0x00, 
   0x80,  0x00,  0x20,  0x00, 
   0x00,  0x03,  0x18,  0x00, 
   0x00,  0x0c,  0x06,  0x00, 
   0x00,  0x03,  0x18,  0x00, 
   0xc0,  0x00,  0x60,  0x00, 
   0x20,  0x00,  0x80,  0x00, 
   0x10,  0x00,  0x00,  0x01, 
   0x08,  0x00,  0x00,  0x02, 
   0x08,  0x00,  0x00,  0x02, 
   0x04,  0x00,  0x00,  0x04, 
   0x04,  0x00,  0x00,  0x04, 
   0x02,  0x00,  0x00,  0x08, 
   0x02,  0x00,  0x00,  0x08, 
   0x02,  0x00,  0x00,  0x08, 
   0x01,  0x00,  0x00,  0x10, 
   0x01,  0x00,  0x00,  0x10, 
   0x01,  0x00,  0x00,  0x10, 
   0x01,  0x00,  0x00,  0x10, 
   0xff,  0xff,  0xff,  0x1f, };
