#define fselch16.218pk_26_width 	 48
#define fselch16.218pk_26_height 	 48
#define fselch16.218pk_26_xoff 	 0
#define fselch16.218pk_26_yoff 	 0
static char fselch16.218pk_26_bits[] = {
   0x84,  0x10,  0x42,  0x08,  0x21,  0x84, 
   0x42,  0x08,  0x01,  0x84,  0x10,  0x42, 
   0x21,  0x84,  0x00,  0x40,  0x08,  0x21, 
   0x10,  0x42,  0x00,  0x20,  0x84,  0x10, 
   0x08,  0x21,  0xc0,  0x01,  0x42,  0x08, 
   0x84,  0x10,  0xe2,  0x02,  0x21,  0x84, 
   0x42,  0x08,  0xe1,  0x82,  0x10,  0x42, 
   0x21,  0x84,  0xe0,  0x42,  0x08,  0x21, 
   0x10,  0x42,  0xe0,  0x22,  0x84,  0x10, 
   0x08,  0x21,  0xc0,  0x01,  0x42,  0x08, 
   0x84,  0x10,  0xe0,  0x02,  0x21,  0x84, 
   0x42,  0x08,  0xf8,  0x0c,  0x10,  0x42, 
   0x21,  0x04,  0xfe,  0x30,  0x08,  0x21, 
   0x10,  0x02,  0xff,  0x40,  0x84,  0x10, 
   0x08,  0x81,  0xff,  0x80,  0x40,  0x08, 
   0x84,  0xc0,  0xff,  0x00,  0x21,  0x84, 
   0x42,  0xe0,  0x7f,  0x00,  0x12,  0x42, 
   0x21,  0xe0,  0x7f,  0x00,  0x02,  0x21, 
   0x10,  0xf2,  0x7f,  0x00,  0x84,  0x10, 
   0x08,  0xf1,  0x07,  0x0f,  0x44,  0x08, 
   0x84,  0xf0,  0x7f,  0x00,  0x24,  0x84, 
   0x42,  0xf0,  0x7f,  0x00,  0x04,  0x42, 
   0x21,  0xf0,  0x7f,  0x00,  0x04,  0x21, 
   0x10,  0xf2,  0x7f,  0x00,  0x84,  0x10, 
   0x08,  0xe1,  0xff,  0x00,  0x42,  0x08, 
   0x84,  0xe0,  0xff,  0x00,  0x22,  0x84, 
   0x42,  0xc8,  0xff,  0x00,  0x11,  0x42, 
   0x21,  0x84,  0xff,  0x80,  0x08,  0x21, 
   0x10,  0x02,  0x01,  0x7f,  0x84,  0x10, 
   0x08,  0x01,  0xff,  0x40,  0x40,  0x08, 
   0x84,  0x10,  0xff,  0x40,  0x20,  0x84, 
   0x42,  0x88,  0xff,  0x80,  0x10,  0x42, 
   0x21,  0x84,  0x00,  0xff,  0x08,  0x21, 
   0x10,  0x82,  0xff,  0x80,  0x80,  0x10, 
   0x08,  0xc1,  0xff,  0x00,  0x41,  0x08, 
   0x84,  0xc0,  0xff,  0xc0,  0x21,  0x84, 
   0x42,  0x00,  0xfe,  0x3f,  0x00,  0x42, 
   0x01,  0x00,  0xe0,  0x03,  0x00,  0x20, 
   0x00,  0x00,  0xf8,  0x0c,  0x00,  0x10, 
   0x00,  0xff,  0xff,  0xf0,  0x7f,  0x00, 
   0xe0,  0xff,  0x7f,  0x07,  0x80,  0x83, 
   0xf2,  0xff,  0x0f,  0xf8,  0x3f,  0x44, 
   0xe1,  0x01,  0x00,  0x00,  0xc0,  0x22, 
   0x40,  0x00,  0x00,  0x01,  0x00,  0x11, 
   0x00,  0x00,  0x80,  0x00,  0x00,  0x00, 
   0x04,  0x10,  0x42,  0x08,  0x21,  0x80, 
   0x42,  0x08,  0x21,  0x84,  0x10,  0x42, 
   0x21,  0x84,  0x10,  0x42,  0x08,  0x21, };
