#define fselch16.218pk_56_width 	 48
#define fselch16.218pk_56_height 	 48
#define fselch16.218pk_56_xoff 	 0
#define fselch16.218pk_56_yoff 	 0
static char fselch16.218pk_56_bits[] = {
   0x84,  0x10,  0x42,  0x08,  0x21,  0x84, 
   0x42,  0x08,  0x21,  0x84,  0x10,  0x42, 
   0x21,  0x84,  0x10,  0x42,  0x08,  0x20, 
   0x10,  0x42,  0x08,  0x21,  0x04,  0x10, 
   0x08,  0x21,  0x84,  0x10,  0x02,  0x01, 
   0x84,  0x10,  0x42,  0x08,  0x81,  0x82, 
   0x42,  0x08,  0x21,  0x84,  0x80,  0x44, 
   0x21,  0x84,  0x10,  0x42,  0x80,  0x22, 
   0x10,  0x42,  0x08,  0x21,  0x44,  0x02, 
   0x08,  0x21,  0x84,  0x10,  0x42,  0x01, 
   0x84,  0x10,  0x00,  0x08,  0x41,  0x81, 
   0x42,  0x08,  0x00,  0x84,  0x40,  0x41, 
   0x21,  0x04,  0x7e,  0x00,  0x40,  0x21, 
   0x10,  0x82,  0x81,  0x01,  0x40,  0x11, 
   0x08,  0x41,  0x00,  0x02,  0x46,  0x01, 
   0x84,  0x20,  0x00,  0xc4,  0x45,  0x81, 
   0x42,  0x10,  0x00,  0xb8,  0x44,  0x41, 
   0x21,  0x08,  0x00,  0x88,  0x48,  0x21, 
   0x00,  0x08,  0x00,  0x88,  0x48,  0x11, 
   0x00,  0x04,  0x04,  0x88,  0x28,  0x01, 
   0x00,  0x04,  0x04,  0x88,  0xa8,  0x80, 
   0xf0,  0x02,  0x04,  0x88,  0x98,  0x40, 
   0x08,  0x01,  0x04,  0x88,  0x98,  0x20, 
   0x08,  0x81,  0x7f,  0x88,  0x48,  0x10, 
   0x08,  0x01,  0x04,  0x88,  0x98,  0x08, 
   0xf0,  0x02,  0x04,  0x88,  0x98,  0x80, 
   0x00,  0x04,  0x04,  0x88,  0xa8,  0x40, 
   0x01,  0x04,  0x04,  0x88,  0x28,  0x21, 
   0x00,  0x08,  0x00,  0x88,  0x48,  0x11, 
   0x08,  0x09,  0x00,  0x88,  0x48,  0x01, 
   0x84,  0x10,  0x00,  0xb8,  0x44,  0x81, 
   0x42,  0x20,  0x00,  0xc4,  0x45,  0x41, 
   0x21,  0x44,  0x00,  0x02,  0x46,  0x21, 
   0x10,  0x82,  0x81,  0x01,  0x40,  0x11, 
   0x08,  0x01,  0x7e,  0x10,  0x40,  0x01, 
   0x84,  0x10,  0x00,  0x08,  0x41,  0x81, 
   0x42,  0x08,  0x00,  0x84,  0x40,  0x41, 
   0x21,  0x84,  0x10,  0x42,  0x40,  0x21, 
   0x10,  0x42,  0x08,  0x21,  0x44,  0x02, 
   0x08,  0x21,  0x84,  0x10,  0x82,  0x02, 
   0x84,  0x10,  0x42,  0x08,  0x81,  0x84, 
   0x42,  0x08,  0x21,  0x84,  0x80,  0x42, 
   0x21,  0x84,  0x10,  0x42,  0x08,  0x21, 
   0x10,  0x42,  0x08,  0x21,  0x04,  0x10, 
   0x08,  0x21,  0x84,  0x10,  0x02,  0x08, 
   0x84,  0x10,  0x42,  0x08,  0x21,  0x84, 
   0x42,  0x08,  0x21,  0x84,  0x10,  0x42, 
   0x21,  0x84,  0x10,  0x42,  0x08,  0x21, };
