#define fselch16.218pk_96_width 	 48
#define fselch16.218pk_96_height 	 48
#define fselch16.218pk_96_xoff 	 0
#define fselch16.218pk_96_yoff 	 0
static char fselch16.218pk_96_bits[] = {
   0x84,  0x10,  0x42,  0x08,  0x21,  0x84, 
   0x42,  0x08,  0x21,  0x84,  0x10,  0x42, 
   0x21,  0x84,  0x10,  0x42,  0x08,  0x21, 
   0x10,  0x42,  0x08,  0x21,  0x84,  0x10, 
   0x08,  0x21,  0x84,  0x10,  0x42,  0x08, 
   0x84,  0x10,  0x42,  0x08,  0x21,  0x84, 
   0x42,  0x08,  0x21,  0x84,  0x10,  0x42, 
   0x21,  0x84,  0x10,  0x42,  0x08,  0x21, 
   0x10,  0x40,  0x08,  0x21,  0x84,  0x10, 
   0x08,  0x00,  0x84,  0x10,  0x42,  0x08, 
   0x84,  0x0f,  0x40,  0x08,  0x21,  0x84, 
   0x82,  0x7f,  0x20,  0x84,  0x10,  0x42, 
   0x81,  0xff,  0x01,  0x42,  0x08,  0x21, 
   0x80,  0xff,  0x07,  0x01,  0x84,  0x10, 
   0x88,  0xff,  0x0f,  0x00,  0x40,  0x08, 
   0x84,  0xff,  0x1f,  0x00,  0x20,  0x84, 
   0x82,  0xff,  0x3f,  0xf8,  0x00,  0x42, 
   0x81,  0xff,  0x3f,  0xfe,  0x03,  0x20, 
   0x80,  0xff,  0x7f,  0xff,  0x07,  0x00, 
   0x88,  0xff,  0x7f,  0xff,  0xcf,  0x07, 
   0x84,  0xff,  0xff,  0xff,  0xef,  0x8f, 
   0x82,  0xff,  0xff,  0xff,  0xff,  0x1f, 
   0x81,  0xff,  0xff,  0xff,  0xff,  0x3f, 
   0x80,  0xff,  0xff,  0xff,  0xff,  0x3f, 
   0x88,  0xff,  0xff,  0xff,  0xff,  0x3f, 
   0x84,  0x00,  0x00,  0x00,  0x00,  0x20, 
   0x82,  0x00,  0x00,  0x00,  0x10,  0x20, 
   0x81,  0x00,  0x80,  0x00,  0x10,  0x10, 
   0x80,  0x00,  0x80,  0x00,  0x28,  0x08, 
   0x88,  0x00,  0x40,  0x01,  0xc8,  0x07, 
   0x84,  0x00,  0x40,  0x01,  0x04,  0x80, 
   0x82,  0x00,  0x20,  0x06,  0x03,  0x40, 
   0x81,  0x00,  0x20,  0xf8,  0x00,  0x21, 
   0x80,  0x00,  0x10,  0x00,  0x80,  0x10, 
   0x88,  0x00,  0x08,  0x00,  0x40,  0x08, 
   0x84,  0x00,  0x06,  0x00,  0x20,  0x84, 
   0x82,  0x80,  0x01,  0x84,  0x10,  0x42, 
   0x81,  0x70,  0x00,  0x42,  0x08,  0x21, 
   0x80,  0x0f,  0x08,  0x21,  0x84,  0x10, 
   0x08,  0x00,  0x84,  0x10,  0x42,  0x08, 
   0x04,  0x00,  0x42,  0x08,  0x21,  0x84, 
   0x42,  0x08,  0x21,  0x84,  0x10,  0x42, 
   0x21,  0x84,  0x10,  0x42,  0x08,  0x21, 
   0x10,  0x42,  0x08,  0x21,  0x84,  0x10, 
   0x08,  0x21,  0x84,  0x10,  0x42,  0x08, 
   0x84,  0x10,  0x42,  0x08,  0x21,  0x84, 
   0x42,  0x08,  0x21,  0x84,  0x10,  0x42, 
   0x21,  0x84,  0x10,  0x42,  0x08,  0x21, };
