#define fselch16.218pk_99_width 	 48
#define fselch16.218pk_99_height 	 48
#define fselch16.218pk_99_xoff 	 0
#define fselch16.218pk_99_yoff 	 0
static char fselch16.218pk_99_bits[] = {
   0x84,  0x10,  0x42,  0x08,  0x21,  0x84, 
   0x42,  0x08,  0x21,  0x84,  0x10,  0x42, 
   0x21,  0x84,  0x10,  0x42,  0x08,  0x21, 
   0x10,  0x42,  0x08,  0x21,  0x84,  0x10, 
   0x08,  0x21,  0x84,  0x10,  0x42,  0x08, 
   0x04,  0x10,  0x42,  0x08,  0x21,  0x84, 
   0x02,  0x00,  0x21,  0x84,  0x10,  0x42, 
   0x01,  0x80,  0x10,  0x42,  0x08,  0x21, 
   0x80,  0x0f,  0x08,  0x21,  0x00,  0x10, 
   0x88,  0x0f,  0x84,  0x10,  0x00,  0x00, 
   0x84,  0x0f,  0x40,  0x08,  0x00,  0x80, 
   0x82,  0xff,  0x20,  0x04,  0xf8,  0x47, 
   0x81,  0x7b,  0x01,  0x00,  0xf4,  0x27, 
   0x80,  0x7b,  0x03,  0x00,  0xf6,  0x07, 
   0x88,  0x7b,  0x07,  0x00,  0xf6,  0x07, 
   0x84,  0x7b,  0xff,  0xff,  0xf7,  0x87, 
   0x82,  0x7b,  0xf7,  0x7f,  0xf7,  0x47, 
   0x81,  0x7b,  0xf7,  0x7f,  0x77,  0x20, 
   0x80,  0x7b,  0xf7,  0x7f,  0x77,  0x10, 
   0x88,  0x7b,  0xf7,  0x7f,  0x77,  0x00, 
   0x84,  0x7b,  0xf7,  0x7f,  0x77,  0x80, 
   0x82,  0x7b,  0xf7,  0x7f,  0x77,  0x40, 
   0x81,  0x7b,  0xf7,  0x7f,  0xf7,  0x27, 
   0x80,  0x7b,  0xf7,  0x7f,  0xf7,  0x07, 
   0x88,  0x7b,  0xf7,  0x7f,  0xf7,  0x07, 
   0x84,  0x84,  0x08,  0x80,  0x08,  0x84, 
   0x82,  0x84,  0x08,  0x80,  0x08,  0x44, 
   0x81,  0x84,  0x08,  0x80,  0xc8,  0x27, 
   0x80,  0x84,  0x08,  0x80,  0x48,  0x00, 
   0x88,  0x84,  0x08,  0x80,  0x48,  0x00, 
   0x84,  0x84,  0x08,  0x80,  0x48,  0x80, 
   0x82,  0x84,  0x08,  0x80,  0x48,  0x40, 
   0x81,  0x84,  0x08,  0x80,  0xc8,  0x27, 
   0x80,  0x84,  0xf8,  0xff,  0x08,  0x04, 
   0x88,  0x84,  0x04,  0x00,  0x09,  0x04, 
   0x84,  0x84,  0x02,  0x00,  0x0a,  0x84, 
   0x82,  0x84,  0x01,  0x00,  0x0c,  0x44, 
   0x81,  0xfc,  0x10,  0x42,  0xf8,  0x27, 
   0x80,  0x04,  0x08,  0x21,  0x00,  0x00, 
   0x88,  0x04,  0x84,  0x10,  0x00,  0x00, 
   0x84,  0x07,  0x42,  0x08,  0x01,  0x80, 
   0x02,  0x00,  0x21,  0x84,  0x10,  0x42, 
   0x01,  0x80,  0x10,  0x42,  0x08,  0x21, 
   0x10,  0x40,  0x08,  0x21,  0x84,  0x10, 
   0x08,  0x21,  0x84,  0x10,  0x42,  0x08, 
   0x84,  0x10,  0x42,  0x08,  0x21,  0x84, 
   0x42,  0x08,  0x21,  0x84,  0x10,  0x42, 
   0x21,  0x84,  0x10,  0x42,  0x08,  0x21, };
