#define fselch12.218pk_£_width 	 36
#define fselch12.218pk_£_height 	 36
#define fselch12.218pk_£_xoff 	 0
#define fselch12.218pk_£_yoff 	 0
static char fselch12.218pk_£_bits[] = {
   0x88,  0x88,  0x88,  0x88,  0x08, 
   0x44,  0x44,  0x44,  0x44,  0x04, 
   0x22,  0x22,  0x22,  0x22,  0x02, 
   0x11,  0x11,  0x11,  0x11,  0x01, 
   0x88,  0x08,  0x80,  0x88,  0x08, 
   0x44,  0x04,  0x00,  0x44,  0x04, 
   0x22,  0xc0,  0x1f,  0x20,  0x02, 
   0x11,  0x30,  0x60,  0x10,  0x01, 
   0x08,  0x0c,  0x80,  0x81,  0x08, 
   0x04,  0x02,  0x00,  0x42,  0x04, 
   0x02,  0x01,  0x00,  0x04,  0x02, 
   0x91,  0x00,  0x00,  0x08,  0x01, 
   0x88,  0x00,  0x00,  0x88,  0x08, 
   0x44,  0x00,  0x00,  0x10,  0x04, 
   0x42,  0x00,  0x00,  0x10,  0x02, 
   0x21,  0x00,  0x00,  0x20,  0x01, 
   0x20,  0x00,  0x00,  0x20,  0x08, 
   0x24,  0x00,  0x00,  0x20,  0x04, 
   0x22,  0x00,  0x00,  0x20,  0x02, 
   0x21,  0x00,  0x00,  0x20,  0x01, 
   0x20,  0x00,  0x00,  0x20,  0x08, 
   0x24,  0x00,  0x00,  0x20,  0x04, 
   0x42,  0x00,  0x00,  0x10,  0x02, 
   0x41,  0x00,  0x00,  0x10,  0x01, 
   0x88,  0x00,  0x00,  0x88,  0x08, 
   0x84,  0x00,  0x00,  0x48,  0x04, 
   0x02,  0x01,  0x00,  0x04,  0x02, 
   0x11,  0x02,  0x00,  0x02,  0x01, 
   0x08,  0x0c,  0x80,  0x81,  0x08, 
   0x44,  0x30,  0x60,  0x40,  0x04, 
   0x22,  0xc0,  0x1f,  0x20,  0x02, 
   0x11,  0x01,  0x00,  0x11,  0x01, 
   0x88,  0x08,  0x80,  0x88,  0x08, 
   0x44,  0x44,  0x44,  0x44,  0x04, 
   0x22,  0x22,  0x22,  0x22,  0x02, 
   0x11,  0x11,  0x11,  0x11,  0x01, };
