#define fselch16.218pk_‚_width 	 48
#define fselch16.218pk_‚_height 	 48
#define fselch16.218pk_‚_xoff 	 0
#define fselch16.218pk_‚_yoff 	 0
static char fselch16.218pk_‚_bits[] = {
   0x84,  0x10,  0x42,  0x08,  0x21,  0x84, 
   0x42,  0x08,  0x21,  0x84,  0x10,  0x42, 
   0x21,  0x84,  0x00,  0x00,  0x08,  0x21, 
   0x10,  0x02,  0x00,  0x00,  0x80,  0x10, 
   0x08,  0x00,  0x00,  0x00,  0x00,  0x08, 
   0x04,  0x00,  0xff,  0x7f,  0x00,  0x84, 
   0x02,  0xfe,  0x00,  0x80,  0x3f,  0x42, 
   0x21,  0x01,  0x00,  0x00,  0x40,  0x20, 
   0x10,  0x03,  0x00,  0x00,  0x60,  0x10, 
   0x08,  0xfe,  0x00,  0x80,  0x3f,  0x08, 
   0x04,  0x04,  0xff,  0x7f,  0x10,  0x84, 
   0x42,  0x08,  0x00,  0x00,  0x08,  0x42, 
   0x21,  0xf8,  0x01,  0xc0,  0x0f,  0x21, 
   0x10,  0x08,  0xfe,  0x3f,  0x88,  0x10, 
   0x08,  0x08,  0x00,  0x00,  0x08,  0x08, 
   0x04,  0x04,  0x00,  0x00,  0x10,  0x84, 
   0x42,  0xfc,  0x00,  0x80,  0x1f,  0x42, 
   0x21,  0x02,  0xff,  0x7f,  0x20,  0x20, 
   0x10,  0x01,  0x00,  0x00,  0x40,  0x10, 
   0x88,  0x00,  0x00,  0x00,  0x80,  0x08, 
   0x84,  0x0b,  0x00,  0x00,  0xec,  0x80, 
   0x82,  0x74,  0x3e,  0x3e,  0x97,  0x40, 
   0x81,  0x98,  0x49,  0xc9,  0x8c,  0x20, 
   0x40,  0x18,  0x8c,  0x18,  0x0c,  0x11, 
   0x48,  0x14,  0x14,  0x14,  0x14,  0x09, 
   0x44,  0x14,  0x14,  0x14,  0x14,  0x81, 
   0x42,  0x12,  0x12,  0x24,  0x24,  0x41, 
   0x41,  0x12,  0x12,  0x24,  0x24,  0x21, 
   0x40,  0x11,  0x12,  0x24,  0x44,  0x11, 
   0x40,  0x11,  0x21,  0x42,  0x44,  0x01, 
   0xa4,  0x20,  0x21,  0x42,  0x82,  0x82, 
   0xa2,  0x20,  0x21,  0x42,  0x82,  0x42, 
   0x61,  0xa0,  0x20,  0x82,  0x02,  0x23, 
   0x60,  0xa2,  0x40,  0x81,  0x02,  0x03, 
   0x30,  0xa0,  0x44,  0x91,  0x02,  0x06, 
   0x28,  0x60,  0x40,  0x01,  0x03,  0x8a, 
   0x44,  0x60,  0x40,  0x01,  0x03,  0x11, 
   0x44,  0x60,  0x40,  0x01,  0x03,  0x11, 
   0x44,  0x20,  0x88,  0x20,  0x02,  0x11, 
   0x38,  0x70,  0x84,  0x10,  0x07,  0x0e, 
   0x00,  0x88,  0xc0,  0x81,  0x08,  0x80, 
   0x02,  0x88,  0x20,  0x82,  0x08,  0x40, 
   0x21,  0x88,  0x20,  0x82,  0x08,  0x21, 
   0x10,  0x70,  0x20,  0x22,  0x87,  0x10, 
   0x08,  0x01,  0xc4,  0x11,  0x40,  0x08, 
   0x84,  0x00,  0x02,  0x08,  0x20,  0x84, 
   0x42,  0x08,  0x01,  0x84,  0x10,  0x42, 
   0x21,  0x84,  0x10,  0x42,  0x08,  0x21, };
