#define fselch16.218pk_18_width 	 48
#define fselch16.218pk_18_height 	 48
#define fselch16.218pk_18_xoff 	 0
#define fselch16.218pk_18_yoff 	 0
static char fselch16.218pk_18_bits[] = {
   0x84,  0x10,  0x42,  0x08,  0x21,  0x84, 
   0x42,  0x08,  0x01,  0x84,  0x10,  0x42, 
   0x21,  0x84,  0x00,  0x40,  0x08,  0x21, 
   0x10,  0x42,  0xe0,  0x23,  0x84,  0x10, 
   0x08,  0x21,  0x10,  0x04,  0x42,  0x08, 
   0x84,  0x10,  0x08,  0x08,  0x21,  0x84, 
   0x42,  0x08,  0x04,  0x90,  0x10,  0x42, 
   0x21,  0x84,  0x04,  0x10,  0x08,  0x21, 
   0x10,  0x42,  0x04,  0x10,  0x84,  0x10, 
   0x08,  0x21,  0x04,  0x10,  0x42,  0x08, 
   0x84,  0x10,  0x04,  0x10,  0x21,  0x84, 
   0x42,  0x08,  0x08,  0x08,  0x10,  0x42, 
   0x21,  0x04,  0x30,  0x06,  0x08,  0x21, 
   0x10,  0x02,  0x0c,  0x18,  0x84,  0x10, 
   0x08,  0x01,  0x02,  0x20,  0x40,  0x08, 
   0x84,  0x00,  0x01,  0x40,  0x20,  0x84, 
   0x42,  0x08,  0x01,  0x40,  0x10,  0x42, 
   0x21,  0x84,  0x00,  0x80,  0x08,  0x21, 
   0x10,  0x82,  0x00,  0x80,  0x80,  0x10, 
   0x08,  0x81,  0x00,  0x80,  0x40,  0x08, 
   0x84,  0x80,  0x00,  0x80,  0x20,  0x84, 
   0x42,  0x88,  0x00,  0x80,  0x10,  0x42, 
   0x21,  0x04,  0x01,  0x40,  0x08,  0x21, 
   0x10,  0x02,  0x01,  0x40,  0x84,  0x10, 
   0x08,  0x21,  0x06,  0x30,  0x42,  0x08, 
   0x84,  0x10,  0x18,  0x0c,  0x20,  0x84, 
   0x42,  0x08,  0x06,  0x30,  0x10,  0x42, 
   0x21,  0x84,  0x01,  0xc0,  0x00,  0x21, 
   0x10,  0x42,  0x00,  0x00,  0x81,  0x10, 
   0x08,  0x21,  0x00,  0x00,  0x42,  0x08, 
   0x84,  0x10,  0x00,  0x00,  0x04,  0x84, 
   0x42,  0x10,  0x00,  0x00,  0x04,  0x42, 
   0x21,  0x08,  0x00,  0x00,  0x08,  0x21, 
   0x10,  0x08,  0x00,  0x00,  0x88,  0x10, 
   0x08,  0x04,  0x00,  0x00,  0x10,  0x08, 
   0x84,  0x04,  0x00,  0x00,  0x10,  0x84, 
   0x42,  0x04,  0x00,  0x00,  0x10,  0x42, 
   0x21,  0x02,  0x00,  0x00,  0x20,  0x21, 
   0x10,  0x02,  0x00,  0x00,  0x20,  0x10, 
   0x08,  0x02,  0x00,  0x00,  0x20,  0x08, 
   0x04,  0x02,  0x00,  0x00,  0x20,  0x84, 
   0x42,  0xfe,  0xff,  0xff,  0x3f,  0x42, 
   0x21,  0x00,  0x00,  0x00,  0x00,  0x21, 
   0x10,  0x00,  0x00,  0x00,  0x00,  0x10, 
   0x08,  0x01,  0x00,  0x00,  0x00,  0x08, 
   0x84,  0x10,  0x42,  0x08,  0x21,  0x84, 
   0x42,  0x08,  0x21,  0x84,  0x10,  0x42, 
   0x21,  0x84,  0x10,  0x42,  0x08,  0x21, };
