<?xml version="1.0" standalone="no"?>
<!DOCTYPE svg PUBLIC "-//W3C//DTD SVG 1.1//EN" "http://www.w3.org/Graphics/SVG/1.1/DTD/svg11.dtd">

<svg width="800" height="600" version="1.1" xmlns="http://www.w3.org/2000/svg">
	<ellipse stroke="black" stroke-width="1" fill="none" cx="669.5" cy="39.5" rx="30" ry="30"/>
	<text x="662.5" y="45.5" font-family="Times New Roman" font-size="20">V</text>
	<ellipse stroke="black" stroke-width="1" fill="none" cx="669.5" cy="39.5" rx="24" ry="24"/>
	<ellipse stroke="black" stroke-width="1" fill="none" cx="759.5" cy="125.5" rx="30" ry="30"/>
	<text x="756.5" y="131.5" font-family="Times New Roman" font-size="20">I</text>
	<ellipse stroke="black" stroke-width="1" fill="none" cx="759.5" cy="125.5" rx="24" ry="24"/>
	<ellipse stroke="black" stroke-width="1" fill="none" cx="584.5" cy="125.5" rx="30" ry="30"/>
	<text x="581.5" y="131.5" font-family="Times New Roman" font-size="20">I</text>
	<ellipse stroke="black" stroke-width="1" fill="none" cx="584.5" cy="125.5" rx="24" ry="24"/>
	<ellipse stroke="black" stroke-width="1" fill="none" cx="759.5" cy="223.5" rx="30" ry="30"/>
	<text x="756.5" y="229.5" font-family="Times New Roman" font-size="20">I</text>
	<ellipse stroke="black" stroke-width="1" fill="none" cx="759.5" cy="223.5" rx="24" ry="24"/>
	<ellipse stroke="black" stroke-width="1" fill="none" cx="669.5" cy="223.5" rx="30" ry="30"/>
	<text x="662.5" y="229.5" font-family="Times New Roman" font-size="20">V</text>
	<ellipse stroke="black" stroke-width="1" fill="none" cx="669.5" cy="223.5" rx="24" ry="24"/>
	<ellipse stroke="black" stroke-width="1" fill="none" cx="584.5" cy="39.5" rx="30" ry="30"/>
	<text x="565.5" y="45.5" font-family="Times New Roman" font-size="20">S&#8321;_&#8329;</text>
	<ellipse stroke="black" stroke-width="1" fill="none" cx="584.5" cy="223.5" rx="30" ry="30"/>
	<text x="577.5" y="229.5" font-family="Times New Roman" font-size="20">X</text>
	<ellipse stroke="black" stroke-width="1" fill="none" cx="584.5" cy="223.5" rx="24" ry="24"/>
	<ellipse stroke="black" stroke-width="1" fill="none" cx="759.5" cy="315.5" rx="30" ry="30"/>
	<text x="756.5" y="321.5" font-family="Times New Roman" font-size="20">I</text>
	<ellipse stroke="black" stroke-width="1" fill="none" cx="759.5" cy="315.5" rx="24" ry="24"/>
	<ellipse stroke="black" stroke-width="1" fill="none" cx="394.5" cy="264.5" rx="30" ry="30"/>
	<text x="367.5" y="270.5" font-family="Times New Roman" font-size="20">S&#8321;&#8320;_&#8329;&#8329;</text>
	<ellipse stroke="black" stroke-width="1" fill="none" cx="555.5" cy="354.5" rx="30" ry="30"/>
	<text x="548.5" y="360.5" font-family="Times New Roman" font-size="20">X</text>
	<ellipse stroke="black" stroke-width="1" fill="none" cx="555.5" cy="354.5" rx="24" ry="24"/>
	<ellipse stroke="black" stroke-width="1" fill="none" cx="646.5" cy="354.5" rx="30" ry="30"/>
	<text x="627.5" y="360.5" font-family="Times New Roman" font-size="20">S&#8321;_&#8329;</text>
	<ellipse stroke="black" stroke-width="1" fill="none" cx="555.5" cy="454.5" rx="30" ry="30"/>
	<text x="548.5" y="460.5" font-family="Times New Roman" font-size="20">X</text>
	<ellipse stroke="black" stroke-width="1" fill="none" cx="555.5" cy="454.5" rx="24" ry="24"/>
	<ellipse stroke="black" stroke-width="1" fill="none" cx="555.5" cy="551.5" rx="30" ry="30"/>
	<text x="548.5" y="557.5" font-family="Times New Roman" font-size="20">X</text>
	<ellipse stroke="black" stroke-width="1" fill="none" cx="555.5" cy="551.5" rx="24" ry="24"/>
	<ellipse stroke="black" stroke-width="1" fill="none" cx="473.5" cy="264.5" rx="30" ry="30"/>
	<text x="467.5" y="270.5" font-family="Times New Roman" font-size="20">L</text>
	<ellipse stroke="black" stroke-width="1" fill="none" cx="473.5" cy="264.5" rx="24" ry="24"/>
	<ellipse stroke="black" stroke-width="1" fill="none" cx="394.5" cy="354.5" rx="30" ry="30"/>
	<text x="387.5" y="360.5" font-family="Times New Roman" font-size="20">X</text>
	<ellipse stroke="black" stroke-width="1" fill="none" cx="394.5" cy="354.5" rx="24" ry="24"/>
	<ellipse stroke="black" stroke-width="1" fill="none" cx="473.5" cy="454.5" rx="30" ry="30"/>
	<text x="467.5" y="460.5" font-family="Times New Roman" font-size="20">L</text>
	<ellipse stroke="black" stroke-width="1" fill="none" cx="473.5" cy="454.5" rx="24" ry="24"/>
	<ellipse stroke="black" stroke-width="1" fill="none" cx="394.5" cy="454.5" rx="30" ry="30"/>
	<text x="387.5" y="460.5" font-family="Times New Roman" font-size="20">C</text>
	<ellipse stroke="black" stroke-width="1" fill="none" cx="394.5" cy="454.5" rx="24" ry="24"/>
	<ellipse stroke="black" stroke-width="1" fill="none" cx="394.5" cy="551.5" rx="30" ry="30"/>
	<text x="375.5" y="557.5" font-family="Times New Roman" font-size="20">S&#8321;_&#8329;</text>
	<ellipse stroke="black" stroke-width="1" fill="none" cx="46.5" cy="264.5" rx="30" ry="30"/>
	<text x="10.5" y="270.5" font-family="Times New Roman" font-size="20">S&#8321;&#8320;&#8320;_&#8329;&#8329;&#8329;</text>
	<ellipse stroke="black" stroke-width="1" fill="none" cx="128.5" cy="264.5" rx="30" ry="30"/>
	<text x="121.5" y="270.5" font-family="Times New Roman" font-size="20">D</text>
	<ellipse stroke="black" stroke-width="1" fill="none" cx="128.5" cy="264.5" rx="24" ry="24"/>
	<ellipse stroke="black" stroke-width="1" fill="none" cx="473.5" cy="187.5" rx="30" ry="30"/>
	<text x="454.5" y="193.5" font-family="Times New Roman" font-size="20">S&#8321;_&#8329;</text>
	<ellipse stroke="black" stroke-width="1" fill="none" cx="210.5" cy="354.5" rx="30" ry="30"/>
	<text x="203.5" y="360.5" font-family="Times New Roman" font-size="20">C</text>
	<ellipse stroke="black" stroke-width="1" fill="none" cx="210.5" cy="354.5" rx="24" ry="24"/>
	<ellipse stroke="black" stroke-width="1" fill="none" cx="210.5" cy="454.5" rx="30" ry="30"/>
	<text x="203.5" y="460.5" font-family="Times New Roman" font-size="20">C</text>
	<ellipse stroke="black" stroke-width="1" fill="none" cx="210.5" cy="454.5" rx="24" ry="24"/>
	<ellipse stroke="black" stroke-width="1" fill="none" cx="210.5" cy="551.5" rx="30" ry="30"/>
	<text x="203.5" y="557.5" font-family="Times New Roman" font-size="20">C</text>
	<ellipse stroke="black" stroke-width="1" fill="none" cx="210.5" cy="551.5" rx="24" ry="24"/>
	<ellipse stroke="black" stroke-width="1" fill="none" cx="128.5" cy="454.5" rx="30" ry="30"/>
	<text x="121.5" y="460.5" font-family="Times New Roman" font-size="20">D</text>
	<ellipse stroke="black" stroke-width="1" fill="none" cx="128.5" cy="454.5" rx="24" ry="24"/>
	<ellipse stroke="black" stroke-width="1" fill="none" cx="46.5" cy="354.5" rx="30" ry="30"/>
	<text x="39.5" y="360.5" font-family="Times New Roman" font-size="20">C</text>
	<ellipse stroke="black" stroke-width="1" fill="none" cx="46.5" cy="354.5" rx="24" ry="24"/>
	<ellipse stroke="black" stroke-width="1" fill="none" cx="46.5" cy="454.5" rx="30" ry="30"/>
	<text x="37.5" y="460.5" font-family="Times New Roman" font-size="20">M</text>
	<ellipse stroke="black" stroke-width="1" fill="none" cx="46.5" cy="454.5" rx="24" ry="24"/>
	<ellipse stroke="black" stroke-width="1" fill="none" cx="298.5" cy="354.5" rx="30" ry="30"/>
	<text x="271.5" y="360.5" font-family="Times New Roman" font-size="20">S&#8321;&#8320;_&#8329;&#8329;</text>
	<ellipse stroke="black" stroke-width="1" fill="none" cx="46.5" cy="551.5" rx="30" ry="30"/>
	<text x="19.5" y="557.5" font-family="Times New Roman" font-size="20">S&#8321;&#8320;_&#8329;&#8329;</text>
	<ellipse stroke="black" stroke-width="1" fill="none" cx="128.5" cy="180.5" rx="30" ry="30"/>
	<text x="101.5" y="186.5" font-family="Times New Roman" font-size="20">S&#8321;&#8320;_&#8329;&#8329;</text>
	<ellipse stroke="black" stroke-width="1" fill="none" cx="298.5" cy="39.5" rx="30" ry="30"/>
	<text x="276.5" y="45.5" font-family="Times New Roman" font-size="20">S&#8321;&#8320;&#8320;&#8320;</text>
	<ellipse stroke="black" stroke-width="1" fill="none" cx="298.5" cy="135.5" rx="30" ry="30"/>
	<text x="289.5" y="141.5" font-family="Times New Roman" font-size="20">M</text>
	<ellipse stroke="black" stroke-width="1" fill="none" cx="298.5" cy="135.5" rx="24" ry="24"/>
	<ellipse stroke="black" stroke-width="1" fill="none" cx="422.5" cy="39.5" rx="30" ry="30"/>
	<text x="386.5" y="45.5" font-family="Times New Roman" font-size="20">S&#8321;&#8320;&#8320;_&#8329;&#8329;&#8329;</text>
	<polygon stroke="black" stroke-width="1" points="691.19,60.226 737.81,104.774"/>
	<polygon fill="black" stroke-width="1" points="737.81,104.774 735.481,95.632 728.572,102.862"/>
	<polygon stroke="black" stroke-width="1" points="610.675,140.158 733.325,208.842"/>
	<polygon fill="black" stroke-width="1" points="733.325,208.842 728.788,200.571 723.902,209.296"/>
	<polygon stroke="black" stroke-width="1" points="604.157,148.163 649.843,200.837"/>
	<polygon fill="black" stroke-width="1" points="649.843,200.837 648.379,191.517 640.824,198.07"/>
	<polygon stroke="black" stroke-width="1" points="584.5,69.5 584.5,95.5"/>
	<polygon fill="black" stroke-width="1" points="584.5,95.5 589.5,87.5 579.5,87.5"/>
	<polygon stroke="black" stroke-width="1" points="614.5,39.5 639.5,39.5"/>
	<polygon fill="black" stroke-width="1" points="639.5,39.5 631.5,34.5 631.5,44.5"/>
	<polygon stroke="black" stroke-width="1" points="584.5,155.5 584.5,193.5"/>
	<polygon fill="black" stroke-width="1" points="584.5,193.5 589.5,185.5 579.5,185.5"/>
	<polygon stroke="black" stroke-width="1" points="759.5,155.5 759.5,193.5"/>
	<polygon fill="black" stroke-width="1" points="759.5,193.5 764.5,185.5 754.5,185.5"/>
	<polygon stroke="black" stroke-width="1" points="759.5,253.5 759.5,285.5"/>
	<polygon fill="black" stroke-width="1" points="759.5,285.5 764.5,277.5 754.5,277.5"/>
	<polygon stroke="black" stroke-width="1" points="585.5,354.5 616.5,354.5"/>
	<polygon fill="black" stroke-width="1" points="616.5,354.5 608.5,349.5 608.5,359.5"/>
	<polygon stroke="black" stroke-width="1" points="575.691,432.312 626.309,376.688"/>
	<polygon fill="black" stroke-width="1" points="626.309,376.688 617.226,379.24 624.622,385.97"/>
	<polygon stroke="black" stroke-width="1" points="568.081,524.265 633.919,381.735"/>
	<polygon fill="black" stroke-width="1" points="633.919,381.735 626.026,386.901 635.104,391.094"/>
	<polygon stroke="black" stroke-width="1" points="555.5,384.5 555.5,424.5"/>
	<polygon fill="black" stroke-width="1" points="555.5,424.5 560.5,416.5 550.5,416.5"/>
	<polygon stroke="black" stroke-width="1" points="555.5,484.5 555.5,521.5"/>
	<polygon fill="black" stroke-width="1" points="555.5,521.5 560.5,513.5 550.5,513.5"/>
	<polygon stroke="black" stroke-width="1" points="424.5,264.5 443.5,264.5"/>
	<polygon fill="black" stroke-width="1" points="443.5,264.5 435.5,259.5 435.5,269.5"/>
	<polygon stroke="black" stroke-width="1" points="493.705,286.676 535.295,332.324"/>
	<polygon fill="black" stroke-width="1" points="535.295,332.324 533.603,323.043 526.211,329.778"/>
	<polygon stroke="black" stroke-width="1" points="394.5,294.5 394.5,324.5"/>
	<polygon fill="black" stroke-width="1" points="394.5,324.5 399.5,316.5 389.5,316.5"/>
	<polygon stroke="black" stroke-width="1" points="419.984,370.329 530.016,438.671"/>
	<polygon fill="black" stroke-width="1" points="530.016,438.671 525.858,430.203 520.582,438.698"/>
	<polygon stroke="black" stroke-width="1" points="413.097,378.04 454.903,430.96"/>
	<polygon fill="black" stroke-width="1" points="454.903,430.96 453.867,421.583 446.02,427.782"/>
	<polygon stroke="black" stroke-width="1" points="394.5,384.5 394.5,424.5"/>
	<polygon fill="black" stroke-width="1" points="394.5,424.5 399.5,416.5 389.5,416.5"/>
	<polygon stroke="black" stroke-width="1" points="454.555,477.761 413.445,528.239"/>
	<polygon fill="black" stroke-width="1" points="413.445,528.239 422.374,525.193 414.62,518.878"/>
	<polygon stroke="black" stroke-width="1" points="394.5,484.5 394.5,521.5"/>
	<polygon fill="black" stroke-width="1" points="394.5,521.5 399.5,513.5 389.5,513.5"/>
	<polygon stroke="black" stroke-width="1" points="415.983,243.56 452.017,208.44"/>
	<polygon fill="black" stroke-width="1" points="452.017,208.44 442.798,210.443 449.778,217.604"/>
	<polygon stroke="black" stroke-width="1" points="76.5,264.5 98.5,264.5"/>
	<polygon fill="black" stroke-width="1" points="98.5,264.5 90.5,259.5 90.5,269.5"/>
	<polygon stroke="black" stroke-width="1" points="148.705,286.676 190.295,332.324"/>
	<polygon fill="black" stroke-width="1" points="190.295,332.324 188.603,323.043 181.211,329.778"/>
	<polygon stroke="black" stroke-width="1" points="240.5,354.5 268.5,354.5"/>
	<polygon fill="black" stroke-width="1" points="268.5,354.5 260.5,349.5 260.5,359.5"/>
	<polygon stroke="black" stroke-width="1" points="155.014,278.537 271.986,340.463"/>
	<polygon fill="black" stroke-width="1" points="271.986,340.463 267.255,332.301 262.577,341.139"/>
	<polygon stroke="black" stroke-width="1" points="210.5,384.5 210.5,424.5"/>
	<polygon fill="black" stroke-width="1" points="210.5,424.5 215.5,416.5 205.5,416.5"/>
	<polygon stroke="black" stroke-width="1" points="210.5,484.5 210.5,521.5"/>
	<polygon fill="black" stroke-width="1" points="210.5,521.5 215.5,513.5 205.5,513.5"/>
	<polygon stroke="black" stroke-width="1" points="230.319,431.979 278.681,377.021"/>
	<polygon fill="black" stroke-width="1" points="278.681,377.021 269.643,379.724 277.15,386.33"/>
	<polygon stroke="black" stroke-width="1" points="222.736,524.109 286.264,381.891"/>
	<polygon fill="black" stroke-width="1" points="286.264,381.891 278.436,387.156 287.567,391.235"/>
	<polygon stroke="black" stroke-width="1" points="46.5,294.5 46.5,324.5"/>
	<polygon fill="black" stroke-width="1" points="46.5,324.5 51.5,316.5 41.5,316.5"/>
	<polygon stroke="black" stroke-width="1" points="46.5,384.5 46.5,424.5"/>
	<polygon fill="black" stroke-width="1" points="46.5,424.5 51.5,416.5 41.5,416.5"/>
	<polygon stroke="black" stroke-width="1" points="65.522,377.698 109.478,431.302"/>
	<polygon fill="black" stroke-width="1" points="109.478,431.302 108.271,421.945 100.539,428.286"/>
	<polygon stroke="black" stroke-width="1" points="109.132,477.411 65.868,528.589"/>
	<polygon fill="black" stroke-width="1" points="65.868,528.589 74.851,525.708 67.214,519.252"/>
	<polygon stroke="black" stroke-width="1" points="46.5,484.5 46.5,521.5"/>
	<polygon fill="black" stroke-width="1" points="46.5,521.5 51.5,513.5 41.5,513.5"/>
	<polygon stroke="black" stroke-width="1" points="67.456,243.033 107.544,201.967"/>
	<polygon fill="black" stroke-width="1" points="107.544,201.967 98.378,204.199 105.533,211.185"/>
	<polygon stroke="black" stroke-width="1" points="298.5,69.5 298.5,105.5"/>
	<polygon fill="black" stroke-width="1" points="298.5,105.5 303.5,97.5 293.5,97.5"/>
	<path stroke="black" stroke-width="1" fill="none" d="M 311.725,162.297 A 22.5,22.5 0 1 1 285.275,162.297"/>
	<text x="287.5" y="224.5" font-family="Times New Roman" font-size="20">inf</text>
	<polygon fill="black" stroke-width="1" points="285.275,162.297 276.527,165.83 284.618,171.708"/>
	<polygon stroke="black" stroke-width="1" points="328.5,39.5 392.5,39.5"/>
	<polygon fill="black" stroke-width="1" points="392.5,39.5 384.5,34.5 384.5,44.5"/>
	<polygon stroke="black" stroke-width="1" points="322.222,117.135 398.778,57.865"/>
	<polygon fill="black" stroke-width="1" points="398.778,57.865 389.392,58.809 395.513,66.716"/>
	<polygon stroke="black" stroke-width="1" points="500.114,278.345 619.886,340.655"/>
	<polygon fill="black" stroke-width="1" points="619.886,340.655 615.097,332.527 610.481,341.398"/>
	<polygon stroke="black" stroke-width="1" points="72.114,370.118 184.886,438.882"/>
	<polygon fill="black" stroke-width="1" points="184.886,438.882 180.659,430.448 175.453,438.986"/>
</svg>
