
#define fselch12.264pk_108_width 	 27
#define fselch12.264pk_108_height 	 35
#define fselch12.264pk_108_xoff 	 0
#define fselch12.264pk_108_yoff 	 0
static char fselch12.264pk_108_bits[] = {
   0xff,  0xff,  0xff,  0x07, 
   0x01,  0x00,  0x00,  0x04, 
   0x01,  0x00,  0x00,  0x04, 
   0x01,  0x00,  0x00,  0x04, 
   0x01,  0x00,  0x00,  0x04, 
   0x01,  0x00,  0x00,  0x04, 
   0x02,  0x00,  0x00,  0x02, 
   0x02,  0x00,  0x00,  0x02, 
   0x02,  0x00,  0x00,  0x02, 
   0x04,  0x00,  0x00,  0x01, 
   0x04,  0x00,  0x00,  0x01, 
   0x08,  0x00,  0x80,  0x00, 
   0x10,  0x00,  0x40,  0x00, 
   0x60,  0x00,  0x30,  0x00, 
   0x80,  0x01,  0x0c,  0x00, 
   0x00,  0x06,  0x03,  0x00, 
   0x00,  0x01,  0x04,  0x00, 
   0x80,  0x00,  0x08,  0x00, 
   0x80,  0x00,  0x08,  0x00, 
   0x40,  0x00,  0x10,  0x00, 
   0x40,  0x00,  0x10,  0x00, 
   0x40,  0x00,  0x10,  0x00, 
   0x40,  0x00,  0x10,  0x00, 
   0x40,  0x00,  0x10,  0x00, 
   0x80,  0x00,  0x08,  0x00, 
   0x80,  0x00,  0x08,  0x00, 
   0x00,  0x03,  0x06,  0x00, 
   0x00,  0x8c,  0x01,  0x00, 
   0x00,  0x04,  0x01,  0x00, 
   0x00,  0x02,  0x02,  0x00, 
   0x00,  0x02,  0x02,  0x00, 
   0x00,  0x02,  0x02,  0x00, 
   0x00,  0x02,  0x02,  0x00, 
   0x00,  0x04,  0x01,  0x00, 
   0x00,  0xf8,  0x00,  0x00, };
