#define fselch12.264pk_ê_width 	 44
#define fselch12.264pk_ê_height 	 44
#define fselch12.264pk_ê_xoff 	 0
#define fselch12.264pk_ê_yoff 	 0
static char fselch12.264pk_ê_bits[] = {
   0x08,  0x21,  0x84,  0x10,  0x42,  0x08, 
   0x84,  0x10,  0x42,  0x08,  0x21,  0x04, 
   0x42,  0x08,  0x21,  0x84,  0x10,  0x02, 
   0x21,  0x84,  0x10,  0x42,  0x08,  0x01, 
   0x10,  0x42,  0x08,  0x21,  0x84,  0x00, 
   0x08,  0x21,  0x84,  0x10,  0x02,  0x08, 
   0x04,  0x10,  0x42,  0x08,  0x01,  0x04, 
   0x62,  0x08,  0x21,  0x84,  0xc0,  0x00, 
   0xa1,  0x80,  0x10,  0x42,  0xa0,  0x00, 
   0x20,  0x41,  0x08,  0x20,  0x90,  0x00, 
   0x20,  0x03,  0x04,  0x10,  0x98,  0x08, 
   0x24,  0x0d,  0xe2,  0x08,  0x96,  0x04, 
   0x22,  0x11,  0xa1,  0x04,  0x91,  0x00, 
   0x21,  0x21,  0xa0,  0x80,  0x90,  0x00, 
   0x20,  0x41,  0xa0,  0x40,  0x90,  0x00, 
   0x20,  0x81,  0xa1,  0x30,  0x90,  0x08, 
   0x24,  0x01,  0xa2,  0x08,  0x90,  0x04, 
   0x22,  0x01,  0xa4,  0x04,  0x90,  0x00, 
   0x21,  0x01,  0xb8,  0x03,  0x90,  0x00, 
   0x20,  0x01,  0xa0,  0x00,  0x90,  0x00, 
   0x20,  0x01,  0xa0,  0x00,  0x90,  0x08, 
   0x24,  0x01,  0xa0,  0x00,  0x90,  0x04, 
   0x22,  0x01,  0xb8,  0x03,  0x90,  0x00, 
   0x21,  0x01,  0xa4,  0x04,  0x90,  0x00, 
   0x20,  0x01,  0xa2,  0x08,  0x90,  0x00, 
   0x20,  0x81,  0xa1,  0x30,  0x90,  0x08, 
   0x24,  0x41,  0xa0,  0x40,  0x90,  0x04, 
   0x22,  0x21,  0xa0,  0x84,  0x90,  0x00, 
   0x21,  0x11,  0xa0,  0x00,  0x91,  0x00, 
   0x20,  0x0d,  0xe0,  0x20,  0x96,  0x00, 
   0x20,  0x03,  0x04,  0x10,  0x98,  0x08, 
   0x24,  0x11,  0x02,  0x08,  0x91,  0x04, 
   0xa2,  0x08,  0x21,  0x84,  0xa0,  0x00, 
   0x61,  0x84,  0x10,  0x42,  0xc0,  0x00, 
   0x00,  0x42,  0x08,  0x21,  0x04,  0x00, 
   0x08,  0x21,  0x84,  0x10,  0x02,  0x08, 
   0x84,  0x10,  0x42,  0x08,  0x21,  0x04, 
   0x42,  0x08,  0x21,  0x84,  0x10,  0x02, 
   0x21,  0x84,  0x10,  0x42,  0x08,  0x01, 
   0x10,  0x42,  0x08,  0x21,  0x84,  0x00, 
   0x08,  0x21,  0x84,  0x10,  0x42,  0x08, 
   0x84,  0x10,  0x42,  0x08,  0x21,  0x04, 
   0x42,  0x08,  0x21,  0x84,  0x10,  0x02, 
   0x21,  0x84,  0x10,  0x42,  0x08,  0x01, };
