
#define fselch12.264pk_39_width 	 35
#define fselch12.264pk_39_height 	 31
#define fselch12.264pk_39_xoff 	 0
#define fselch12.264pk_39_yoff 	 0
static char fselch12.264pk_39_bits[] = {
   0x00,  0x00,  0x00,  0x80,  0x07, 
   0x00,  0x00,  0x00,  0x80,  0x04, 
   0x00,  0x00,  0x00,  0x80,  0x04, 
   0x7f,  0x00,  0x00,  0xfc,  0x04, 
   0xc1,  0x00,  0x00,  0x84,  0x04, 
   0x41,  0x01,  0x00,  0x86,  0x04, 
   0x41,  0x01,  0x00,  0x85,  0x04, 
   0x41,  0xfe,  0xff,  0x84,  0x04, 
   0x4f,  0x02,  0x80,  0x84,  0x04, 
   0x48,  0x02,  0x80,  0x84,  0x04, 
   0x48,  0x02,  0x80,  0x84,  0x04, 
   0x48,  0x02,  0x80,  0x84,  0x04, 
   0x48,  0x02,  0x80,  0x84,  0x04, 
   0x4f,  0x02,  0x80,  0x84,  0x04, 
   0x41,  0x02,  0x80,  0x84,  0x04, 
   0x41,  0x02,  0x80,  0x84,  0x04, 
   0x41,  0x02,  0x80,  0x84,  0x04, 
   0x4f,  0x02,  0x80,  0x84,  0x04, 
   0x48,  0x02,  0x80,  0x84,  0x04, 
   0x48,  0x02,  0x80,  0x84,  0x04, 
   0x48,  0x02,  0x80,  0x84,  0x04, 
   0x48,  0x02,  0x80,  0x84,  0x04, 
   0x4f,  0x02,  0x80,  0x84,  0x04, 
   0x41,  0xfe,  0xff,  0x84,  0x04, 
   0x41,  0x01,  0x00,  0x85,  0x04, 
   0x41,  0x01,  0x00,  0x86,  0x04, 
   0xc1,  0x00,  0x00,  0x84,  0x04, 
   0x7f,  0x00,  0x00,  0xfc,  0x04, 
   0x00,  0x00,  0x00,  0x80,  0x04, 
   0x00,  0x00,  0x00,  0x80,  0x04, 
   0x00,  0x00,  0x00,  0x80,  0x07, };
