
#define fselch12.264pk_73_width 	 36
#define fselch12.264pk_73_height 	 37
#define fselch12.264pk_73_xoff 	 0
#define fselch12.264pk_73_yoff 	 0
static char fselch12.264pk_73_bits[] = {
   0x00,  0x78,  0x00,  0x00,  0x00, 
   0x00,  0x84,  0x01,  0x00,  0x00, 
   0x00,  0x02,  0x06,  0x00,  0x00, 
   0x00,  0xe2,  0x08,  0x00,  0x00, 
   0x00,  0xc2,  0x30,  0x00,  0x00, 
   0x00,  0x06,  0xc0,  0x03,  0x00, 
   0x00,  0x19,  0x00,  0x1c,  0x00, 
   0x00,  0x03,  0x00,  0x20,  0x00, 
   0x00,  0x04,  0x00,  0x43,  0x0f, 
   0x00,  0x08,  0x00,  0x86,  0x08, 
   0x07,  0x10,  0x00,  0x04,  0x04, 
   0x19,  0x20,  0x00,  0x48,  0x04, 
   0x21,  0x40,  0x00,  0x80,  0x02, 
   0x41,  0x40,  0x00,  0x00,  0x01, 
   0x81,  0x80,  0x00,  0x80,  0x01, 
   0x01,  0x83,  0x00,  0x00,  0x06, 
   0x01,  0x04,  0x01,  0x00,  0x08, 
   0x01,  0x08,  0x01,  0x00,  0x08, 
   0x01,  0x30,  0x02,  0x80,  0x07, 
   0x01,  0xc0,  0x0f,  0x00,  0x01, 
   0x01,  0x00,  0xf0,  0x00,  0x01, 
   0x01,  0x00,  0x00,  0x00,  0x01, 
   0x01,  0x00,  0x00,  0x80,  0x00, 
   0x01,  0x00,  0x00,  0x80,  0x00, 
   0x01,  0x00,  0x00,  0x40,  0x00, 
   0x01,  0x00,  0x00,  0x40,  0x00, 
   0x01,  0x00,  0x00,  0x20,  0x00, 
   0x01,  0x00,  0x00,  0x30,  0x00, 
   0x01,  0x00,  0x00,  0x18,  0x00, 
   0x01,  0x00,  0x00,  0x0c,  0x00, 
   0x01,  0x00,  0x00,  0x07,  0x00, 
   0x01,  0x00,  0xc0,  0x01,  0x00, 
   0x01,  0x00,  0x78,  0x00,  0x00, 
   0x01,  0x80,  0x1f,  0x00,  0x00, 
   0x01,  0xfc,  0x07,  0x00,  0x00, 
   0xff,  0x7f,  0x00,  0x00,  0x00, 
   0xff,  0x01,  0x00,  0x00,  0x00, };
