#define fselch8.285pk_18_width 	 32
#define fselch8.285pk_18_height 	 32
#define fselch8.285pk_18_xoff 	 0
#define fselch8.285pk_18_yoff 	 0
static char fselch8.285pk_18_bits[] = {
   0x92,  0x24,  0x49,  0x92, 
   0x49,  0x92,  0x24,  0x49, 
   0x24,  0x49,  0x92,  0x24, 
   0x92,  0x24,  0x48,  0x92, 
   0x49,  0x92,  0x23,  0x49, 
   0x24,  0x49,  0x84,  0x24, 
   0x92,  0x24,  0x48,  0x92, 
   0x49,  0x22,  0x28,  0x49, 
   0x24,  0x29,  0x88,  0x24, 
   0x92,  0xe4,  0x0e,  0x92, 
   0x49,  0x12,  0x10,  0x49, 
   0x24,  0x09,  0x20,  0x24, 
   0x92,  0x08,  0x20,  0x92, 
   0x49,  0x08,  0x20,  0x49, 
   0x24,  0x09,  0x20,  0x24, 
   0x92,  0x08,  0x20,  0x92, 
   0x49,  0x10,  0x10,  0x49, 
   0x24,  0x31,  0x98,  0x24, 
   0x92,  0x08,  0x20,  0x92, 
   0x49,  0x04,  0x40,  0x49, 
   0x24,  0x02,  0x80,  0x24, 
   0x12,  0x01,  0x00,  0x91, 
   0x49,  0x01,  0x00,  0x49, 
   0x24,  0x01,  0x00,  0x25, 
   0x92,  0x00,  0x00,  0x92, 
   0x89,  0x00,  0x00,  0x4a, 
   0xa4,  0x00,  0x00,  0x22, 
   0x92,  0xff,  0xff,  0x93, 
   0x09,  0x00,  0x00,  0x48, 
   0x24,  0x00,  0x00,  0x24, 
   0x92,  0x24,  0x49,  0x92, 
   0x49,  0x92,  0x24,  0x49, };
