<?xml version="1.0" encoding="UTF-8" standalone="no"?>
<!-- Created with Inkscape (http://www.inkscape.org/) -->

<svg
   xmlns:dc="http://purl.org/dc/elements/1.1/"
   xmlns:cc="http://creativecommons.org/ns#"
   xmlns:rdf="http://www.w3.org/1999/02/22-rdf-syntax-ns#"
   xmlns:svg="http://www.w3.org/2000/svg"
   xmlns="http://www.w3.org/2000/svg"
   xmlns:sodipodi="http://sodipodi.sourceforge.net/DTD/sodipodi-0.dtd"
   xmlns:inkscape="http://www.inkscape.org/namespaces/inkscape"
   width="99.018425"
   height="91.703064"
   id="svg2"
   version="1.1"
   inkscape:version="0.48.3.1 r9886"
   sodipodi:docname="OpenID.svg">
  <defs
     id="defs4">
    <clipPath
       id="clipPath2616">
      <path
         id="path2618"
         d="m 0,14400 14400,0 L 14400,0 0,0 0,14400 z"
         inkscape:connector-curvature="0" />
    </clipPath>
  </defs>
  <sodipodi:namedview
     id="base"
     pagecolor="#ffffff"
     bordercolor="#666666"
     borderopacity="1.0"
     inkscape:pageopacity="0.0"
     inkscape:pageshadow="2"
     inkscape:zoom="5.7468091"
     inkscape:cx="49.509212"
     inkscape:cy="45.851532"
     inkscape:document-units="px"
     inkscape:current-layer="layer1"
     showgrid="false"
     fit-margin-top="0"
     fit-margin-left="0"
     fit-margin-right="0"
     fit-margin-bottom="0"
     inkscape:window-width="1107"
     inkscape:window-height="729"
     inkscape:window-x="0"
     inkscape:window-y="18"
     inkscape:window-maximized="0" />
  <metadata
     id="metadata7">
    <rdf:RDF>
      <cc:Work
         rdf:about="">
        <dc:format>image/svg+xml</dc:format>
        <dc:type
           rdf:resource="http://purl.org/dc/dcmitype/StillImage" />
        <dc:title></dc:title>
      </cc:Work>
    </rdf:RDF>
  </metadata>
  <g
     inkscape:label="Calque 1"
     inkscape:groupmode="layer"
     id="layer1"
     transform="translate(-225.26992,-486.51068)">
    <g
       transform="matrix(0.46875,0,0,-0.46875,270.26992,493.83865)"
       id="g2604"
       style="fill:#444444;fill-opacity:1">
      <path
         inkscape:connector-curvature="0"
         d="M 0,0 0,-159.939 0,-180 32,-164.939 32,15.633 0,0 z"
         id="path2606"
         style="fill:#444444;fill-opacity:1;fill-rule:nonzero;stroke:none" />
    </g>
    <g
       transform="matrix(0.46875,0,0,-0.46875,322.21787,518.58855)"
       id="g2608"
       style="fill:#444444;fill-opacity:1">
      <path
         inkscape:connector-curvature="0"
         d="M 0,0 4.417,-45.864 -57.466,-32.4"
         id="path2610"
         style="fill:#444444;fill-opacity:1;fill-rule:nonzero;stroke:none" />
    </g>
    <g
       transform="matrix(0.46875,0,0,-0.46875,240.26992,546.10062)"
       id="g2620"
       style="fill:#444444;fill-opacity:1">
      <path
         inkscape:connector-curvature="0"
         d="m 0,0 c 0,22.674 24.707,41.769 58.383,47.598 l 0,20.325 C 6.873,61.697 -32,33.656 -32,0 -32,-34.869 9.725,-63.709 64,-68.508 l 0,20.061 C 27.484,-43.869 0,-23.919 0,0 m 101.617,67.915 0,-20.317 c 13.399,-2.319 25.385,-6.727 34.951,-12.64 l 22.627,13.984 c -15.42,9.531 -35.322,16.283 -57.578,18.973"
         id="path2622"
         style="fill:#444444;fill-opacity:1;fill-rule:nonzero;stroke:none" />
    </g>
  </g>
</svg>
