<?xml version="1.0" encoding="iso-8859-1" standalone="no"?><!DOCTYPE svg><!--Generated by Ulead PhotoImpact--><svg width="265px" height="232px">	<defs>		<linearGradient id="GRADIENTCOLOR8" x1="131" x2="131" y1="-60" y2="292" gradientUnits="userSpaceOnUse">			<stop style="stop-color:#ebe9e4" offset="0%"/>			<stop style="stop-color:#d4d0c8" offset="100%"/>		</linearGradient>		<linearGradient id="GRADIENTCOLOR10" x1="131" x2="131" y1="-43" y2="268" gradientUnits="userSpaceOnUse">			<stop style="stop-color:#545454" offset="0%"/>			<stop style="stop-color:#3b3b3b" offset="100%"/>		</linearGradient>	</defs>	<path d="m 71.7 225.45l 125.55 -0.54c -3.24 -37.24 -8.58 -70.91 -55.24 -101.51l -0.57 -6.84c -58.43 7.77 -73.43 16.11 -132.96 0.09l 63.23 108.8 z" id="PATH2" style="fill:#0085be;fill-rule:evenodd"/>	<path d="m 258.5 115.25l -62.5 -107.75c -24 16.5 -54 46.5 -59.9 97.45l -7.33 3.62c 42.48 52.68 52.48 43.18 67.48 117.18l 62.25 -110.5 z" id="PATH3" style="fill:#c03ec0;fill-rule:evenodd"/>	<path d="m 70.61 8.54l -62.3 109c 30.67 7.32 57.29 25.26 115.89 2.86l 5.84 2.98c 19.82 -60.59 9.79 -65.11 66.4 -115.19l -125.84 0.36 z" id="PATH4" style="fill:#65a300;fill-rule:evenodd"/>	<path d="m 70.61 8.54l -62.3 109c 30.67 7.32 57.29 25.26 115.89 2.86l 5.84 2.98c 19.82 -60.59 9.79 -65.11 66.4 -115.19l -125.84 0.36 z" id="PATH5" style="fill:#65a300;fill-rule:evenodd"/>	<path d="m 258.5 115.25l -62.5 -107.75c -24 16.5 -54 46.5 -59.9 97.45l -7.33 3.62c 42.48 52.68 52.48 43.18 67.48 117.18l 62.25 -110.5 z" id="PATH6" style="fill:#c03ec0;fill-rule:evenodd"/>	<path d="m 71.7 225.45l 125.55 -0.54c -3.24 -37.24 -8.58 -70.91 -55.24 -101.51l -0.57 -6.84c -58.43 7.77 -73.43 16.11 -132.96 0.09l 63.23 108.8 z" id="PATH7" style="fill:#0085be;fill-rule:evenodd"/>	<path d="m 131.9 188.37c -39.62 0 -71.73 -32.11 -71.73 -71.73 0 -39.62 32.11 -71.73 71.73 -71.73 39.62 0 71.73 32.11 71.73 71.73 0 39.62 -32.11 71.73 -71.73 71.73 z" id="PATH8" style="fill:url(#GRADIENTCOLOR8);fill-rule:evenodd"/>	<path d="m 99.6 164.09l 15.03 -39.74 -35.2 -23.19 41.92 2.21 10.88 -41.11 10.88 41.11 41.92 -2.22 -35.2 23.19 15.03 39.74 -32.63 -26.78 -32.63 26.78 z" id="PATH10" style="fill:url(#GRADIENTCOLOR10);fill-rule:evenodd"/></svg>