<?xml version="1.0" encoding="UTF-8" standalone="no"?>
<!-- Created with Inkscape (http://www.inkscape.org/) -->

<svg
   xmlns:dc="http://purl.org/dc/elements/1.1/"
   xmlns:cc="http://creativecommons.org/ns#"
   xmlns:rdf="http://www.w3.org/1999/02/22-rdf-syntax-ns#"
   xmlns:svg="http://www.w3.org/2000/svg"
   xmlns="http://www.w3.org/2000/svg"
   xmlns:sodipodi="http://sodipodi.sourceforge.net/DTD/sodipodi-0.dtd"
   xmlns:inkscape="http://www.inkscape.org/namespaces/inkscape"
   width="210mm"
   height="297mm"
   id="svg2"
   version="1.1"
   inkscape:version="0.48.5 r10040"
   sodipodi:docname="Nouveau document 1">
  <defs
     id="defs4" />
  <sodipodi:namedview
     id="base"
     pagecolor="#ffffff"
     bordercolor="#666666"
     borderopacity="1.0"
     inkscape:pageopacity="0.0"
     inkscape:pageshadow="2"
     inkscape:zoom="1.4"
     inkscape:cx="261.41125"
     inkscape:cy="748.11657"
     inkscape:document-units="px"
     inkscape:current-layer="layer1"
     showgrid="false"
     inkscape:window-width="1440"
     inkscape:window-height="834"
     inkscape:window-x="0"
     inkscape:window-y="27"
     inkscape:window-maximized="1" />
  <metadata
     id="metadata7">
    <rdf:RDF>
      <cc:Work
         rdf:about="">
        <dc:format>image/svg+xml</dc:format>
        <dc:type
           rdf:resource="http://purl.org/dc/dcmitype/StillImage" />
        <dc:title></dc:title>
      </cc:Work>
    </rdf:RDF>
  </metadata>
  <g
     inkscape:label="Calque 1"
     inkscape:groupmode="layer"
     id="layer1">
    <path
       style="fill:none;stroke:#000000;stroke-width:5;stroke-linecap:round;stroke-linejoin:round;stroke-opacity:1;stroke-miterlimit:4;stroke-dasharray:none;stroke-dashoffset:0;"
       d="m 157.85714,295.93361 c -2.29925,-2.29925 1.05101,1.38772 -0.71428,-2.14286 -1.47926,-2.95852 -5.0833,-4.65862 -5,-8.57143 -3.05638,-7.2589 -3.2408,-9.22643 -5,-17.14285 -0.73952,-3.32783 -1.66075,-6.62526 -2.14286,-10 -0.75259,-5.26813 -0.52904,-12.45994 -1.42857,-17.85715 -0.28496,-1.70977 -0.91882,-3.34329 -1.42857,-5 -0.44285,-1.43925 -0.95238,-2.85714 -1.42857,-4.28571 15.56757,-7.26487 5.94828,-3.19852 22.85714,-9.28571 1.91403,-0.68906 3.80248,-1.44766 5.71428,-2.14286 0.7076,-0.25731 1.41242,-0.53168 2.14286,-0.71429 0.29326,-0.0733 1.34199,0.0866 1.42857,0 0.95238,-0.95238 -1.19047,-0.71428 0.71429,-0.71428"
       id="path2987"
       inkscape:connector-curvature="0" />
    <path
       style="fill:none;stroke:#000000;stroke-width:5;stroke-linecap:round;stroke-linejoin:round;stroke-opacity:1;stroke-miterlimit:4;stroke-dasharray:none;stroke-dashoffset:0;"
       d="m 143.57143,249.50504 c 7.61905,0 15.23809,0 22.85714,0"
       id="path2989"
       inkscape:connector-curvature="0" />
    <path
       style="fill:none;stroke:#000000;stroke-width:5;stroke-linecap:round;stroke-linejoin:round;stroke-opacity:1;stroke-miterlimit:4;stroke-dasharray:none;stroke-dashoffset:0;"
       d="m 214.28571,261.6479 c -5.47619,0 -10.95238,0 -16.42857,0 -1.42857,0 -2.86423,-0.14215 -4.28571,0 -0.97682,0.0977 -1.90476,0.47619 -2.85714,0.71428 -0.95239,0.2381 -1.9791,0.27526 -2.85715,0.71429 -0.60234,0.30117 -0.88982,1.02451 -1.42857,1.42857 -0.42592,0.31944 -0.92349,0.54593 -1.42857,0.71428 -0.22588,0.0753 -0.54593,-0.16835 -0.71429,0 -0.16835,0.16836 0,0.4762 0,0.71429 0,2.38095 0,4.76191 0,7.14286 0,1.66666 0,3.33333 0,5 0,0.32168 -0.10869,1.92547 0,2.14285 0.29355,0.5871 3.02926,2.03443 3.57143,2.14286 1.16736,0.23347 2.4165,-0.28873 3.57143,0 0.5165,0.12913 0.91207,0.58516 1.42857,0.71429 0.46198,0.11549 0.95238,0 1.42857,0 0.47619,0 0.95239,0 1.42858,0 1.66666,0 3.33333,0 5,0 1.66666,0 3.33333,0 5,0 0.47619,0 0.95238,0 1.42857,0 0.47619,0 0.97681,0.15058 1.42857,0 0.0447,-0.0149 1.28981,-1.31756 1.42857,-1.42857 0.92961,-0.74369 2.01535,-1.30107 2.85714,-2.14286 0.37646,-0.37646 0.41897,-0.98559 0.71429,-1.42857 0.37355,-0.56033 1.1274,-0.82624 1.42857,-1.42857 0.10648,-0.21296 -0.0938,-0.49545 0,-0.71429 5.06623,-10.13246 0.41842,-0.33176 2.85714,-6.42857 0.19773,-0.49432 0.54593,-0.9235 0.71429,-1.42857 0.13433,-0.403 0,-1.6735 0,-2.14286 0,-0.26231 0.0287,-2.8284 0,-2.85714 -0.16836,-0.16836 -0.48841,0.0753 -0.71429,0 -1.21638,-0.40546 -2.38095,-0.95238 -3.57143,-1.42857 z"
       id="path2991"
       inkscape:connector-curvature="0" />
    <path
       style="fill:none;stroke:#000000;stroke-width:5;stroke-linecap:round;stroke-linejoin:round;stroke-opacity:1;stroke-miterlimit:4;stroke-dasharray:none;stroke-dashoffset:0;"
       d="m 245.71429,260.21932 c -2.36639,0.26294 -4.77647,-0.26293 -7.14286,0 -0.97569,0.10841 -1.90476,0.4762 -2.85714,0.71429 -0.95238,0.2381 -1.91323,0.44459 -2.85715,0.71429 -0.72395,0.20684 -1.42857,0.47619 -2.14285,0.71428 -0.71429,0.2381 -1.46943,0.37757 -2.14286,0.71429 -0.30117,0.15058 -0.47619,0.47619 -0.71429,0.71428 -0.23809,0.2381 -0.5637,0.41312 -0.71428,0.71429 -0.10648,0.21296 0,0.47619 0,0.71428 0,0.4762 0,0.95239 0,1.42858 0,0.12021 -0.0712,4.85768 0,5 0.77237,1.54474 1.64262,1.33317 2.85714,2.14285 0.28017,0.18678 0.47619,0.47619 0.71429,0.71429 0.47619,0.23809 0.98559,0.41896 1.42857,0.71428 0.28016,0.18678 0.41311,0.56371 0.71428,0.71429 0.31784,0.15892 2.53044,-0.1089 2.85715,0 0.31943,0.10648 0.47619,0.47619 0.71428,0.71429 0.47619,0 0.97682,-0.15059 1.42857,0 0.31944,0.10648 0.39485,0.6078 0.71429,0.71428 0.67763,0.22588 1.42857,0 2.14286,0 1.90476,0 3.80952,0 5.71428,0 1.42969,0 2.85603,0 4.28572,0 0.23809,0 0.47619,0 0.71428,0 0.2381,0 0.54593,0.16836 0.71429,0 0.16836,-0.16836 0,-0.47619 0,-0.71428 0,-1.42858 0,-2.85715 0,-4.28572 0,-2.38095 0,-4.7619 0,-7.14286 0,-0.23809 0,-0.47619 0,-0.71428 0,-0.2381 0.16836,-0.54593 0,-0.71429 -0.37646,-0.37646 -1.05211,-0.33782 -1.42857,-0.71428 -0.16836,-0.16836 0.16835,-0.54593 0,-0.71429 -0.16836,-0.16836 -0.54593,0.16836 -0.71429,0 -0.16836,-0.16836 0.16836,-0.54593 0,-0.71428 -0.16836,-0.16836 -0.48841,0.0753 -0.71429,0 -1.21638,-0.40547 -2.38095,-0.95238 -3.57142,-1.42858 z"
       id="path2995"
       inkscape:connector-curvature="0" />
    <path
       style="fill:none;stroke:#000000;stroke-width:5;stroke-linecap:round;stroke-linejoin:round;stroke-opacity:1;stroke-miterlimit:4;stroke-dasharray:none;stroke-dashoffset:0;"
       d="m 227.85714,307.36218 c -1.42857,0 -2.85714,0 -4.28571,0 -0.95238,0 -1.91434,-0.13469 -2.85714,0 -0.74536,0.10648 -1.42858,0.47619 -2.14286,0.71429 -0.71429,0.23809 -1.46942,0.37757 -2.14286,0.71428 -0.2147,0.10736 -1.21386,1.32122 -1.42857,1.42857 -0.21296,0.10648 -0.54593,-0.16835 -0.71429,0 -0.16835,0.16836 0,0.4762 0,0.71429 0,2.72313 -0.65763,2.99965 2.14286,5 0.86646,0.6189 1.90476,0.95238 2.85714,1.42857 2.48919,1.2446 3.69254,1.94513 6.42858,2.85714 0.93131,0.31044 1.92582,0.40385 2.85714,0.71429 5.17387,1.72462 -1.12615,-0.20593 2.14286,1.42857 0.21295,0.10648 0.54592,-0.16836 0.71428,0 0.16836,0.16836 0,0.47619 0,0.71429 0,0.47619 0,0.95238 0,1.42857 0,1.21177 0.26718,2.58996 -0.71428,3.57143 -0.37647,0.37646 -0.98559,0.41896 -1.42858,0.71428 -0.28016,0.18678 -0.41311,0.5637 -0.71428,0.71429 -0.21296,0.10648 -0.47619,0 -0.71429,0 -0.95238,0 -1.90476,0 -2.85714,0 -2.14286,0 -4.28571,0 -6.42857,0 -0.0247,0 -2.2144,0 -2.85714,0 -0.47619,0 -0.97682,-0.15059 -1.42858,0 -0.50507,0.16836 -0.95238,0.47619 -1.42857,0.71428"
       id="path2997"
       inkscape:connector-curvature="0" />
    <path
       style="fill:none;stroke:#000000;stroke-width:5;stroke-linecap:round;stroke-linejoin:round;stroke-opacity:1;stroke-miterlimit:4;stroke-dasharray:none;stroke-dashoffset:0;"
       d="m 240,308.79075 c 0.55809,0.60839 -0.3514,4.6601 0,5.71429 0.10648,0.31944 0.5637,0.41312 0.71429,0.71428 0.10648,0.21296 -0.16836,0.54593 0,0.71429 0.16835,0.16836 0.54592,-0.16836 0.71428,0 0.16836,0.16836 -0.10648,0.50133 0,0.71429 0.38392,0.76783 1.04466,1.37502 1.42857,2.14285 3.44925,6.8985 -0.92021,-1.33208 0.71429,3.57143 0.10648,0.31944 0.60781,0.39485 0.71428,0.71429 0.15059,0.45175 -0.15058,0.97682 0,1.42857 0.10648,0.31944 0.56371,0.41312 0.71429,0.71428 1.051,2.10201 -1.6547,-0.94041 0.71429,1.42858 0.23809,0.23809 0.6078,0.39484 0.71428,0.71428 0.42403,1.27209 -0.77027,2.14286 1.42857,2.14286 0.2381,0 0.54593,0.16836 0.71429,0 0.37646,-0.37646 0.41896,-0.98559 0.71428,-1.42857 2.36899,-2.36899 -0.33671,0.67343 0.71429,-1.42857 0.15058,-0.30117 0.5637,-0.41312 0.71429,-0.71429 0.10648,-0.21296 0,-0.47619 0,-0.71429 0,-0.23809 0,-0.47619 0,-0.71428 0,-1.42857 -0.14215,-2.86423 0,-4.28572 0.0977,-0.97682 0.55289,-1.8888 0.71428,-2.85714 0.1572,-0.94319 0,-3.18648 0,-4.28571 0,-0.47619 -0.15058,-0.97682 0,-1.42857 0.88265,-2.64794 0.71429,0.87068 0.71429,-1.42858"
       id="path2999"
       inkscape:connector-curvature="0" />
    <path
       style="fill:none;stroke:#000000;stroke-width:5;stroke-linecap:round;stroke-linejoin:round;stroke-opacity:1;stroke-miterlimit:4;stroke-dasharray:none;stroke-dashoffset:0;"
       d="m 272.85714,311.6479 c -2.92445,1.97595 -6.14042,3.42735 -9.28571,5 -0.47619,0.23809 -1.05211,0.33782 -1.42857,0.71428 -0.16836,0.16836 0.16836,0.54593 0,0.71429 -0.16836,0.16836 -0.54593,-0.16836 -0.71429,0 -0.16836,0.16836 0.0753,0.48841 0,0.71428 -1.72462,5.17387 0.20593,-1.12614 -1.42857,2.14286 -0.0801,0.16009 0,2.68741 0,2.85714 0,0.71429 0,1.42857 0,2.14286 0,0.2381 -0.16836,0.54593 0,0.71429 1.1096,1.1096 2.91073,0.71428 4.28571,0.71428 1.90477,0 3.80953,0 5.71429,0 0.2381,0 0.47619,0 0.71429,0 0.23809,0 0.54592,0.16836 0.71428,0 0.16836,-0.16836 -0.10648,-0.50133 0,-0.71428 0.15059,-0.30117 0.60781,-0.39485 0.71429,-0.71429 0,-3.25163 -0.33672,-0.0408 0.71428,-2.14286 0.21296,-0.42591 -0.17685,-0.98644 0,-1.42857 0.39546,-0.98863 0.95238,-1.90476 1.42857,-2.85714 0.2381,-0.47619 0.54593,-0.9235 0.71429,-1.42857 0.15058,-0.45176 0,-0.95238 0,-1.42857 0,-0.2381 0,-0.47619 0,-0.71429 0,-0.23809 0.10648,-0.50133 0,-0.71429 -0.62088,-1.24175 -2.14286,-4.95975 -2.14286,-3.57142 0,1.59719 1.42857,2.85714 2.14286,4.28571 0.2381,0.47619 0.41897,0.98559 0.71429,1.42857 0.37355,0.56033 1.21561,0.7897 1.42857,1.42857 0.15058,0.45176 -0.15059,0.97682 0,1.42857 0.10648,0.31944 0.5637,0.41312 0.71428,0.71429 0.21072,0.42144 -0.16377,1.65155 0,2.14286 0.16836,0.50507 0.54593,0.92349 0.71429,1.42857 0.0753,0.22588 0,0.47619 0,0.71428 0,0.4762 0,0.95239 0,1.42858 0,1.19047 0,2.38095 0,3.57142 0,0.4762 -0.15059,0.97682 0,1.42858 0.49684,1.49052 1.64602,2.0809 2.14286,3.57142 0.0753,0.22588 -0.16836,0.54593 0,0.71429 0.16835,0.16836 0.54592,-0.16836 0.71428,0 0.16836,0.16836 0,0.47619 0,0.71429 0,0.71428 -0.17324,1.44989 0,2.14285 0.0817,0.32667 0.5637,0.41312 0.71429,0.71429 0.08,0.16009 0,2.68741 0,2.85714 0,1.42857 0,2.85714 0,4.28572 0,0.47619 0,0.95238 0,1.42857 0,0.23809 0.13207,0.51618 0,0.71428 -0.37356,0.56034 -0.85111,1.0821 -1.42857,1.42857 -0.64563,0.38738 -1.42858,0.4762 -2.14286,0.71429 -0.71429,0.2381 -1.40456,0.56663 -2.14286,0.71429 -0.46694,0.0934 -0.9666,-0.1155 -1.42857,0 -0.5165,0.12912 -0.92349,0.54592 -1.42857,0.71428 -0.45176,0.15059 -0.95238,0 -1.42857,0 -0.71429,0 -1.42857,0 -2.14286,0 -0.23809,0 -0.47619,0 -0.71429,0 -0.23809,0 -0.50132,0.10648 -0.71428,0 -0.30117,-0.15058 -0.5637,-0.41311 -0.71429,-0.71428 -0.10648,-0.21296 0,-0.47619 0,-0.71429 0,-0.71429 0,-1.42857 0,-2.14286 0,-0.95238 0,-1.90476 0,-2.85714 0,-0.64149 -0.0908,-4.14959 0,-4.28571 0.37356,-0.56034 0.95238,-0.95238 1.42857,-1.42858 0.4762,-0.47619 0.95239,-0.95238 1.42858,-1.42857 0.23809,-0.23809 0.5637,-0.41311 0.71428,-0.71428 0.10648,-0.21296 -0.16836,-0.54593 0,-0.71429 0.16836,-0.16836 0.54593,0.16836 0.71429,0 0.60702,-0.60702 0.91349,-1.45608 1.42857,-2.14286 0.20203,-0.26937 0.5637,-0.41311 0.71428,-0.71428 0.10648,-0.21296 -0.10647,-0.50133 0,-0.71429 0.21654,-0.43307 2.62771,-2.55123 2.85715,-2.85714 2.59461,-3.45948 -0.75616,0.0419 1.42857,-2.14286"
       id="path3001"
       inkscape:connector-curvature="0" />
  </g>
</svg>
