
#define fselch12.264pk_75_width 	 35
#define fselch12.264pk_75_height 	 31
#define fselch12.264pk_75_xoff 	 0
#define fselch12.264pk_75_yoff 	 0
static char fselch12.264pk_75_bits[] = {
   0x0f,  0x00,  0x00,  0x00,  0x00, 
   0x09,  0x00,  0x00,  0x00,  0x00, 
   0x09,  0x00,  0x00,  0x00,  0x00, 
   0xf9,  0x01,  0x00,  0xf0,  0x07, 
   0x09,  0x01,  0x00,  0x18,  0x04, 
   0x09,  0x03,  0x00,  0x14,  0x04, 
   0x09,  0x05,  0x00,  0x14,  0x04, 
   0x09,  0xf9,  0xff,  0x13,  0x04, 
   0x09,  0x09,  0x00,  0x92,  0x07, 
   0x09,  0x09,  0x00,  0x92,  0x00, 
   0x09,  0x09,  0x00,  0x92,  0x00, 
   0x09,  0x09,  0x00,  0x92,  0x00, 
   0x09,  0x09,  0x00,  0x92,  0x00, 
   0x09,  0x09,  0x00,  0x92,  0x07, 
   0x09,  0x09,  0x00,  0x12,  0x04, 
   0x09,  0x09,  0x00,  0x12,  0x04, 
   0x09,  0x09,  0x00,  0x12,  0x04, 
   0x09,  0x09,  0x00,  0x92,  0x07, 
   0x09,  0x09,  0x00,  0x92,  0x00, 
   0x09,  0x09,  0x00,  0x92,  0x00, 
   0x09,  0x09,  0x00,  0x92,  0x00, 
   0x09,  0x09,  0x00,  0x92,  0x00, 
   0x09,  0x09,  0x00,  0x92,  0x07, 
   0x09,  0xf9,  0xff,  0x13,  0x04, 
   0x09,  0x05,  0x00,  0x14,  0x04, 
   0x09,  0x03,  0x00,  0x14,  0x04, 
   0x09,  0x01,  0x00,  0x18,  0x04, 
   0xf9,  0x01,  0x00,  0xf0,  0x07, 
   0x09,  0x00,  0x00,  0x00,  0x00, 
   0x09,  0x00,  0x00,  0x00,  0x00, 
   0x0f,  0x00,  0x00,  0x00,  0x00, };
