#define fselch12.264pk_91_width 	 44
#define fselch12.264pk_91_height 	 44
#define fselch12.264pk_91_xoff 	 0
#define fselch12.264pk_91_yoff 	 0
static char fselch12.264pk_91_bits[] = {
   0x08,  0x21,  0x84,  0x10,  0x42,  0x08, 
   0x84,  0x10,  0x40,  0x08,  0x21,  0x04, 
   0x42,  0x08,  0x00,  0x84,  0x10,  0x02, 
   0x21,  0x04,  0x1e,  0x42,  0x08,  0x01, 
   0x10,  0x02,  0x61,  0x20,  0x84,  0x00, 
   0x08,  0x81,  0x80,  0x01,  0x42,  0x08, 
   0x84,  0x90,  0x38,  0x02,  0x21,  0x04, 
   0x42,  0x88,  0x30,  0x0c,  0x10,  0x02, 
   0x21,  0x84,  0x01,  0xf0,  0x00,  0x01, 
   0x10,  0x42,  0x06,  0x00,  0x07,  0x00, 
   0x08,  0xc1,  0x00,  0x00,  0x08,  0x00, 
   0x04,  0x10,  0x01,  0xc0,  0xd0,  0x03, 
   0x02,  0x00,  0x02,  0x80,  0x21,  0x02, 
   0xc1,  0x01,  0x04,  0x00,  0x01,  0x01, 
   0x40,  0x06,  0x08,  0x00,  0x12,  0x01, 
   0x48,  0x08,  0x10,  0x00,  0xa0,  0x08, 
   0x44,  0x10,  0x12,  0x00,  0x40,  0x04, 
   0x42,  0x20,  0x20,  0x00,  0x60,  0x00, 
   0x41,  0xc0,  0x20,  0x00,  0x80,  0x01, 
   0x40,  0x00,  0x41,  0x00,  0x00,  0x02, 
   0x48,  0x00,  0x42,  0x00,  0x00,  0x02, 
   0x44,  0x00,  0x8c,  0x00,  0xe0,  0x01, 
   0x42,  0x00,  0xf0,  0x03,  0x40,  0x00, 
   0x41,  0x00,  0x00,  0x3c,  0x40,  0x00, 
   0x40,  0x00,  0x00,  0x00,  0x40,  0x00, 
   0x48,  0x00,  0x00,  0x00,  0x20,  0x08, 
   0x44,  0x00,  0x00,  0x00,  0x20,  0x04, 
   0x42,  0x00,  0x00,  0x00,  0x10,  0x02, 
   0x41,  0x00,  0x00,  0x00,  0x10,  0x01, 
   0x40,  0x00,  0x00,  0x00,  0x88,  0x00, 
   0x48,  0x00,  0x00,  0x00,  0x4c,  0x08, 
   0x44,  0x00,  0x00,  0x00,  0x06,  0x04, 
   0x42,  0x00,  0x00,  0x00,  0x03,  0x02, 
   0x41,  0x00,  0x00,  0xc0,  0x01,  0x01, 
   0x40,  0x00,  0x00,  0x70,  0x80,  0x00, 
   0x48,  0x00,  0x00,  0x1e,  0x42,  0x08, 
   0x44,  0x00,  0xe0,  0x07,  0x21,  0x04, 
   0x42,  0x00,  0xff,  0x81,  0x10,  0x02, 
   0xc1,  0xff,  0x1f,  0x40,  0x08,  0x01, 
   0xc0,  0x7f,  0x00,  0x20,  0x84,  0x00, 
   0x08,  0x00,  0x80,  0x10,  0x42,  0x08, 
   0x04,  0x00,  0x42,  0x08,  0x21,  0x04, 
   0x42,  0x08,  0x21,  0x84,  0x10,  0x02, 
   0x21,  0x84,  0x10,  0x42,  0x08,  0x01, };
