#define fselch12.264pk_‚_width 	 44
#define fselch12.264pk_‚_height 	 44
#define fselch12.264pk_‚_xoff 	 0
#define fselch12.264pk_‚_yoff 	 0
static char fselch12.264pk_‚_bits[] = {
   0x08,  0x21,  0x00,  0x00,  0x42,  0x08, 
   0x84,  0x00,  0x00,  0x00,  0x20,  0x04, 
   0x42,  0x80,  0xff,  0x3f,  0x00,  0x02, 
   0x21,  0x7e,  0x00,  0xc0,  0x0f,  0x01, 
   0x10,  0x01,  0x00,  0x00,  0x90,  0x00, 
   0x08,  0x01,  0x00,  0x00,  0x10,  0x08, 
   0x04,  0x7e,  0x00,  0xc0,  0x0f,  0x04, 
   0x42,  0x84,  0xff,  0x3f,  0x04,  0x02, 
   0x21,  0x04,  0x00,  0x00,  0x04,  0x01, 
   0x10,  0x78,  0x00,  0xc0,  0x83,  0x00, 
   0x08,  0x84,  0xff,  0x3f,  0x44,  0x08, 
   0x84,  0x04,  0x00,  0x00,  0x24,  0x04, 
   0x42,  0x04,  0x00,  0x00,  0x04,  0x02, 
   0x21,  0x7e,  0x00,  0xc0,  0x0f,  0x01, 
   0x10,  0x82,  0xff,  0x3f,  0x88,  0x00, 
   0x08,  0x01,  0x00,  0x00,  0x10,  0x08, 
   0x84,  0x00,  0x00,  0x00,  0x20,  0x04, 
   0x82,  0x0b,  0x00,  0x00,  0x3b,  0x02, 
   0x81,  0x74,  0x02,  0xcc,  0x25,  0x01, 
   0x40,  0x98,  0xbd,  0x37,  0x43,  0x00, 
   0x48,  0x14,  0x46,  0x0c,  0x45,  0x08, 
   0x44,  0x14,  0x0a,  0x0a,  0x45,  0x04, 
   0x42,  0x12,  0x0a,  0x0a,  0x49,  0x02, 
   0x21,  0x12,  0x09,  0x12,  0x89,  0x00, 
   0x20,  0x11,  0x09,  0x12,  0x91,  0x00, 
   0xa0,  0x10,  0x09,  0x12,  0xa1,  0x08, 
   0xa4,  0x90,  0x10,  0x21,  0xa1,  0x04, 
   0x62,  0x90,  0x10,  0x21,  0xc1,  0x00, 
   0x31,  0x90,  0x10,  0x21,  0x89,  0x01, 
   0x30,  0x52,  0x10,  0x41,  0x81,  0x01, 
   0x1c,  0x51,  0xa4,  0x40,  0x01,  0x07, 
   0x22,  0x30,  0xa2,  0x88,  0x81,  0x08, 
   0x22,  0x30,  0xa1,  0x84,  0x91,  0x08, 
   0x22,  0x30,  0xa0,  0x80,  0x89,  0x08, 
   0x1c,  0x10,  0x40,  0x00,  0x01,  0x07, 
   0x00,  0x39,  0x44,  0x80,  0x03,  0x00, 
   0x80,  0x44,  0xe2,  0x48,  0x24,  0x00, 
   0x42,  0x44,  0x10,  0x41,  0x04,  0x02, 
   0x21,  0x44,  0x10,  0x41,  0x04,  0x01, 
   0x10,  0x38,  0x10,  0x81,  0x83,  0x00, 
   0x08,  0x01,  0xe0,  0x10,  0x40,  0x08, 
   0x84,  0x00,  0x02,  0x08,  0x20,  0x04, 
   0x42,  0x08,  0x01,  0x84,  0x10,  0x02, 
   0x21,  0x84,  0x10,  0x42,  0x08,  0x01, };
