
#define fselch12.264pk_38_width 	 38
#define fselch12.264pk_38_height 	 37
#define fselch12.264pk_38_xoff 	 0
#define fselch12.264pk_38_yoff 	 0
static char fselch12.264pk_38_bits[] = {
   0x00,  0x00,  0x00,  0x00,  0x18, 
   0x00,  0x00,  0x00,  0x00,  0x24, 
   0x00,  0x00,  0x00,  0x00,  0x24, 
   0x00,  0x00,  0x00,  0x00,  0x12, 
   0x00,  0x00,  0x00,  0x00,  0x12, 
   0x00,  0x00,  0x00,  0x00,  0x12, 
   0x00,  0x00,  0x00,  0x00,  0x12, 
   0x00,  0x00,  0x00,  0x00,  0x12, 
   0x00,  0xe0,  0x07,  0x00,  0x12, 
   0x00,  0x18,  0x18,  0x20,  0x12, 
   0x00,  0x04,  0x60,  0x3c,  0x12, 
   0x00,  0x02,  0x80,  0x2b,  0x12, 
   0x00,  0x01,  0x80,  0x48,  0x12, 
   0x80,  0x00,  0x80,  0x48,  0x12, 
   0x80,  0x00,  0x80,  0x48,  0x12, 
   0x40,  0x80,  0x80,  0x48,  0x09, 
   0x2e,  0x80,  0x80,  0x48,  0x09, 
   0x31,  0x80,  0x80,  0xc8,  0x08, 
   0x11,  0xf8,  0x87,  0x48,  0x04, 
   0x31,  0x80,  0x80,  0xc8,  0x08, 
   0x2e,  0x80,  0x80,  0x48,  0x09, 
   0x40,  0x80,  0x80,  0x48,  0x09, 
   0x80,  0x00,  0x80,  0x48,  0x12, 
   0x80,  0x00,  0x80,  0x48,  0x12, 
   0x00,  0x01,  0x80,  0x48,  0x12, 
   0x00,  0x02,  0x80,  0x2b,  0x12, 
   0x00,  0x04,  0x60,  0x3c,  0x12, 
   0x00,  0x18,  0x18,  0x20,  0x12, 
   0x00,  0xe0,  0x07,  0x00,  0x12, 
   0x00,  0x00,  0x00,  0x00,  0x12, 
   0x00,  0x00,  0x00,  0x00,  0x12, 
   0x00,  0x00,  0x00,  0x00,  0x12, 
   0x00,  0x00,  0x00,  0x00,  0x12, 
   0x00,  0x00,  0x00,  0x00,  0x12, 
   0x00,  0x00,  0x00,  0x00,  0x24, 
   0x00,  0x00,  0x00,  0x00,  0x24, 
   0x00,  0x00,  0x00,  0x00,  0x18, };
