#define fselch12.264pk_56_width 	 44
#define fselch12.264pk_56_height 	 44
#define fselch12.264pk_56_xoff 	 0
#define fselch12.264pk_56_yoff 	 0
static char fselch12.264pk_56_bits[] = {
   0x08,  0x21,  0x84,  0x10,  0x02,  0x08, 
   0x84,  0x10,  0x42,  0x08,  0x01,  0x04, 
   0x42,  0x08,  0x21,  0x84,  0xc0,  0x00, 
   0x21,  0x84,  0x10,  0x42,  0x20,  0x01, 
   0x10,  0x42,  0x08,  0x21,  0x24,  0x01, 
   0x08,  0x21,  0x84,  0x10,  0x92,  0x08, 
   0x84,  0x10,  0x42,  0x08,  0x91,  0x04, 
   0x42,  0x08,  0x21,  0x84,  0x90,  0x00, 
   0x21,  0x84,  0x00,  0x42,  0x90,  0x00, 
   0x10,  0x02,  0x00,  0x20,  0x90,  0x00, 
   0x08,  0x01,  0x3f,  0x10,  0x90,  0x08, 
   0x84,  0xc0,  0xc0,  0x00,  0x91,  0x04, 
   0x42,  0x20,  0x00,  0xe3,  0x91,  0x00, 
   0x21,  0x10,  0x00,  0x5c,  0x91,  0x00, 
   0x10,  0x08,  0x00,  0x44,  0x92,  0x00, 
   0x08,  0x04,  0x00,  0x44,  0x92,  0x08, 
   0x04,  0x04,  0x00,  0x44,  0x92,  0x04, 
   0x02,  0x02,  0x04,  0x44,  0x4a,  0x02, 
   0x71,  0x01,  0x04,  0x44,  0x4a,  0x00, 
   0x88,  0x01,  0x04,  0x44,  0x46,  0x00, 
   0x88,  0xc0,  0x3f,  0x44,  0x22,  0x08, 
   0x88,  0x01,  0x04,  0x44,  0x46,  0x04, 
   0x72,  0x01,  0x04,  0x44,  0x4a,  0x02, 
   0x01,  0x02,  0x04,  0x44,  0x4a,  0x00, 
   0x00,  0x04,  0x00,  0x44,  0x92,  0x00, 
   0x08,  0x04,  0x00,  0x44,  0x92,  0x08, 
   0x84,  0x08,  0x00,  0x44,  0x92,  0x04, 
   0x42,  0x10,  0x00,  0x5c,  0x91,  0x00, 
   0x21,  0x20,  0x00,  0xe3,  0x91,  0x00, 
   0x10,  0xc2,  0xc0,  0x00,  0x91,  0x00, 
   0x08,  0x01,  0x3f,  0x10,  0x90,  0x08, 
   0x84,  0x10,  0x00,  0x08,  0x90,  0x04, 
   0x42,  0x08,  0x00,  0x84,  0x90,  0x00, 
   0x21,  0x84,  0x10,  0x42,  0x90,  0x00, 
   0x10,  0x42,  0x08,  0x21,  0x90,  0x00, 
   0x08,  0x21,  0x84,  0x10,  0x92,  0x08, 
   0x84,  0x10,  0x42,  0x08,  0x21,  0x01, 
   0x42,  0x08,  0x21,  0x84,  0x20,  0x01, 
   0x21,  0x84,  0x10,  0x42,  0xc0,  0x00, 
   0x10,  0x42,  0x08,  0x21,  0x04,  0x00, 
   0x08,  0x21,  0x84,  0x10,  0x02,  0x08, 
   0x84,  0x10,  0x42,  0x08,  0x21,  0x04, 
   0x42,  0x08,  0x21,  0x84,  0x10,  0x02, 
   0x21,  0x84,  0x10,  0x42,  0x08,  0x01, };
