#define fselch12.264pk_90_width 	 44
#define fselch12.264pk_90_height 	 44
#define fselch12.264pk_90_xoff 	 0
#define fselch12.264pk_90_yoff 	 0
static char fselch12.264pk_90_bits[] = {
   0x08,  0x21,  0x84,  0x10,  0x42,  0x08, 
   0x84,  0x10,  0x42,  0x08,  0x21,  0x04, 
   0x42,  0x08,  0x21,  0x84,  0x10,  0x02, 
   0x21,  0x84,  0x10,  0x42,  0x08,  0x01, 
   0x10,  0x42,  0x08,  0x21,  0x84,  0x00, 
   0x08,  0x21,  0x84,  0x10,  0x42,  0x08, 
   0x04,  0x10,  0x42,  0x08,  0x21,  0x04, 
   0x02,  0x00,  0x21,  0x84,  0x10,  0x02, 
   0xc1,  0x0f,  0x10,  0x42,  0x08,  0x01, 
   0x40,  0x70,  0x08,  0x21,  0x84,  0x00, 
   0x48,  0x80,  0x81,  0x10,  0x42,  0x08, 
   0x44,  0x00,  0x42,  0x08,  0x21,  0x04, 
   0x42,  0x00,  0x04,  0x80,  0x10,  0x02, 
   0x41,  0x00,  0x08,  0x00,  0x08,  0x01, 
   0x40,  0x00,  0x08,  0x3e,  0x84,  0x00, 
   0x48,  0x00,  0x90,  0xc1,  0x00,  0x08, 
   0x44,  0x00,  0x50,  0x00,  0x01,  0x04, 
   0x42,  0x00,  0x20,  0x00,  0x79,  0x00, 
   0x41,  0x00,  0x20,  0x00,  0x86,  0x00, 
   0x40,  0x00,  0x00,  0x00,  0x02,  0x01, 
   0x48,  0x00,  0x00,  0x00,  0x00,  0x09, 
   0x44,  0x00,  0x00,  0x00,  0x00,  0x01, 
   0x42,  0x00,  0x00,  0x00,  0x00,  0x01, 
   0x41,  0x00,  0x00,  0x00,  0x02,  0x01, 
   0x40,  0x00,  0x20,  0x00,  0x86,  0x00, 
   0x48,  0x00,  0x20,  0x00,  0x79,  0x08, 
   0x44,  0x00,  0x50,  0x00,  0x01,  0x04, 
   0x42,  0x00,  0x90,  0xc1,  0x00,  0x02, 
   0x41,  0x00,  0x08,  0x3e,  0x08,  0x01, 
   0x40,  0x00,  0x08,  0x00,  0x84,  0x00, 
   0x48,  0x00,  0x84,  0x00,  0x42,  0x08, 
   0x44,  0x00,  0x42,  0x08,  0x21,  0x04, 
   0x42,  0x80,  0x21,  0x84,  0x10,  0x02, 
   0x41,  0x70,  0x10,  0x42,  0x08,  0x01, 
   0xc0,  0x0f,  0x08,  0x21,  0x84,  0x00, 
   0x08,  0x00,  0x84,  0x10,  0x42,  0x08, 
   0x04,  0x10,  0x42,  0x08,  0x21,  0x04, 
   0x42,  0x08,  0x21,  0x84,  0x10,  0x02, 
   0x21,  0x84,  0x10,  0x42,  0x08,  0x01, 
   0x10,  0x42,  0x08,  0x21,  0x84,  0x00, 
   0x08,  0x21,  0x84,  0x10,  0x42,  0x08, 
   0x84,  0x10,  0x42,  0x08,  0x21,  0x04, 
   0x42,  0x08,  0x21,  0x84,  0x10,  0x02, 
   0x21,  0x84,  0x10,  0x42,  0x08,  0x01, };
