#define fselch12.218pk_57_width 	 36
#define fselch12.218pk_57_height 	 36
#define fselch12.218pk_57_xoff 	 0
#define fselch12.218pk_57_yoff 	 0
static char fselch12.218pk_57_bits[] = {
   0x88,  0x88,  0x88,  0x88,  0x08, 
   0x44,  0x44,  0x44,  0x44,  0x04, 
   0x22,  0x22,  0x22,  0x22,  0x02, 
   0x11,  0x11,  0x11,  0x01,  0x01, 
   0x88,  0x88,  0x88,  0x00,  0x08, 
   0x44,  0x44,  0x44,  0x78,  0x04, 
   0x02,  0x20,  0x22,  0x48,  0x02, 
   0xf1,  0x13,  0x11,  0x4f,  0x01, 
   0x10,  0x82,  0x88,  0x49,  0x08, 
   0x10,  0x06,  0x40,  0x49,  0x04, 
   0x12,  0xfa,  0x3f,  0x49,  0x02, 
   0x71,  0x0a,  0x20,  0x49,  0x01, 
   0x40,  0x0a,  0x20,  0x49,  0x08, 
   0x44,  0x0a,  0x20,  0x49,  0x04, 
   0x42,  0x0a,  0x20,  0x49,  0x02, 
   0x71,  0x0a,  0x20,  0x49,  0x01, 
   0x10,  0x0a,  0x20,  0x49,  0x08, 
   0x10,  0x0a,  0x20,  0x49,  0x04, 
   0x12,  0x0a,  0x20,  0x49,  0x02, 
   0x71,  0x0a,  0x20,  0x49,  0x01, 
   0x40,  0x0a,  0x20,  0x49,  0x08, 
   0x44,  0x0a,  0x20,  0x49,  0x04, 
   0x42,  0x0a,  0x20,  0x49,  0x02, 
   0x71,  0x0a,  0x20,  0x49,  0x01, 
   0x10,  0xfa,  0x7f,  0x49,  0x08, 
   0x10,  0x0a,  0x40,  0x49,  0x04, 
   0x12,  0x26,  0x82,  0x49,  0x02, 
   0xf1,  0x13,  0x11,  0x5f,  0x01, 
   0x00,  0x88,  0x08,  0x50,  0x08, 
   0x44,  0x44,  0x44,  0x70,  0x04, 
   0x22,  0x22,  0x22,  0x02,  0x02, 
   0x11,  0x11,  0x11,  0x01,  0x01, 
   0x88,  0x88,  0x88,  0x88,  0x08, 
   0x44,  0x44,  0x44,  0x44,  0x04, 
   0x22,  0x22,  0x22,  0x22,  0x02, 
   0x11,  0x11,  0x11,  0x11,  0x01, };
