#define fselch16.218pk_€_width 	 48
#define fselch16.218pk_€_height 	 48
#define fselch16.218pk_€_xoff 	 0
#define fselch16.218pk_€_yoff 	 0
static char fselch16.218pk_€_bits[] = {
   0x84,  0x10,  0x42,  0x08,  0x21,  0x84, 
   0x42,  0x08,  0x21,  0x84,  0x10,  0x42, 
   0x21,  0x84,  0x10,  0x42,  0x08,  0x21, 
   0x00,  0x42,  0x08,  0x21,  0x04,  0x10, 
   0x00,  0x00,  0x80,  0x00,  0x00,  0x00, 
   0x44,  0x00,  0x40,  0x00,  0x00,  0x81, 
   0xa2,  0x01,  0x00,  0x00,  0xc0,  0x42, 
   0x11,  0xfe,  0x0f,  0xf8,  0x3f,  0x24, 
   0xe0,  0x00,  0x70,  0x07,  0x80,  0x03, 
   0x00,  0xff,  0x87,  0xf0,  0x7f,  0x00, 
   0x04,  0x00,  0x18,  0x0c,  0x00,  0x80, 
   0x02,  0x00,  0x60,  0x03,  0x00,  0x40, 
   0x21,  0x00,  0xfe,  0x3f,  0x00,  0x21, 
   0x10,  0xc2,  0x01,  0xc0,  0x81,  0x10, 
   0x08,  0x41,  0x00,  0x00,  0x41,  0x08, 
   0x84,  0x80,  0x00,  0x80,  0x20,  0x84, 
   0x42,  0x88,  0xff,  0xff,  0x10,  0x42, 
   0x21,  0x84,  0x00,  0x80,  0x08,  0x21, 
   0x10,  0x02,  0x01,  0x40,  0x84,  0x10, 
   0x08,  0x01,  0x01,  0x40,  0x40,  0x08, 
   0x84,  0x10,  0xff,  0x7f,  0x20,  0x84, 
   0x42,  0x88,  0x00,  0x80,  0x10,  0x42, 
   0x21,  0x44,  0x00,  0x00,  0x09,  0x21, 
   0x10,  0x22,  0x00,  0x00,  0x82,  0x10, 
   0x08,  0x21,  0x00,  0x00,  0x42,  0x08, 
   0x84,  0x10,  0x80,  0x00,  0x24,  0x84, 
   0x42,  0x10,  0x80,  0x00,  0x04,  0x42, 
   0x21,  0x10,  0x80,  0x00,  0x04,  0x21, 
   0x10,  0x12,  0x80,  0x00,  0x84,  0x10, 
   0x08,  0x11,  0xf8,  0x0f,  0x44,  0x08, 
   0x84,  0x10,  0x80,  0x00,  0x24,  0x84, 
   0x42,  0x20,  0x80,  0x00,  0x02,  0x42, 
   0x21,  0x24,  0x80,  0x00,  0x02,  0x21, 
   0x10,  0x42,  0x00,  0x00,  0x81,  0x10, 
   0x08,  0x81,  0x00,  0x80,  0x40,  0x08, 
   0x84,  0x10,  0x01,  0x40,  0x20,  0x84, 
   0x42,  0x08,  0x06,  0x30,  0x10,  0x42, 
   0x21,  0x04,  0x18,  0x0c,  0x08,  0x21, 
   0x10,  0x42,  0x20,  0x02,  0x84,  0x10, 
   0x08,  0x21,  0xc0,  0x01,  0x42,  0x08, 
   0x84,  0x10,  0x22,  0x02,  0x21,  0x84, 
   0x42,  0x08,  0x21,  0x82,  0x10,  0x42, 
   0x21,  0x84,  0x20,  0x42,  0x08,  0x21, 
   0x10,  0x42,  0x20,  0x22,  0x84,  0x10, 
   0x08,  0x21,  0xc0,  0x01,  0x42,  0x08, 
   0x84,  0x10,  0x02,  0x00,  0x21,  0x84, 
   0x42,  0x08,  0x01,  0x80,  0x10,  0x42, 
   0x21,  0x84,  0x10,  0x40,  0x08,  0x21, };
