#define fselch16.218pk_Æ_width 	 48
#define fselch16.218pk_Æ_height 	 48
#define fselch16.218pk_Æ_xoff 	 0
#define fselch16.218pk_Æ_yoff 	 0
static char fselch16.218pk_Æ_bits[] = {
   0x84,  0x10,  0x42,  0x08,  0x21,  0x84, 
   0x42,  0x08,  0x21,  0x84,  0x10,  0x42, 
   0x21,  0x84,  0x10,  0x42,  0x08,  0x21, 
   0x10,  0x42,  0x08,  0x21,  0x84,  0x10, 
   0x08,  0x00,  0x00,  0x00,  0x00,  0x08, 
   0x04,  0x00,  0x00,  0x00,  0x00,  0x84, 
   0x02,  0x00,  0x00,  0x00,  0x00,  0x42, 
   0x21,  0xff,  0xff,  0xff,  0x7f,  0x20, 
   0x10,  0x02,  0x00,  0x00,  0x20,  0x10, 
   0x08,  0x04,  0x00,  0x00,  0x10,  0x08, 
   0x84,  0xf8,  0xff,  0xff,  0x0f,  0x84, 
   0x42,  0x10,  0x00,  0x00,  0x04,  0x42, 
   0x21,  0x20,  0x00,  0x00,  0x02,  0x21, 
   0x10,  0x42,  0x00,  0x00,  0x81,  0x10, 
   0x08,  0x41,  0x00,  0x00,  0x41,  0x08, 
   0x84,  0x80,  0x00,  0x80,  0x20,  0x84, 
   0x42,  0x08,  0x01,  0x40,  0x10,  0x42, 
   0x21,  0x04,  0x02,  0x20,  0x08,  0x21, 
   0x10,  0x42,  0x04,  0x10,  0x84,  0x10, 
   0x08,  0x21,  0x08,  0x08,  0x42,  0x08, 
   0x84,  0x10,  0x10,  0x04,  0x20,  0x84, 
   0x42,  0x08,  0x10,  0x04,  0x10,  0x42, 
   0x21,  0x04,  0x20,  0x02,  0x00,  0x21, 
   0x10,  0xc2,  0xff,  0xff,  0x81,  0x10, 
   0x08,  0x41,  0x00,  0x00,  0x41,  0x08, 
   0x84,  0xc0,  0xff,  0xff,  0x21,  0x84, 
   0x42,  0x00,  0x20,  0x02,  0x10,  0x42, 
   0x21,  0x04,  0x10,  0x04,  0x00,  0x21, 
   0x10,  0x02,  0x10,  0x04,  0x80,  0x10, 
   0x08,  0x21,  0x08,  0x08,  0x42,  0x08, 
   0x84,  0x10,  0x04,  0x10,  0x21,  0x84, 
   0x42,  0x08,  0x02,  0x20,  0x10,  0x42, 
   0x21,  0x04,  0x01,  0x40,  0x08,  0x21, 
   0x10,  0x82,  0x00,  0x80,  0x80,  0x10, 
   0x08,  0x41,  0x00,  0x00,  0x41,  0x08, 
   0x84,  0x40,  0x00,  0x00,  0x21,  0x84, 
   0x42,  0x20,  0x00,  0x00,  0x02,  0x42, 
   0x21,  0x10,  0x00,  0x00,  0x04,  0x21, 
   0x10,  0xf8,  0xff,  0xff,  0x8f,  0x10, 
   0x08,  0x04,  0x00,  0x00,  0x10,  0x08, 
   0x04,  0x02,  0x00,  0x00,  0x20,  0x84, 
   0x02,  0xff,  0xff,  0xff,  0x7f,  0x42, 
   0x21,  0x00,  0x00,  0x00,  0x00,  0x20, 
   0x10,  0x00,  0x00,  0x00,  0x00,  0x10, 
   0x08,  0x00,  0x00,  0x00,  0x00,  0x08, 
   0x84,  0x10,  0x42,  0x08,  0x21,  0x84, 
   0x42,  0x08,  0x21,  0x84,  0x10,  0x42, 
   0x21,  0x84,  0x10,  0x42,  0x08,  0x21, };
