
#define fselch16.218pk_5_width 	 39
#define fselch16.218pk_5_height 	 40
#define fselch16.218pk_5_xoff 	 0
#define fselch16.218pk_5_yoff 	 0
static char fselch16.218pk_5_bits[] = {
   0x00,  0x00,  0x08,  0x00,  0x00, 
   0x00,  0x00,  0x08,  0x00,  0x00, 
   0x00,  0x00,  0x08,  0x00,  0x00, 
   0x00,  0x00,  0x3e,  0x00,  0x00, 
   0x00,  0x00,  0x08,  0x00,  0x00, 
   0x00,  0x00,  0x08,  0x00,  0x00, 
   0x00,  0x00,  0x08,  0x00,  0x00, 
   0x00,  0x00,  0x08,  0x00,  0x00, 
   0x00,  0x00,  0x3e,  0x00,  0x00, 
   0x00,  0x00,  0x41,  0x00,  0x00, 
   0x00,  0x80,  0x80,  0x00,  0x00, 
   0x00,  0x80,  0x80,  0x00,  0x00, 
   0xe0,  0x87,  0x80,  0xf0,  0x03, 
   0x18,  0x98,  0x80,  0x0c,  0x0c, 
   0x04,  0xe0,  0x80,  0x03,  0x10, 
   0x02,  0x80,  0x80,  0x00,  0x20, 
   0x02,  0x00,  0x41,  0x00,  0x20, 
   0x01,  0x00,  0x63,  0x00,  0x40, 
   0x01,  0x00,  0x22,  0x00,  0x40, 
   0x01,  0x00,  0x36,  0x00,  0x40, 
   0x01,  0x00,  0x14,  0x00,  0x40, 
   0x01,  0x00,  0x14,  0x00,  0x40, 
   0x02,  0x00,  0x08,  0x00,  0x20, 
   0x02,  0x00,  0x08,  0x00,  0x20, 
   0x04,  0x00,  0x08,  0x00,  0x10, 
   0x08,  0x00,  0x08,  0x00,  0x08, 
   0x10,  0xe0,  0xff,  0x03,  0x04, 
   0x20,  0x1f,  0x00,  0x7c,  0x03, 
   0xc0,  0x00,  0x00,  0x80,  0x01, 
   0x40,  0x00,  0x00,  0x80,  0x00, 
   0x40,  0xc0,  0xff,  0x81,  0x00, 
   0x40,  0x3c,  0x00,  0x9e,  0x00, 
   0xc0,  0x03,  0x00,  0xe0,  0x00, 
   0x80,  0x00,  0x00,  0x80,  0x00, 
   0x80,  0xc0,  0xff,  0x81,  0x00, 
   0x80,  0x3e,  0x00,  0xbe,  0x00, 
   0x80,  0x01,  0x00,  0xc0,  0x00, 
   0x80,  0x03,  0x00,  0xe0,  0x00, 
   0x00,  0x3c,  0x00,  0x1e,  0x00, 
   0x00,  0xc0,  0xff,  0x01,  0x00, };
