#define fselch5mm.202pk_20_width 	 40
#define fselch5mm.202pk_20_height 	 40
#define fselch5mm.202pk_20_xoff 	 0
#define fselch5mm.202pk_20_yoff 	 0
static char fselch5mm.202pk_20_bits[] = {
   0x88,  0x88,  0x00,  0x88,  0x88, 
   0x44,  0x44,  0x38,  0x44,  0x44, 
   0x22,  0x22,  0x44,  0x22,  0x22, 
   0x11,  0x11,  0x44,  0x10,  0x11, 
   0x88,  0x88,  0x44,  0x88,  0x88, 
   0x44,  0x44,  0x38,  0x44,  0x44, 
   0x22,  0x22,  0x28,  0x20,  0x22, 
   0x11,  0x11,  0x44,  0x10,  0x11, 
   0x88,  0x08,  0x83,  0x81,  0x88, 
   0x44,  0x84,  0x00,  0x42,  0x44, 
   0x22,  0x42,  0x00,  0x04,  0x22, 
   0x11,  0x21,  0x00,  0x08,  0x11, 
   0x88,  0x10,  0x10,  0x90,  0x88, 
   0x44,  0x10,  0x10,  0x10,  0x44, 
   0x22,  0x08,  0x10,  0x20,  0x22, 
   0x11,  0x09,  0xfe,  0x20,  0x11, 
   0x88,  0x08,  0x10,  0x20,  0x88, 
   0x44,  0x08,  0x10,  0x20,  0x44, 
   0x22,  0x08,  0x10,  0x20,  0x22, 
   0x11,  0x11,  0x00,  0x10,  0x11, 
   0x88,  0x10,  0x00,  0x90,  0x88, 
   0x44,  0x20,  0x00,  0x08,  0x44, 
   0x22,  0x22,  0xff,  0x09,  0x22, 
   0x11,  0xc1,  0x00,  0x06,  0x11, 
   0x88,  0x40,  0x00,  0x84,  0x88, 
   0x44,  0x24,  0x00,  0x48,  0x44, 
   0x22,  0xe2,  0xff,  0x0f,  0x22, 
   0x11,  0x31,  0x00,  0x18,  0x11, 
   0x88,  0x70,  0x00,  0x9c,  0x88, 
   0x44,  0x80,  0xff,  0x03,  0x44, 
   0x22,  0x00,  0x28,  0x00,  0x20, 
   0x01,  0x00,  0xc6,  0x00,  0x00, 
   0xc0,  0xff,  0x01,  0xff,  0x87, 
   0x30,  0x00,  0x10,  0x00,  0x18, 
   0x08,  0x00,  0x6c,  0x00,  0x20, 
   0xd1,  0xff,  0x83,  0xff,  0x17, 
   0x20,  0x00,  0x00,  0x00,  0x88, 
   0x04,  0x00,  0x44,  0x00,  0x40, 
   0x02,  0x22,  0x22,  0x22,  0x22, 
   0x11,  0x11,  0x11,  0x11,  0x11, };
