
#define fselch5mm.202pk_38_width 	 36
#define fselch5mm.202pk_38_height 	 35
#define fselch5mm.202pk_38_xoff 	 0
#define fselch5mm.202pk_38_yoff 	 0
static char fselch5mm.202pk_38_bits[] = {
   0x00,  0x00,  0x00,  0x00,  0x02, 
   0x00,  0x00,  0x00,  0x00,  0x05, 
   0x00,  0x00,  0x00,  0x00,  0x09, 
   0x00,  0x00,  0x00,  0x80,  0x04, 
   0x00,  0x00,  0x00,  0x80,  0x04, 
   0x00,  0x00,  0x00,  0x80,  0x04, 
   0x00,  0x00,  0x00,  0x80,  0x04, 
   0x00,  0x00,  0x00,  0x80,  0x04, 
   0x00,  0xe0,  0x03,  0x80,  0x04, 
   0x00,  0x18,  0x0c,  0x8c,  0x04, 
   0x00,  0x04,  0x30,  0x8f,  0x04, 
   0x00,  0x02,  0xc0,  0x8a,  0x04, 
   0x00,  0x01,  0x40,  0x92,  0x04, 
   0x80,  0x00,  0x20,  0x92,  0x04, 
   0x80,  0x40,  0x20,  0x52,  0x04, 
   0x4e,  0x40,  0x20,  0x52,  0x02, 
   0x31,  0x40,  0x20,  0x32,  0x02, 
   0x11,  0xf8,  0x23,  0x12,  0x01, 
   0x31,  0x40,  0x20,  0x32,  0x02, 
   0x4e,  0x40,  0x20,  0x52,  0x02, 
   0x80,  0x40,  0x20,  0x52,  0x04, 
   0x80,  0x00,  0x20,  0x92,  0x04, 
   0x00,  0x01,  0x40,  0x92,  0x04, 
   0x00,  0x02,  0xc0,  0x8a,  0x04, 
   0x00,  0x04,  0x30,  0x8f,  0x04, 
   0x00,  0x18,  0x0c,  0x8c,  0x04, 
   0x00,  0xe0,  0x03,  0x80,  0x04, 
   0x00,  0x00,  0x00,  0x80,  0x04, 
   0x00,  0x00,  0x00,  0x80,  0x04, 
   0x00,  0x00,  0x00,  0x80,  0x04, 
   0x00,  0x00,  0x00,  0x80,  0x04, 
   0x00,  0x00,  0x00,  0x80,  0x04, 
   0x00,  0x00,  0x00,  0x00,  0x09, 
   0x00,  0x00,  0x00,  0x00,  0x05, 
   0x00,  0x00,  0x00,  0x00,  0x02, };
