<?xml version="1.0" standalone="no"?>
<!DOCTYPE svg PUBLIC "-//W3C//DTD SVG 1.1//EN"
 "http://www.w3.org/Graphics/SVG/1.1/DTD/svg11.dtd">

<svg version="1.1" xmlns="http://www.w3.org/2000/svg"
  xmlns:xlink="http://www.w3.org/1999/xlink">
<!-- automatically generated by aafigure -->
<line x1="132.3" y1="10.5" x2="296.1" y2="10.5" stroke="#000000" stroke-width="2.0" />
<line x1="132.3" y1="10.5" x2="132.3" y2="52.5" stroke="#000000" stroke-width="2.0" />
<line x1="296.1" y1="10.5" x2="296.1" y2="52.5" stroke="#000000" stroke-width="2.0" />
<line x1="132.3" y1="52.5" x2="207.9" y2="52.5" stroke="#000000" stroke-width="2.0" />
<line x1="207.9" y1="52.5" x2="296.1" y2="52.5" stroke="#000000" stroke-width="2.0" />
<line x1="207.9" y1="52.5" x2="207.9" y2="84.0" stroke="#000000" stroke-width="2.0" />
<g>
    <line x1="207.9" y1="147.0" x2="202.65" y2="131.25" stroke="#000000" stroke-width="2.0" />
    <line x1="207.9" y1="147.0" x2="213.15" y2="131.25" stroke="#000000" stroke-width="2.0" />
    <line x1="207.9" y1="105.0" x2="207.9" y2="147.0" stroke="#000000" stroke-width="2.0" />
</g>
<line x1="157.5" y1="136.5" x2="157.5" y2="157.5" stroke="#000000" stroke-width="2.0" />
<line x1="157.5" y1="136.5" x2="201.6" y2="136.5" stroke="#000000" stroke-width="2.0" />
<line x1="214.2" y1="136.5" x2="258.3" y2="136.5" stroke="#000000" stroke-width="2.0" />
<line x1="258.3" y1="136.5" x2="258.3" y2="157.5" stroke="#000000" stroke-width="2.0" />
<g>
    <line x1="157.5" y1="157.5" x2="141.75" y2="162.75" stroke="#000000" stroke-width="2.0" />
    <line x1="157.5" y1="157.5" x2="141.75" y2="152.25" stroke="#000000" stroke-width="2.0" />
    <line x1="56.7" y1="157.5" x2="157.5" y2="157.5" stroke="#000000" stroke-width="2.0" />
</g>
<line x1="157.5" y1="157.5" x2="157.5" y2="178.5" stroke="#000000" stroke-width="2.0" />
<line x1="258.3" y1="157.5" x2="258.3" y2="178.5" stroke="#000000" stroke-width="2.0" />
<line x1="56.7" y1="157.5" x2="56.7" y2="336.0" stroke="#000000" stroke-width="2.0" />
<line x1="157.5" y1="178.5" x2="207.9" y2="178.5" stroke="#000000" stroke-width="2.0" />
<line x1="207.9" y1="178.5" x2="258.3" y2="178.5" stroke="#000000" stroke-width="2.0" />
<line x1="207.9" y1="178.5" x2="207.9" y2="210.0" stroke="#000000" stroke-width="2.0" />
<g>
    <line x1="207.9" y1="273.0" x2="202.65" y2="257.25" stroke="#000000" stroke-width="2.0" />
    <line x1="207.9" y1="273.0" x2="213.15" y2="257.25" stroke="#000000" stroke-width="2.0" />
    <line x1="207.9" y1="231.0" x2="207.9" y2="273.0" stroke="#000000" stroke-width="2.0" />
</g>
<line x1="132.3" y1="262.5" x2="201.6" y2="262.5" stroke="#000000" stroke-width="2.0" />
<line x1="214.2" y1="262.5" x2="283.5" y2="262.5" stroke="#000000" stroke-width="2.0" />
<line x1="283.5" y1="262.5" x2="283.5" y2="283.5" stroke="#000000" stroke-width="2.0" />
<line x1="384.3" y1="262.5" x2="384.3" y2="283.5" stroke="#000000" stroke-width="2.0" />
<line x1="384.3" y1="262.5" x2="485.1" y2="262.5" stroke="#000000" stroke-width="2.0" />
<line x1="485.1" y1="262.5" x2="686.7" y2="262.5" stroke="#000000" stroke-width="2.0" />
<line x1="132.3" y1="262.5" x2="132.3" y2="304.5" stroke="#000000" stroke-width="2.0" />
<line x1="283.5" y1="283.5" x2="283.5" y2="304.5" stroke="#000000" stroke-width="2.0" />
<g>
    <line x1="384.3" y1="283.5" x2="368.55" y2="288.75" stroke="#000000" stroke-width="2.0" />
    <line x1="384.3" y1="283.5" x2="368.55" y2="278.25" stroke="#000000" stroke-width="2.0" />
    <line x1="283.5" y1="283.5" x2="384.3" y2="283.5" stroke="#000000" stroke-width="2.0" />
</g>
<line x1="384.3" y1="283.5" x2="384.3" y2="304.5" stroke="#000000" stroke-width="2.0" />
<line x1="686.7" y1="262.5" x2="686.7" y2="304.5" stroke="#000000" stroke-width="2.0" />
<line x1="132.3" y1="304.5" x2="207.9" y2="304.5" stroke="#000000" stroke-width="2.0" />
<line x1="207.9" y1="304.5" x2="283.5" y2="304.5" stroke="#000000" stroke-width="2.0" />
<line x1="384.3" y1="304.5" x2="485.1" y2="304.5" stroke="#000000" stroke-width="2.0" />
<line x1="485.1" y1="304.5" x2="686.7" y2="304.5" stroke="#000000" stroke-width="2.0" />
<line x1="207.9" y1="304.5" x2="207.9" y2="336.0" stroke="#000000" stroke-width="2.0" />
<line x1="56.7" y1="357.0" x2="56.7" y2="535.5" stroke="#000000" stroke-width="2.0" />
<g>
    <line x1="207.9" y1="399.0" x2="202.65" y2="383.25" stroke="#000000" stroke-width="2.0" />
    <line x1="207.9" y1="399.0" x2="213.15" y2="383.25" stroke="#000000" stroke-width="2.0" />
    <line x1="207.9" y1="357.0" x2="207.9" y2="399.0" stroke="#000000" stroke-width="2.0" />
</g>
<line x1="107.1" y1="388.5" x2="201.6" y2="388.5" stroke="#000000" stroke-width="2.0" />
<line x1="214.2" y1="388.5" x2="396.9" y2="388.5" stroke="#000000" stroke-width="2.0" />
<line x1="107.1" y1="388.5" x2="107.1" y2="430.5" stroke="#000000" stroke-width="2.0" />
<line x1="396.9" y1="388.5" x2="396.9" y2="430.5" stroke="#000000" stroke-width="2.0" />
<line x1="107.1" y1="430.5" x2="207.9" y2="430.5" stroke="#000000" stroke-width="2.0" />
<line x1="207.9" y1="430.5" x2="396.9" y2="430.5" stroke="#000000" stroke-width="2.0" />
<line x1="207.9" y1="430.5" x2="207.9" y2="493.5" stroke="#000000" stroke-width="2.0" />
<line x1="94.5" y1="493.5" x2="207.9" y2="493.5" stroke="#000000" stroke-width="2.0" />
<line x1="207.9" y1="493.5" x2="321.3" y2="493.5" stroke="#000000" stroke-width="2.0" />
<line x1="321.3" y1="493.5" x2="497.7" y2="493.5" stroke="#000000" stroke-width="2.0" />
<g>
    <line x1="94.5" y1="546.0" x2="89.25" y2="530.25" stroke="#000000" stroke-width="2.0" />
    <line x1="94.5" y1="546.0" x2="99.75" y2="530.25" stroke="#000000" stroke-width="2.0" />
    <line x1="94.5" y1="493.5" x2="94.5" y2="546.0" stroke="#000000" stroke-width="2.0" />
</g>
<g>
    <line x1="321.3" y1="546.0" x2="316.05" y2="530.25" stroke="#000000" stroke-width="2.0" />
    <line x1="321.3" y1="546.0" x2="326.55" y2="530.25" stroke="#000000" stroke-width="2.0" />
    <line x1="321.3" y1="493.5" x2="321.3" y2="546.0" stroke="#000000" stroke-width="2.0" />
</g>
<g>
    <line x1="497.7" y1="546.0" x2="492.45" y2="530.25" stroke="#000000" stroke-width="2.0" />
    <line x1="497.7" y1="546.0" x2="502.95" y2="530.25" stroke="#000000" stroke-width="2.0" />
    <line x1="497.7" y1="493.5" x2="497.7" y2="546.0" stroke="#000000" stroke-width="2.0" />
</g>
<line x1="31.5" y1="535.5" x2="56.7" y2="535.5" stroke="#000000" stroke-width="2.0" />
<line x1="56.7" y1="535.5" x2="88.2" y2="535.5" stroke="#000000" stroke-width="2.0" />
<line x1="100.8" y1="535.5" x2="182.7" y2="535.5" stroke="#000000" stroke-width="2.0" />
<line x1="245.7" y1="535.5" x2="315.0" y2="535.5" stroke="#000000" stroke-width="2.0" />
<line x1="327.6" y1="535.5" x2="396.9" y2="535.5" stroke="#000000" stroke-width="2.0" />
<line x1="31.5" y1="535.5" x2="31.5" y2="598.5" stroke="#000000" stroke-width="2.0" />
<line x1="182.7" y1="535.5" x2="182.7" y2="598.5" stroke="#000000" stroke-width="2.0" />
<line x1="245.7" y1="535.5" x2="245.7" y2="598.5" stroke="#000000" stroke-width="2.0" />
<line x1="396.9" y1="535.5" x2="396.9" y2="598.5" stroke="#000000" stroke-width="2.0" />
<g>
    <text x="466.2" y="563.85" font-family="sans-serif" font-size="21.0" fill="#000000" >
  ?
    </text>
    <line x1="466.2" y1="546.0" x2="466.2" y2="567.0" stroke="#000000" stroke-width="2.0" />
    <line x1="466.2" y1="546.0" x2="478.8" y2="546.0" stroke="#000000" stroke-width="2.0" />
    <text x="466.2" y="584.85" font-family="sans-serif" font-size="21.0" fill="#000000" >
  ?
    </text>
    <line x1="466.2" y1="567.0" x2="466.2" y2="588.0" stroke="#000000" stroke-width="2.0" />
    <line x1="466.2" y1="588.0" x2="478.8" y2="588.0" stroke="#000000" stroke-width="2.0" />
    <text x="478.8" y="584.85" font-family="sans-serif" font-size="21.0" fill="#000000" >
  ?
    </text>
    <line x1="478.8" y1="588.0" x2="491.4" y2="588.0" stroke="#000000" stroke-width="2.0" />
    <text x="478.8" y="563.85" font-family="sans-serif" font-size="21.0" fill="#000000" >
  ?
    </text>
    <line x1="478.8" y1="546.0" x2="491.4" y2="546.0" stroke="#000000" stroke-width="2.0" />
    <text x="491.4" y="563.85" font-family="sans-serif" font-size="21.0" fill="#000000" >
  ?
    </text>
    <line x1="491.4" y1="546.0" x2="504.0" y2="546.0" stroke="#000000" stroke-width="2.0" />
    <text x="491.4" y="584.85" font-family="sans-serif" font-size="21.0" fill="#000000" >
  ?
    </text>
    <line x1="491.4" y1="588.0" x2="504.0" y2="588.0" stroke="#000000" stroke-width="2.0" />
    <text x="504.0" y="584.85" font-family="sans-serif" font-size="21.0" fill="#000000" >
  ?
    </text>
    <line x1="504.0" y1="588.0" x2="516.6" y2="588.0" stroke="#000000" stroke-width="2.0" />
    <text x="504.0" y="563.85" font-family="sans-serif" font-size="21.0" fill="#000000" >
  ?
    </text>
    <line x1="504.0" y1="546.0" x2="516.6" y2="546.0" stroke="#000000" stroke-width="2.0" />
    <text x="516.6" y="563.85" font-family="sans-serif" font-size="21.0" fill="#000000" >
  ?
    </text>
    <line x1="529.2" y1="546.0" x2="529.2" y2="567.0" stroke="#000000" stroke-width="2.0" />
    <line x1="516.6" y1="546.0" x2="529.2" y2="546.0" stroke="#000000" stroke-width="2.0" />
    <text x="516.6" y="584.85" font-family="sans-serif" font-size="21.0" fill="#000000" >
  ?
    </text>
    <line x1="529.2" y1="567.0" x2="529.2" y2="588.0" stroke="#000000" stroke-width="2.0" />
    <line x1="516.6" y1="588.0" x2="529.2" y2="588.0" stroke="#000000" stroke-width="2.0" />
</g>
<line x1="31.5" y1="598.5" x2="182.7" y2="598.5" stroke="#000000" stroke-width="2.0" />
<line x1="245.7" y1="598.5" x2="396.9" y2="598.5" stroke="#000000" stroke-width="2.0" />
<text x="138.6" y="38.85" font-family="sans-serif" font-size="21.0" fill="#000000" >
  PageAlias
</text>
<text x="151.2" y="101.85" font-family="sans-serif" font-size="21.0" fill="#000000" >
  foreign key
</text>
<text x="176.4" y="164.85" font-family="sans-serif" font-size="21.0" fill="#000000" >
  Page
</text>
<text x="189.0" y="227.85" font-family="sans-serif" font-size="21.0" fill="#000000" >
  use
</text>
<text x="151.2" y="290.85" font-family="sans-serif" font-size="21.0" fill="#000000" >
  Template 1
</text>
<text x="403.2" y="290.85" font-family="sans-serif" font-size="21.0" fill="#000000" >
  Placeholder Node title
</text>
<text x="12.6" y="353.85" font-family="sans-serif" font-size="21.0" fill="#000000" >
  foreign key
</text>
<text x="176.4" y="353.85" font-family="sans-serif" font-size="21.0" fill="#000000" >
  contains
</text>
<text x="126.0" y="416.85" font-family="sans-serif" font-size="21.0" fill="#000000" >
  Placeholder Node body
</text>
<text x="50.4" y="563.85" font-family="sans-serif" font-size="21.0" fill="#000000" >
  Content
</text>
<text x="264.6" y="563.85" font-family="sans-serif" font-size="21.0" fill="#000000" >
  Content
</text>
<text x="50.4" y="584.85" font-family="sans-serif" font-size="21.0" fill="#000000" >
  english
</text>
<text x="264.6" y="584.85" font-family="sans-serif" font-size="21.0" fill="#000000" >
  french
</text>
</svg>
