#define fselch12.218pk_18_width 	 36
#define fselch12.218pk_18_height 	 36
#define fselch12.218pk_18_xoff 	 0
#define fselch12.218pk_18_yoff 	 0
static char fselch12.218pk_18_bits[] = {
   0x88,  0x88,  0x88,  0x88,  0x08, 
   0x44,  0x44,  0x44,  0x44,  0x04, 
   0x22,  0x22,  0x20,  0x22,  0x02, 
   0x11,  0x11,  0x07,  0x11,  0x01, 
   0x88,  0x88,  0x88,  0x88,  0x08, 
   0x44,  0x44,  0x10,  0x44,  0x04, 
   0x22,  0x42,  0x10,  0x22,  0x02, 
   0x11,  0x41,  0x10,  0x11,  0x01, 
   0x88,  0x48,  0x90,  0x88,  0x08, 
   0x44,  0xc4,  0x18,  0x44,  0x04, 
   0x22,  0x22,  0x20,  0x22,  0x02, 
   0x11,  0x11,  0x40,  0x10,  0x01, 
   0x88,  0x08,  0x80,  0x88,  0x08, 
   0x44,  0x08,  0x80,  0x44,  0x04, 
   0x22,  0x08,  0x80,  0x20,  0x02, 
   0x11,  0x09,  0x80,  0x10,  0x01, 
   0x88,  0x08,  0x80,  0x88,  0x08, 
   0x44,  0x08,  0x40,  0x44,  0x04, 
   0x22,  0x12,  0x20,  0x22,  0x02, 
   0x11,  0x61,  0x30,  0x10,  0x01, 
   0x88,  0x30,  0xc0,  0x88,  0x08, 
   0x44,  0x08,  0x00,  0x41,  0x04, 
   0x22,  0x04,  0x00,  0x22,  0x02, 
   0x11,  0x02,  0x00,  0x12,  0x01, 
   0x08,  0x02,  0x00,  0x84,  0x08, 
   0x04,  0x01,  0x00,  0x44,  0x04, 
   0x02,  0x01,  0x00,  0x04,  0x02, 
   0x91,  0x00,  0x00,  0x08,  0x01, 
   0x88,  0x00,  0x00,  0x88,  0x08, 
   0x84,  0x00,  0x00,  0x48,  0x04, 
   0x82,  0x00,  0x00,  0x08,  0x02, 
   0x91,  0xff,  0xff,  0x0f,  0x01, 
   0x08,  0x00,  0x00,  0x80,  0x08, 
   0x44,  0x44,  0x44,  0x44,  0x04, 
   0x22,  0x22,  0x22,  0x22,  0x02, 
   0x11,  0x11,  0x11,  0x11,  0x01, };
