#define fselch12.218pk_22_width 	 36
#define fselch12.218pk_22_height 	 36
#define fselch12.218pk_22_xoff 	 0
#define fselch12.218pk_22_yoff 	 0
static char fselch12.218pk_22_bits[] = {
   0x88,  0x88,  0x88,  0x88,  0x08, 
   0x44,  0x44,  0x44,  0x44,  0x04, 
   0x22,  0x22,  0x20,  0x22,  0x02, 
   0x11,  0x11,  0x17,  0x10,  0x01, 
   0x88,  0x86,  0x08,  0x8b,  0x08, 
   0x44,  0x89,  0x88,  0x44,  0x04, 
   0x20,  0x09,  0x87,  0x24,  0x00, 
   0x0c,  0x06,  0x12,  0x93,  0x01, 
   0x92,  0x04,  0x02,  0x49,  0x02, 
   0x12,  0x4c,  0x85,  0x41,  0x02, 
   0x0a,  0x2c,  0xa5,  0x81,  0x02, 
   0x0c,  0x0c,  0x85,  0x91,  0x01, 
   0x98,  0x14,  0x45,  0xc9,  0x08, 
   0x30,  0x94,  0x48,  0x61,  0x04, 
   0x32,  0x92,  0x48,  0x61,  0x02, 
   0x51,  0xa2,  0x28,  0x52,  0x00, 
   0x50,  0xa2,  0x28,  0x52,  0x08, 
   0x90,  0xa2,  0x28,  0x4a,  0x04, 
   0x12,  0x43,  0x10,  0x46,  0x02, 
   0x21,  0xd3,  0x5f,  0x26,  0x01, 
   0xa0,  0x6e,  0xa0,  0x2b,  0x08, 
   0x64,  0x03,  0x00,  0x34,  0x04, 
   0x42,  0x00,  0x00,  0x10,  0x02, 
   0x81,  0xf8,  0xff,  0x08,  0x01, 
   0x08,  0x07,  0x00,  0x87,  0x08, 
   0x04,  0x01,  0x00,  0x44,  0x04, 
   0x22,  0xf1,  0x7f,  0x24,  0x02, 
   0x11,  0x0f,  0x80,  0x07,  0x01, 
   0x08,  0x01,  0x00,  0x84,  0x08, 
   0x84,  0xfe,  0xff,  0x4b,  0x04, 
   0xc2,  0x01,  0x00,  0x1c,  0x02, 
   0xd1,  0x07,  0x00,  0x1f,  0x01, 
   0x08,  0xf8,  0xff,  0x80,  0x08, 
   0x44,  0x00,  0x00,  0x40,  0x04, 
   0x22,  0x02,  0x00,  0x22,  0x02, 
   0x11,  0x11,  0x11,  0x11,  0x01, };
