#define fselch12.218pk_126_width 	 36
#define fselch12.218pk_126_height 	 36
#define fselch12.218pk_126_xoff 	 0
#define fselch12.218pk_126_yoff 	 0
static char fselch12.218pk_126_bits[] = {
   0x88,  0x88,  0x88,  0x88,  0x08, 
   0x44,  0x44,  0x44,  0x44,  0x04, 
   0x22,  0x22,  0x22,  0x22,  0x02, 
   0x11,  0x11,  0x11,  0x11,  0x01, 
   0x08,  0x00,  0x00,  0x80,  0x08, 
   0x84,  0xff,  0xff,  0x4f,  0x04, 
   0x82,  0x00,  0x00,  0x08,  0x02, 
   0x91,  0x00,  0x00,  0x08,  0x01, 
   0x88,  0x00,  0x00,  0x88,  0x08, 
   0x84,  0x00,  0x00,  0x48,  0x04, 
   0x02,  0x01,  0x00,  0x04,  0x02, 
   0x11,  0x01,  0x00,  0x04,  0x01, 
   0x08,  0x01,  0x00,  0x82,  0x08, 
   0x44,  0x02,  0x00,  0x42,  0x04, 
   0x22,  0x02,  0x00,  0x21,  0x02, 
   0x11,  0x04,  0x80,  0x10,  0x01, 
   0x88,  0x18,  0x60,  0x88,  0x08, 
   0x44,  0x60,  0x30,  0x44,  0x04, 
   0x22,  0x22,  0x40,  0x22,  0x02, 
   0x11,  0x11,  0x80,  0x10,  0x01, 
   0x88,  0x08,  0x80,  0x88,  0x08, 
   0x44,  0x08,  0x80,  0x44,  0x04, 
   0x22,  0x08,  0x80,  0x20,  0x02, 
   0x11,  0x09,  0x80,  0x10,  0x01, 
   0x88,  0x08,  0x80,  0x88,  0x08, 
   0x44,  0x10,  0x40,  0x44,  0x04, 
   0x22,  0x22,  0x20,  0x22,  0x02, 
   0x11,  0xc1,  0x18,  0x11,  0x01, 
   0x88,  0x48,  0x90,  0x88,  0x08, 
   0x44,  0x44,  0x10,  0x44,  0x04, 
   0x22,  0x42,  0x10,  0x22,  0x02, 
   0x11,  0x41,  0x10,  0x11,  0x01, 
   0x88,  0x88,  0x88,  0x88,  0x08, 
   0x44,  0x04,  0x47,  0x44,  0x04, 
   0x22,  0x22,  0x20,  0x22,  0x02, 
   0x11,  0x11,  0x11,  0x11,  0x01, };
