#define fselch12.218pk_‚_width 	 36
#define fselch12.218pk_‚_height 	 36
#define fselch12.218pk_‚_xoff 	 0
#define fselch12.218pk_‚_yoff 	 0
static char fselch12.218pk_‚_bits[] = {
   0x88,  0x88,  0x88,  0x88,  0x08, 
   0x44,  0x44,  0x44,  0x44,  0x04, 
   0x22,  0x02,  0x00,  0x22,  0x02, 
   0x11,  0x00,  0x00,  0x10,  0x01, 
   0x08,  0xf8,  0xff,  0x80,  0x08, 
   0xc4,  0x07,  0x00,  0x5f,  0x04, 
   0xc2,  0x01,  0x00,  0x1c,  0x02, 
   0x91,  0xfe,  0xff,  0x0b,  0x01, 
   0x08,  0x01,  0x00,  0x84,  0x08, 
   0x04,  0x0f,  0x80,  0x47,  0x04, 
   0x22,  0xf1,  0x7f,  0x24,  0x02, 
   0x11,  0x01,  0x00,  0x04,  0x01, 
   0x08,  0x07,  0x00,  0x87,  0x08, 
   0x84,  0xf8,  0xff,  0x08,  0x04, 
   0x42,  0x00,  0x00,  0x10,  0x02, 
   0x61,  0x01,  0x00,  0x36,  0x01, 
   0xa0,  0x2e,  0xb0,  0x2b,  0x08, 
   0x24,  0xd3,  0x5f,  0x26,  0x04, 
   0x12,  0x43,  0x10,  0x46,  0x02, 
   0x91,  0xa2,  0x28,  0x4a,  0x00, 
   0x50,  0xa2,  0x28,  0x52,  0x08, 
   0x50,  0xa2,  0x28,  0x52,  0x04, 
   0x32,  0x94,  0x48,  0x62,  0x02, 
   0x31,  0x94,  0x48,  0x61,  0x00, 
   0x98,  0x14,  0x45,  0xc9,  0x08, 
   0x4c,  0x0c,  0x85,  0x81,  0x01, 
   0x0a,  0x2c,  0xa5,  0x81,  0x02, 
   0x12,  0x0c,  0x95,  0x41,  0x02, 
   0x92,  0x04,  0x02,  0x49,  0x02, 
   0x4c,  0x46,  0x02,  0x83,  0x01, 
   0x20,  0x09,  0x87,  0x24,  0x00, 
   0x11,  0x89,  0x88,  0x14,  0x01, 
   0x88,  0x86,  0x08,  0x8b,  0x08, 
   0x44,  0x40,  0x47,  0x44,  0x04, 
   0x22,  0x22,  0x20,  0x22,  0x02, 
   0x11,  0x11,  0x11,  0x11,  0x01, };
