#define fselch12.218pk_ダwidth 	 36
#define fselch12.218pk_ダheight 	 36
#define fselch12.218pk_ダxoff 	 0
#define fselch12.218pk_ダyoff 	 0
static char fselch12.218pk_ダbits[] = {
   0x88,  0x88,  0x88,  0x88,  0x08, 
   0x44,  0x44,  0x44,  0x44,  0x04, 
   0x22,  0x22,  0x22,  0x22,  0x02, 
   0x11,  0x01,  0x00,  0x11,  0x01, 
   0x88,  0x00,  0x00,  0x88,  0x08, 
   0x44,  0xe0,  0x3f,  0x40,  0x04, 
   0x22,  0x1c,  0xc0,  0x23,  0x02, 
   0x11,  0x0f,  0x80,  0x07,  0x01, 
   0x08,  0xf1,  0x7f,  0x84,  0x08, 
   0x04,  0x01,  0x00,  0x44,  0x04, 
   0x22,  0x0f,  0x80,  0x27,  0x02, 
   0x11,  0xf1,  0x7f,  0x04,  0x01, 
   0x08,  0x01,  0x00,  0x84,  0x08, 
   0x04,  0x07,  0x00,  0x47,  0x04, 
   0x82,  0xf8,  0xff,  0x08,  0x02, 
   0x41,  0x00,  0x02,  0x10,  0x01, 
   0x20,  0x00,  0x02,  0x20,  0x08, 
   0x10,  0x00,  0x02,  0x40,  0x04, 
   0x08,  0x00,  0x02,  0x80,  0x00, 
   0x09,  0x00,  0x05,  0x80,  0x00, 
   0x08,  0x00,  0x05,  0x80,  0x08, 
   0x08,  0x80,  0x0d,  0x80,  0x04, 
   0x08,  0x80,  0x08,  0x80,  0x00, 
   0x11,  0x40,  0x10,  0x40,  0x00, 
   0x60,  0x70,  0x70,  0x30,  0x08, 
   0x84,  0x4f,  0x90,  0x0f,  0x04, 
   0x22,  0x40,  0x10,  0x20,  0x02, 
   0x11,  0x91,  0x08,  0x11,  0x01, 
   0x88,  0x08,  0x87,  0x88,  0x08, 
   0x44,  0x44,  0x42,  0x44,  0x04, 
   0x22,  0x22,  0x22,  0x22,  0x02, 
   0x11,  0x11,  0x02,  0x11,  0x01, 
   0x88,  0x88,  0x8f,  0x88,  0x08, 
   0x44,  0x44,  0x42,  0x44,  0x04, 
   0x22,  0x22,  0x20,  0x22,  0x02, 
   0x11,  0x11,  0x10,  0x11,  0x01, };
