#define fselch12.218pk_21_width 	 36
#define fselch12.218pk_21_height 	 36
#define fselch12.218pk_21_xoff 	 0
#define fselch12.218pk_21_yoff 	 0
static char fselch12.218pk_21_bits[] = {
   0x88,  0x88,  0x88,  0x88,  0x08, 
   0x44,  0x44,  0x44,  0x44,  0x04, 
   0x22,  0x22,  0x22,  0x22,  0x02, 
   0x11,  0x00,  0x10,  0x10,  0x01, 
   0x08,  0x00,  0x00,  0x80,  0x08, 
   0x84,  0x8f,  0x8f,  0x4f,  0x04, 
   0xa2,  0x88,  0x88,  0x28,  0x02, 
   0x91,  0xf8,  0xf8,  0x08,  0x01, 
   0x88,  0x00,  0x00,  0x88,  0x08, 
   0x84,  0x00,  0x00,  0x48,  0x04, 
   0xa2,  0xff,  0xff,  0x2f,  0x02, 
   0x11,  0x01,  0x00,  0x12,  0x01, 
   0x88,  0xfe,  0xff,  0x89,  0x08, 
   0x44,  0x04,  0x00,  0x45,  0x04, 
   0x22,  0x04,  0x00,  0x21,  0x02, 
   0x11,  0x05,  0x00,  0x11,  0x01, 
   0x88,  0x04,  0x00,  0x89,  0x08, 
   0x44,  0x04,  0x00,  0x45,  0x04, 
   0x22,  0x04,  0x00,  0x21,  0x02, 
   0x11,  0x05,  0x00,  0x11,  0x01, 
   0x88,  0x04,  0x00,  0x89,  0x08, 
   0x44,  0x04,  0x00,  0x45,  0x04, 
   0x22,  0xfc,  0xff,  0x21,  0x02, 
   0x11,  0x06,  0x00,  0x12,  0x01, 
   0x08,  0x01,  0x00,  0x84,  0x08, 
   0x84,  0xff,  0xff,  0x4f,  0x04, 
   0xa2,  0x00,  0x00,  0x28,  0x02, 
   0x81,  0x00,  0x00,  0x08,  0x01, 
   0x80,  0xff,  0xff,  0x3f,  0x08, 
   0xe4,  0x00,  0x00,  0x20,  0x04, 
   0x22,  0x00,  0x00,  0x20,  0x02, 
   0xe1,  0xff,  0xff,  0x3f,  0x01, 
   0x08,  0x00,  0x00,  0x80,  0x08, 
   0x44,  0x44,  0x44,  0x44,  0x04, 
   0x22,  0x22,  0x22,  0x22,  0x02, 
   0x11,  0x11,  0x11,  0x11,  0x01, };
