#define fselch12.218pk_41_width 	 29
#define fselch12.218pk_41_height 	 29
#define fselch12.218pk_41_xoff 	 0
#define fselch12.218pk_41_yoff 	 0
static char fselch12.218pk_41_bits[] = {
   0x00,  0xf8,  0x00,  0x00, 
   0x00,  0x04,  0x01,  0x00, 
   0x00,  0x02,  0x02,  0x00, 
   0x00,  0x02,  0x04,  0x00, 
   0x00,  0x01,  0x08,  0x00, 
   0x00,  0x01,  0xf0,  0x07, 
   0x00,  0x01,  0x90,  0x04, 
   0x00,  0x01,  0x90,  0x0c, 
   0x00,  0x01,  0x88,  0x0c, 
   0x00,  0x02,  0x48,  0x0a, 
   0x00,  0x02,  0x48,  0x12, 
   0x80,  0x07,  0x48,  0x12, 
   0x42,  0x18,  0x48,  0x12, 
   0x22,  0x70,  0x48,  0x12, 
   0x3f,  0x80,  0x4f,  0x12, 
   0x22,  0x70,  0x48,  0x12, 
   0x42,  0x18,  0x48,  0x12, 
   0x80,  0x07,  0x48,  0x12, 
   0x00,  0x02,  0x48,  0x12, 
   0x00,  0x02,  0x48,  0x0a, 
   0x00,  0x01,  0x88,  0x0c, 
   0x00,  0x01,  0x90,  0x0c, 
   0x00,  0x01,  0x90,  0x0c, 
   0x00,  0x01,  0xf0,  0x07, 
   0x00,  0x01,  0x08,  0x00, 
   0x00,  0x02,  0x04,  0x00, 
   0x00,  0x02,  0x02,  0x00, 
   0x00,  0x04,  0x01,  0x00, 
   0x00,  0xf8,  0x00,  0x00, };
