
#define fselch12.218pk_73_width 	 28
#define fselch12.218pk_73_height 	 29
#define fselch12.218pk_73_xoff 	 0
#define fselch12.218pk_73_yoff 	 0
static char fselch12.218pk_73_bits[] = {
   0x00,  0x0f,  0x00,  0x00, 
   0x80,  0x30,  0x00,  0x00, 
   0x80,  0x4c,  0x00,  0x00, 
   0x80,  0x88,  0x01,  0x00, 
   0x80,  0x01,  0x0e,  0x00, 
   0x40,  0x02,  0x30,  0x00, 
   0x80,  0x00,  0x4c,  0x08, 
   0x00,  0x01,  0x98,  0x0f, 
   0x07,  0x02,  0x30,  0x04, 
   0x09,  0x04,  0xa0,  0x02, 
   0x31,  0x08,  0x00,  0x01, 
   0x41,  0x08,  0x00,  0x03, 
   0x81,  0x10,  0x00,  0x0c, 
   0x01,  0x11,  0x00,  0x08, 
   0x01,  0x26,  0x80,  0x07, 
   0x01,  0x78,  0x00,  0x01, 
   0x01,  0x80,  0x07,  0x01, 
   0x01,  0x00,  0x00,  0x01, 
   0x01,  0x00,  0x80,  0x01, 
   0x01,  0x00,  0x80,  0x00, 
   0x01,  0x00,  0x40,  0x00, 
   0x01,  0x00,  0x60,  0x00, 
   0x01,  0x00,  0x30,  0x00, 
   0x01,  0x00,  0x1c,  0x00, 
   0x01,  0x00,  0x07,  0x00, 
   0x01,  0xe0,  0x03,  0x00, 
   0x01,  0xff,  0x00,  0x00, 
   0xff,  0x1f,  0x00,  0x00, 
   0xff,  0x00,  0x00,  0x00, };
