#define fselch12.218pk_91_width 	 36
#define fselch12.218pk_91_height 	 36
#define fselch12.218pk_91_xoff 	 0
#define fselch12.218pk_91_yoff 	 0
static char fselch12.218pk_91_bits[] = {
   0x88,  0x88,  0x88,  0x88,  0x08, 
   0x44,  0x44,  0x44,  0x44,  0x04, 
   0x22,  0x22,  0x22,  0x22,  0x02, 
   0x11,  0x11,  0x10,  0x11,  0x01, 
   0x88,  0xe8,  0x81,  0x88,  0x08, 
   0x44,  0x14,  0x46,  0x44,  0x04, 
   0x22,  0x92,  0x09,  0x22,  0x02, 
   0x11,  0x11,  0x31,  0x10,  0x01, 
   0x88,  0x30,  0xc0,  0x81,  0x08, 
   0x44,  0x48,  0x00,  0x06,  0x04, 
   0x22,  0x12,  0x80,  0x09,  0x01, 
   0x01,  0x21,  0x00,  0xf3,  0x01, 
   0xe0,  0x48,  0x00,  0x86,  0x08, 
   0x24,  0x81,  0x00,  0x54,  0x04, 
   0x22,  0x26,  0x01,  0x20,  0x02, 
   0x21,  0x08,  0x01,  0x60,  0x00, 
   0x20,  0x10,  0x02,  0x80,  0x09, 
   0x24,  0x20,  0x02,  0x00,  0x01, 
   0x22,  0xc0,  0x04,  0xf0,  0x00, 
   0x21,  0x00,  0x0f,  0x20,  0x00, 
   0x20,  0x00,  0xf0,  0x20,  0x08, 
   0x24,  0x00,  0x00,  0x20,  0x04, 
   0x22,  0x00,  0x00,  0x30,  0x02, 
   0x21,  0x00,  0x00,  0x10,  0x01, 
   0x20,  0x00,  0x00,  0x88,  0x08, 
   0x24,  0x00,  0x00,  0x4c,  0x04, 
   0x22,  0x00,  0x00,  0x26,  0x02, 
   0x21,  0x00,  0x80,  0x13,  0x01, 
   0x20,  0x00,  0xe0,  0x88,  0x08, 
   0x24,  0x00,  0x7c,  0x44,  0x04, 
   0x22,  0xe0,  0x1f,  0x22,  0x02, 
   0xe1,  0xff,  0x03,  0x11,  0x01, 
   0xe0,  0x1f,  0x88,  0x88,  0x08, 
   0x04,  0x40,  0x44,  0x44,  0x04, 
   0x22,  0x22,  0x22,  0x22,  0x02, 
   0x11,  0x11,  0x11,  0x11,  0x01, };
