#define fselch12.218pk_ê_width 	 36
#define fselch12.218pk_ê_height 	 36
#define fselch12.218pk_ê_xoff 	 0
#define fselch12.218pk_ê_yoff 	 0
static char fselch12.218pk_ê_bits[] = {
   0x88,  0x88,  0x88,  0x88,  0x08, 
   0x44,  0x44,  0x44,  0x44,  0x04, 
   0x22,  0x22,  0x22,  0x22,  0x02, 
   0x11,  0x11,  0x11,  0x11,  0x01, 
   0x88,  0x88,  0x88,  0x88,  0x08, 
   0x04,  0x44,  0x44,  0x04,  0x04, 
   0x12,  0x22,  0x22,  0x42,  0x02, 
   0x31,  0x10,  0x11,  0x61,  0x01, 
   0xd0,  0x88,  0x88,  0x58,  0x08, 
   0x94,  0x41,  0x40,  0x4c,  0x04, 
   0x92,  0x22,  0x27,  0x4a,  0x02, 
   0x91,  0x04,  0x15,  0x49,  0x01, 
   0x90,  0x08,  0x85,  0x48,  0x08, 
   0x94,  0x10,  0x45,  0x48,  0x04, 
   0x92,  0x60,  0x35,  0x48,  0x02, 
   0x91,  0x80,  0x0d,  0x48,  0x01, 
   0x90,  0x00,  0x05,  0x48,  0x08, 
   0x94,  0x00,  0x05,  0x48,  0x04, 
   0x92,  0x00,  0x05,  0x48,  0x02, 
   0x91,  0x80,  0x0d,  0x48,  0x01, 
   0x90,  0x60,  0x35,  0x48,  0x08, 
   0x94,  0x10,  0x45,  0x48,  0x04, 
   0x92,  0x08,  0x85,  0x48,  0x02, 
   0x91,  0x04,  0x15,  0x49,  0x01, 
   0x90,  0x02,  0x07,  0x4a,  0x08, 
   0x94,  0x41,  0x40,  0x4c,  0x04, 
   0xd2,  0x20,  0x20,  0x58,  0x02, 
   0x31,  0x10,  0x11,  0x61,  0x01, 
   0x10,  0x88,  0x88,  0x40,  0x08, 
   0x04,  0x44,  0x44,  0x04,  0x04, 
   0x02,  0x22,  0x22,  0x02,  0x02, 
   0x11,  0x11,  0x11,  0x11,  0x01, 
   0x88,  0x88,  0x88,  0x88,  0x08, 
   0x44,  0x44,  0x44,  0x44,  0x04, 
   0x22,  0x22,  0x22,  0x22,  0x02, 
   0x11,  0x11,  0x11,  0x11,  0x01, };
